%TF.GenerationSoftware,KiCad,Pcbnew,9.0.0*%
%TF.CreationDate,2025-03-28T16:46:08+02:00*%
%TF.ProjectId,Micromouse Power Subsystem,4d696372-6f6d-46f7-9573-6520506f7765,2.0*%
%TF.SameCoordinates,Original*%
%TF.FileFunction,Profile,NP*%
%FSLAX46Y46*%
G04 Gerber Fmt 4.6, Leading zero omitted, Abs format (unit mm)*
G04 Created by KiCad (PCBNEW 9.0.0) date 2025-03-28 16:46:08*
%MOMM*%
%LPD*%
G01*
G04 APERTURE LIST*
%TA.AperFunction,Profile*%
%ADD10C,0.200000*%
%TD*%
%TA.AperFunction,Profile*%
%ADD11C,0.000000*%
%TD*%
G04 APERTURE END LIST*
D10*
X96500000Y-51000000D02*
X178500000Y-51000000D01*
X178500000Y-111000000D01*
X96500000Y-111000000D01*
X96500000Y-51000000D01*
D11*
%TA.AperFunction,Profile*%
%TO.C,SW1*%
G36*
X127625780Y-52580728D02*
G01*
X127742288Y-52633936D01*
X127839087Y-52717813D01*
X127908334Y-52825563D01*
X127944420Y-52948458D01*
X127944420Y-53076542D01*
X127908334Y-53199437D01*
X127839087Y-53307187D01*
X127742288Y-53391064D01*
X127625780Y-53444272D01*
X127499000Y-53462500D01*
X127372220Y-53444272D01*
X127255712Y-53391064D01*
X127158913Y-53307187D01*
X127089666Y-53199437D01*
X127053580Y-53076542D01*
X127053580Y-52948458D01*
X127089666Y-52825563D01*
X127158913Y-52717813D01*
X127255712Y-52633936D01*
X127372220Y-52580728D01*
X127499000Y-52562500D01*
X127625780Y-52580728D01*
G37*
%TD.AperFunction*%
%TA.AperFunction,Profile*%
G36*
X130628280Y-52580728D02*
G01*
X130744788Y-52633936D01*
X130841587Y-52717813D01*
X130910834Y-52825563D01*
X130946920Y-52948458D01*
X130946920Y-53076542D01*
X130910834Y-53199437D01*
X130841587Y-53307187D01*
X130744788Y-53391064D01*
X130628280Y-53444272D01*
X130501500Y-53462500D01*
X130374720Y-53444272D01*
X130258212Y-53391064D01*
X130161413Y-53307187D01*
X130092166Y-53199437D01*
X130056080Y-53076542D01*
X130056080Y-52948458D01*
X130092166Y-52825563D01*
X130161413Y-52717813D01*
X130258212Y-52633936D01*
X130374720Y-52580728D01*
X130501500Y-52562500D01*
X130628280Y-52580728D01*
G37*
%TD.AperFunction*%
%TD*%
M02*
