%TF.GenerationSoftware,KiCad,Pcbnew,9.0.0*%
%TF.CreationDate,2025-03-28T16:46:07+02:00*%
%TF.ProjectId,Micromouse Power Subsystem,4d696372-6f6d-46f7-9573-6520506f7765,2.0*%
%TF.SameCoordinates,Original*%
%TF.FileFunction,Copper,L2,Bot*%
%TF.FilePolarity,Positive*%
%FSLAX46Y46*%
G04 Gerber Fmt 4.6, Leading zero omitted, Abs format (unit mm)*
G04 Created by KiCad (PCBNEW 9.0.0) date 2025-03-28 16:46:07*
%MOMM*%
%LPD*%
G01*
G04 APERTURE LIST*
%TA.AperFunction,ComponentPad*%
%ADD10C,0.300000*%
%TD*%
%TA.AperFunction,ComponentPad*%
%ADD11C,5.600000*%
%TD*%
%TA.AperFunction,ComponentPad*%
%ADD12R,1.700000X1.700000*%
%TD*%
%TA.AperFunction,ComponentPad*%
%ADD13O,1.700000X1.700000*%
%TD*%
%TA.AperFunction,ComponentPad*%
%ADD14R,1.308000X1.308000*%
%TD*%
%TA.AperFunction,ComponentPad*%
%ADD15C,1.308000*%
%TD*%
%TA.AperFunction,ComponentPad*%
%ADD16C,0.400000*%
%TD*%
%TA.AperFunction,ViaPad*%
%ADD17C,0.800000*%
%TD*%
%TA.AperFunction,Conductor*%
%ADD18C,0.400000*%
%TD*%
%TA.AperFunction,Conductor*%
%ADD19C,0.250000*%
%TD*%
G04 APERTURE END LIST*
D10*
%TO.P,U5,29,PGND*%
%TO.N,GND*%
X166035000Y-79280000D03*
%TO.P,U5,28,PGND*%
X166810000Y-78530000D03*
%TO.P,U5,27,PGND*%
X166035000Y-78530000D03*
%TO.P,U5,26,PGND*%
X165260000Y-78530000D03*
%TO.P,U5,25,PGND*%
X166810000Y-77480000D03*
%TO.P,U5,24,PGND*%
X166035000Y-77480000D03*
%TO.P,U5,23,PGND*%
X165260000Y-77480000D03*
%TO.P,U5,22,PGND*%
X166035000Y-76730000D03*
%TD*%
D11*
%TO.P,3V,2*%
%TO.N,+3V3*%
X137500000Y-80000000D03*
%TD*%
D12*
%TO.P,J2,1,Pin_1*%
%TO.N,/Motor2_B_OUT*%
X156550000Y-104915000D03*
D13*
%TO.P,J2,2,Pin_2*%
%TO.N,/Motor2_A_OUT*%
X156550000Y-107455000D03*
%TO.P,J2,3,Pin_3*%
%TO.N,/Motor4_A_OUT*%
X154010000Y-104915000D03*
%TO.P,J2,4,Pin_4*%
%TO.N,/Motor2_CTRL1*%
X154010000Y-107455000D03*
%TO.P,J2,5,Pin_5*%
%TO.N,/Motor4_B_OUT*%
X151470000Y-104915000D03*
%TO.P,J2,6,Pin_6*%
%TO.N,/Motor2_CTRL2*%
X151470000Y-107455000D03*
%TO.P,J2,7,Pin_7*%
%TO.N,/CTRL_EXT_LOAD2*%
X148930000Y-104915000D03*
%TO.P,J2,8,Pin_8*%
%TO.N,/Motor4_CTRL1*%
X148930000Y-107455000D03*
%TO.P,J2,9,Pin_9*%
%TO.N,/USART2_RX*%
X146390000Y-104915000D03*
%TO.P,J2,10,Pin_10*%
%TO.N,/Motor4_CTRL2*%
X146390000Y-107455000D03*
%TO.P,J2,11,Pin_11*%
%TO.N,/EXT_LOAD2_OUT*%
X143850000Y-104915000D03*
%TO.P,J2,12,Pin_12*%
%TO.N,/USART2_TX*%
X143850000Y-107455000D03*
%TO.P,J2,13,Pin_13*%
%TO.N,/FAST_CHARGE_CTRL*%
X141310000Y-104915000D03*
%TO.P,J2,14,Pin_14*%
%TO.N,/BAT+*%
X141310000Y-107455000D03*
%TO.P,J2,15,Pin_15*%
%TO.N,unconnected-(J2-Pin_15-Pad15)*%
X138770000Y-104915000D03*
%TO.P,J2,16,Pin_16*%
%TO.N,/SCL*%
X138770000Y-107455000D03*
%TO.P,J2,17,Pin_17*%
%TO.N,/SDA*%
X136230000Y-104915000D03*
%TO.P,J2,18,Pin_18*%
%TO.N,+3V3*%
X136230000Y-107455000D03*
%TO.P,J2,19,Pin_19*%
%TO.N,GND*%
X133690000Y-104915000D03*
%TO.P,J2,20,Pin_20*%
%TO.N,+5V*%
X133690000Y-107455000D03*
%TO.P,J2,21,Pin_21*%
%TO.N,/EXT_LOAD1_OUT*%
X131150000Y-104915000D03*
%TO.P,J2,22,Pin_22*%
%TO.N,/HV*%
X131150000Y-107455000D03*
%TO.P,J2,23,Pin_23*%
%TO.N,GND*%
X128610000Y-104915000D03*
%TO.P,J2,24,Pin_24*%
%TO.N,/Motor3_CTRL1*%
X128610000Y-107455000D03*
%TO.P,J2,25,Pin_25*%
%TO.N,/CTRL_EXT_LOAD1*%
X126070000Y-104915000D03*
%TO.P,J2,26,Pin_26*%
%TO.N,/Motor3_CTRL2*%
X126070000Y-107455000D03*
%TO.P,J2,27,Pin_27*%
%TO.N,/Motor3_A_OUT*%
X123530000Y-104915000D03*
%TO.P,J2,28,Pin_28*%
%TO.N,/Motor1_CTRL1*%
X123530000Y-107455000D03*
%TO.P,J2,29,Pin_29*%
%TO.N,/Motor3_B_OUT*%
X120990000Y-104915000D03*
%TO.P,J2,30,Pin_30*%
%TO.N,/Motor1_CTRL2*%
X120990000Y-107455000D03*
%TO.P,J2,31,Pin_31*%
%TO.N,/Motor1_B_OUT*%
X118450000Y-104915000D03*
%TO.P,J2,32,Pin_32*%
%TO.N,/Motor1_A_OUT*%
X118450000Y-107455000D03*
%TD*%
D14*
%TO.P,J3,1,1*%
%TO.N,/BAT+*%
X102600000Y-78740000D03*
D15*
%TO.P,J3,2,2*%
%TO.N,GND*%
X100600000Y-78740000D03*
%TD*%
D16*
%TO.P,U2,18*%
%TO.N,N/C*%
X128790000Y-83070000D03*
%TO.P,U2,19*%
X129370000Y-83650000D03*
%TO.P,U2,20*%
X128210000Y-83650000D03*
%TO.P,U2,21*%
X129370000Y-82490000D03*
%TO.P,U2,22*%
X128210000Y-82490000D03*
%TD*%
D11*
%TO.P,5V,1*%
%TO.N,+5V*%
X137500000Y-70000000D03*
%TD*%
D17*
%TO.N,/JST1*%
X137160000Y-58420000D03*
%TO.N,/BAT+*%
X137160000Y-83820000D03*
X139406314Y-99225686D03*
X129540000Y-76200000D03*
X131714000Y-81280000D03*
%TO.N,/JST1*%
X128757500Y-60177500D03*
X132225000Y-60960000D03*
X124297445Y-84545000D03*
%TO.N,/HV*%
X101600000Y-83820000D03*
X124460000Y-86360000D03*
%TO.N,Net-(D2-PadC)*%
X125460003Y-63500000D03*
X121920000Y-55880000D03*
%TO.N,/JST1*%
X129540000Y-78740000D03*
X124460000Y-81280000D03*
%TO.N,Net-(D1-PadC)*%
X119380000Y-58420000D03*
X124460000Y-63500000D03*
%TO.N,Net-(U2-~{PGOOD})*%
X127000000Y-73660000D03*
X127000000Y-78740000D03*
%TO.N,/HV*%
X134066000Y-88900000D03*
X134066000Y-101600000D03*
%TO.N,/FAST_CHARGE_CTRL*%
X142240000Y-98260000D03*
%TO.N,/VIN_SWITCHED*%
X160020000Y-91440000D03*
%TO.N,Net-(U5-BOOT)*%
X160382653Y-80917347D03*
X157480000Y-81280000D03*
%TO.N,/VIN_SWITCHED*%
X157480000Y-63500000D03*
X157480000Y-66040000D03*
%TO.N,Net-(U5-FB)*%
X172720000Y-81795000D03*
X170180000Y-76200000D03*
%TO.N,+5V*%
X167640000Y-86360000D03*
X170180000Y-78740000D03*
%TO.N,/VIN_SWITCHED*%
X165053723Y-81326277D03*
X168423939Y-79254368D03*
%TO.N,Net-(U5-VCC)*%
X165100000Y-73660000D03*
X168365000Y-73660000D03*
%TO.N,+3V3*%
X144780000Y-68580000D03*
%TO.N,/EXT_LOAD1_OUT*%
X127266554Y-108273997D03*
X127041799Y-103606779D03*
X127000000Y-100130000D03*
X121920000Y-96230000D03*
X123735000Y-99060000D03*
%TO.N,/CTRL_EXT_LOAD1*%
X119380000Y-96520000D03*
%TO.N,+5V*%
X121920000Y-91440000D03*
%TO.N,Net-(IC1-VDD)*%
X119380000Y-63500000D03*
X104849000Y-65049998D03*
%TO.N,/VBUS*%
X101600000Y-63500000D03*
X109306987Y-60969578D03*
%TO.N,Net-(IC1-VDD)*%
X104140000Y-65049998D03*
X101600000Y-68580000D03*
%TO.N,/CC1*%
X111760000Y-68580000D03*
X108558847Y-63463847D03*
%TO.N,/VIN_SWITCHED*%
X147320000Y-93980000D03*
X149381000Y-100120346D03*
X135665999Y-93978696D03*
X135964998Y-98980000D03*
%TO.N,/Motor1_CTRL2*%
X129806554Y-108273997D03*
%TO.N,+3V3*%
X147000363Y-98379998D03*
X144752000Y-99060000D03*
%TO.N,/Motor3_CTRL2*%
X131714000Y-103579183D03*
%TO.N,/Motor3_A_OUT*%
X124460000Y-96230000D03*
%TO.N,/Motor3_B_OUT*%
X118867347Y-98547347D03*
%TO.N,/Motor1_B_OUT*%
X116840000Y-101600000D03*
%TO.N,/CTRL_EXT_LOAD2*%
X170180000Y-109220000D03*
X149377661Y-105982033D03*
%TO.N,/Motor2_CTRL1*%
X147577087Y-108287664D03*
X148045000Y-103627347D03*
%TO.N,/Motor2_CTRL2*%
X149381000Y-99060000D03*
%TO.N,/Motor4_B_OUT*%
X153884999Y-96646697D03*
%TO.N,/JST1*%
X106680000Y-88900000D03*
X101600000Y-91440000D03*
%TO.N,/SDA*%
X132080000Y-108998997D03*
%TO.N,/SCL*%
X132080000Y-109999000D03*
%TO.N,+3V3*%
X149252300Y-96997605D03*
%TO.N,/Motor1_CTRL1*%
X137595153Y-109655153D03*
%TD*%
D18*
%TO.N,/JST1*%
X137160000Y-58420000D02*
X134620000Y-60960000D01*
X134620000Y-60960000D02*
X132225000Y-60960000D01*
%TO.N,/BAT+*%
X139406314Y-86066314D02*
X137160000Y-83820000D01*
X139406314Y-99225686D02*
X139406314Y-86066314D01*
X129540000Y-76200000D02*
X131714000Y-78374000D01*
X131714000Y-78374000D02*
X131714000Y-81280000D01*
%TO.N,/JST1*%
X129540000Y-60960000D02*
X128757500Y-60177500D01*
X132225000Y-60960000D02*
X129540000Y-60960000D01*
X124297445Y-81442555D02*
X124460000Y-81280000D01*
X124297445Y-84545000D02*
X124297445Y-81442555D01*
%TO.N,/HV*%
X121920000Y-83820000D02*
X124460000Y-86360000D01*
X101600000Y-83820000D02*
X121920000Y-83820000D01*
D19*
%TO.N,Net-(D2-PadC)*%
X125460003Y-63500000D02*
X125460003Y-59420003D01*
X125460003Y-59420003D02*
X121920000Y-55880000D01*
D18*
%TO.N,/JST1*%
X129540000Y-78740000D02*
X127000000Y-81280000D01*
X127000000Y-81280000D02*
X124460000Y-81280000D01*
D19*
%TO.N,Net-(D1-PadC)*%
X124460000Y-63500000D02*
X119380000Y-58420000D01*
%TO.N,Net-(U2-~{PGOOD})*%
X127000000Y-78740000D02*
X127000000Y-73660000D01*
D18*
%TO.N,/HV*%
X134066000Y-101600000D02*
X134066000Y-88900000D01*
X134066000Y-101600000D02*
X134340000Y-101600000D01*
D19*
%TO.N,/FAST_CHARGE_CTRL*%
X141310000Y-99190000D02*
X141310000Y-104915000D01*
X142240000Y-98260000D02*
X141310000Y-99190000D01*
%TO.N,/VIN_SWITCHED*%
X165053723Y-86406277D02*
X165053723Y-81326277D01*
X160020000Y-91440000D02*
X165053723Y-86406277D01*
%TO.N,Net-(U5-BOOT)*%
X160382653Y-80917347D02*
X160020000Y-81280000D01*
X160020000Y-81280000D02*
X157480000Y-81280000D01*
%TO.N,/VIN_SWITCHED*%
X157480000Y-66040000D02*
X157480000Y-63500000D01*
%TO.N,Net-(U5-FB)*%
X172720000Y-78740000D02*
X170180000Y-76200000D01*
X172720000Y-81795000D02*
X172720000Y-78740000D01*
D18*
%TO.N,+5V*%
X170180000Y-81280000D02*
X167640000Y-83820000D01*
X170180000Y-78740000D02*
X170180000Y-81280000D01*
X167640000Y-83820000D02*
X167640000Y-86360000D01*
D19*
%TO.N,/VIN_SWITCHED*%
X166352030Y-81326277D02*
X165053723Y-81326277D01*
X168423939Y-79254368D02*
X166352030Y-81326277D01*
%TO.N,Net-(U5-VCC)*%
X168365000Y-73660000D02*
X165100000Y-73660000D01*
D18*
%TO.N,+3V3*%
X137500000Y-75860000D02*
X137500000Y-80000000D01*
X144780000Y-68580000D02*
X137500000Y-75860000D01*
D19*
%TO.N,/EXT_LOAD1_OUT*%
X128237826Y-106164058D02*
X129900942Y-106164058D01*
X127266554Y-108273997D02*
X127266554Y-107135330D01*
X129900942Y-106164058D02*
X131150000Y-104915000D01*
X127000000Y-100130000D02*
X127000000Y-103564980D01*
X121920000Y-96230000D02*
X123735000Y-98045000D01*
X123735000Y-98045000D02*
X123735000Y-99060000D01*
X127000000Y-103564980D02*
X127041799Y-103606779D01*
X127266554Y-107135330D02*
X128237826Y-106164058D01*
%TO.N,/CTRL_EXT_LOAD1*%
X122352810Y-105588926D02*
X123042884Y-106279000D01*
X123042884Y-106279000D02*
X124706000Y-106279000D01*
X122352810Y-99492810D02*
X122352810Y-105588926D01*
X124706000Y-106279000D02*
X126070000Y-104915000D01*
X119380000Y-96520000D02*
X122352810Y-99492810D01*
D18*
%TO.N,+5V*%
X132514000Y-74986000D02*
X132514000Y-86360000D01*
X137500000Y-70000000D02*
X132514000Y-74986000D01*
X132514000Y-106279000D02*
X133690000Y-107455000D01*
X121920000Y-91440000D02*
X127434000Y-91440000D01*
X127434000Y-91440000D02*
X132514000Y-86360000D01*
X132514000Y-86360000D02*
X132514000Y-106279000D01*
D19*
%TO.N,Net-(IC1-VDD)*%
X108258127Y-62737847D02*
X118617847Y-62737847D01*
X105945976Y-65049998D02*
X108258127Y-62737847D01*
X118617847Y-62737847D02*
X119380000Y-63500000D01*
X104849000Y-65049998D02*
X105945976Y-65049998D01*
D18*
%TO.N,/VBUS*%
X106776565Y-63500000D02*
X109306987Y-60969578D01*
X101600000Y-63500000D02*
X106776565Y-63500000D01*
D19*
%TO.N,Net-(IC1-VDD)*%
X104140000Y-65049998D02*
X104140000Y-66040000D01*
X104140000Y-66040000D02*
X101600000Y-68580000D01*
%TO.N,/CC1*%
X111760000Y-66665000D02*
X111760000Y-68580000D01*
X108558847Y-63463847D02*
X111760000Y-66665000D01*
%TO.N,/VIN_SWITCHED*%
X147320000Y-97424280D02*
X147320000Y-93980000D01*
X148655000Y-98759280D02*
X147320000Y-97424280D01*
X148655000Y-99394346D02*
X148655000Y-98759280D01*
X149381000Y-100120346D02*
X148655000Y-99394346D01*
X135665999Y-98681001D02*
X135665999Y-93978696D01*
X135964998Y-98980000D02*
X135665999Y-98681001D01*
%TO.N,/Motor1_CTRL1*%
X119814000Y-107942116D02*
X119814000Y-106779884D01*
X119814000Y-106779884D02*
X120502884Y-106091000D01*
X122745884Y-110874000D02*
X119814000Y-107942116D01*
X136376306Y-110874000D02*
X122745884Y-110874000D01*
X120502884Y-106091000D02*
X122166000Y-106091000D01*
X122166000Y-106091000D02*
X123530000Y-107455000D01*
X137595153Y-109655153D02*
X136376306Y-110874000D01*
%TO.N,/Motor1_CTRL2*%
X122755000Y-109220000D02*
X120990000Y-107455000D01*
X128860551Y-109220000D02*
X122755000Y-109220000D01*
X129806554Y-108273997D02*
X128860551Y-109220000D01*
D18*
%TO.N,+3V3*%
X146320361Y-99060000D02*
X147000363Y-98379998D01*
X144752000Y-99060000D02*
X146320361Y-99060000D01*
D19*
%TO.N,/Motor3_CTRL2*%
X127246000Y-106279000D02*
X126070000Y-107455000D01*
X127246000Y-104427884D02*
X127246000Y-106279000D01*
X128094701Y-103579183D02*
X127246000Y-104427884D01*
X131714000Y-103579183D02*
X128094701Y-103579183D01*
%TO.N,/Motor3_A_OUT*%
X124460000Y-96230000D02*
X124460000Y-103985000D01*
X124460000Y-103985000D02*
X123530000Y-104915000D01*
%TO.N,/Motor3_B_OUT*%
X118867347Y-102792347D02*
X120990000Y-104915000D01*
X118867347Y-98547347D02*
X118867347Y-102792347D01*
%TO.N,/Motor1_B_OUT*%
X116840000Y-103305000D02*
X118450000Y-104915000D01*
X116840000Y-101600000D02*
X116840000Y-103305000D01*
%TO.N,/CTRL_EXT_LOAD2*%
X151571884Y-109220000D02*
X170180000Y-109220000D01*
X150294000Y-107942116D02*
X151571884Y-109220000D01*
X150294000Y-106967884D02*
X150294000Y-107942116D01*
X149377661Y-105982033D02*
X149377661Y-106051545D01*
X149377661Y-106051545D02*
X150294000Y-106967884D01*
%TO.N,/Motor2_CTRL1*%
X147577087Y-104416797D02*
X147577087Y-108287664D01*
X148045000Y-103627347D02*
X148045000Y-103948884D01*
X148045000Y-103948884D02*
X147577087Y-104416797D01*
%TO.N,/Motor2_CTRL2*%
X149381000Y-99060000D02*
X150294000Y-99973000D01*
X150294000Y-99973000D02*
X150294000Y-106279000D01*
X150294000Y-106279000D02*
X151470000Y-107455000D01*
%TO.N,/Motor4_B_OUT*%
X153884999Y-102500001D02*
X151470000Y-104915000D01*
X153884999Y-96646697D02*
X153884999Y-102500001D01*
D18*
%TO.N,/JST1*%
X104140000Y-88900000D02*
X106680000Y-88900000D01*
X101600000Y-91440000D02*
X104140000Y-88900000D01*
D19*
%TO.N,/SDA*%
X137406000Y-106091000D02*
X136230000Y-104915000D01*
X137406000Y-107942116D02*
X137406000Y-106091000D01*
X136349119Y-108998997D02*
X137406000Y-107942116D01*
X132080000Y-108998997D02*
X136349119Y-108998997D01*
%TO.N,/SCL*%
X136226000Y-109999000D02*
X138770000Y-107455000D01*
X132080000Y-109999000D02*
X136226000Y-109999000D01*
D18*
%TO.N,+3V3*%
X134866000Y-82634000D02*
X137500000Y-80000000D01*
X134866000Y-106091000D02*
X134866000Y-82634000D01*
X136230000Y-107455000D02*
X134866000Y-106091000D01*
X149252300Y-96997605D02*
X149252300Y-91752300D01*
X149252300Y-91752300D02*
X137500000Y-80000000D01*
%TD*%
%TA.AperFunction,Conductor*%
%TO.N,GND*%
G36*
X178442539Y-51020185D02*
G01*
X178488294Y-51072989D01*
X178499500Y-51124500D01*
X178499500Y-110875500D01*
X178479815Y-110942539D01*
X178427011Y-110988294D01*
X178375500Y-110999500D01*
X137434758Y-110999500D01*
X137367719Y-110979815D01*
X137321964Y-110927011D01*
X137312020Y-110857853D01*
X137341045Y-110794297D01*
X137347077Y-110787819D01*
X137542924Y-110591972D01*
X137604247Y-110558487D01*
X137630605Y-110555653D01*
X137683846Y-110555653D01*
X137683847Y-110555652D01*
X137741835Y-110544117D01*
X137857811Y-110521049D01*
X137857814Y-110521047D01*
X137857819Y-110521047D01*
X138021700Y-110453166D01*
X138169188Y-110354617D01*
X138294617Y-110229188D01*
X138393166Y-110081700D01*
X138461047Y-109917819D01*
X138475370Y-109845816D01*
X138485669Y-109794035D01*
X138495653Y-109743844D01*
X138495653Y-109566462D01*
X138495653Y-109566459D01*
X138495652Y-109566457D01*
X138461049Y-109392494D01*
X138461046Y-109392485D01*
X138393169Y-109228612D01*
X138393162Y-109228599D01*
X138294617Y-109081118D01*
X138294614Y-109081114D01*
X138249225Y-109035725D01*
X138244886Y-109027779D01*
X138237639Y-109022354D01*
X138228404Y-108997594D01*
X138215740Y-108974402D01*
X138216385Y-108965372D01*
X138213222Y-108956890D01*
X138218838Y-108931069D01*
X138220724Y-108904710D01*
X138226542Y-108895656D01*
X138228074Y-108888617D01*
X138249222Y-108860366D01*
X138312162Y-108797426D01*
X138373483Y-108763943D01*
X138438162Y-108767179D01*
X138453757Y-108772246D01*
X138663713Y-108805500D01*
X138663714Y-108805500D01*
X138876286Y-108805500D01*
X138876287Y-108805500D01*
X139086243Y-108772246D01*
X139288412Y-108706557D01*
X139477816Y-108610051D01*
X139598994Y-108522011D01*
X139649786Y-108485109D01*
X139649788Y-108485106D01*
X139649792Y-108485104D01*
X139800104Y-108334792D01*
X139800106Y-108334788D01*
X139800109Y-108334786D01*
X139925048Y-108162820D01*
X139925047Y-108162820D01*
X139925051Y-108162816D01*
X139929514Y-108154054D01*
X139977488Y-108103259D01*
X140045308Y-108086463D01*
X140111444Y-108108999D01*
X140150486Y-108154056D01*
X140154951Y-108162820D01*
X140279890Y-108334786D01*
X140430213Y-108485109D01*
X140602179Y-108610048D01*
X140602181Y-108610049D01*
X140602184Y-108610051D01*
X140791588Y-108706557D01*
X140993757Y-108772246D01*
X141203713Y-108805500D01*
X141203714Y-108805500D01*
X141416286Y-108805500D01*
X141416287Y-108805500D01*
X141626243Y-108772246D01*
X141828412Y-108706557D01*
X142017816Y-108610051D01*
X142138994Y-108522011D01*
X142189786Y-108485109D01*
X142189788Y-108485106D01*
X142189792Y-108485104D01*
X142340104Y-108334792D01*
X142340106Y-108334788D01*
X142340109Y-108334786D01*
X142465048Y-108162820D01*
X142465047Y-108162820D01*
X142465051Y-108162816D01*
X142469514Y-108154054D01*
X142517488Y-108103259D01*
X142585308Y-108086463D01*
X142651444Y-108108999D01*
X142690486Y-108154056D01*
X142694951Y-108162820D01*
X142819890Y-108334786D01*
X142970213Y-108485109D01*
X143142179Y-108610048D01*
X143142181Y-108610049D01*
X143142184Y-108610051D01*
X143331588Y-108706557D01*
X143533757Y-108772246D01*
X143743713Y-108805500D01*
X143743714Y-108805500D01*
X143956286Y-108805500D01*
X143956287Y-108805500D01*
X144166243Y-108772246D01*
X144368412Y-108706557D01*
X144557816Y-108610051D01*
X144678994Y-108522011D01*
X144729786Y-108485109D01*
X144729788Y-108485106D01*
X144729792Y-108485104D01*
X144880104Y-108334792D01*
X144880106Y-108334788D01*
X144880109Y-108334786D01*
X145005048Y-108162820D01*
X145005047Y-108162820D01*
X145005051Y-108162816D01*
X145009514Y-108154054D01*
X145057488Y-108103259D01*
X145125308Y-108086463D01*
X145191444Y-108108999D01*
X145230486Y-108154056D01*
X145234951Y-108162820D01*
X145359890Y-108334786D01*
X145510213Y-108485109D01*
X145682179Y-108610048D01*
X145682181Y-108610049D01*
X145682184Y-108610051D01*
X145871588Y-108706557D01*
X146073757Y-108772246D01*
X146283713Y-108805500D01*
X146283714Y-108805500D01*
X146496286Y-108805500D01*
X146496287Y-108805500D01*
X146706243Y-108772246D01*
X146708662Y-108771459D01*
X146709632Y-108771432D01*
X146710978Y-108771109D01*
X146711045Y-108771391D01*
X146778501Y-108769458D01*
X146838337Y-108805533D01*
X146850091Y-108820495D01*
X146877625Y-108861702D01*
X147003048Y-108987125D01*
X147003052Y-108987128D01*
X147150533Y-109085673D01*
X147150546Y-109085680D01*
X147273450Y-109136587D01*
X147314421Y-109153558D01*
X147314423Y-109153558D01*
X147314428Y-109153560D01*
X147488391Y-109188163D01*
X147488394Y-109188164D01*
X147488396Y-109188164D01*
X147665780Y-109188164D01*
X147665781Y-109188163D01*
X147734491Y-109174496D01*
X147839745Y-109153560D01*
X147839748Y-109153558D01*
X147839753Y-109153558D01*
X147979622Y-109095622D01*
X148003627Y-109085680D01*
X148003627Y-109085679D01*
X148003634Y-109085677D01*
X148151122Y-108987128D01*
X148276551Y-108861699D01*
X148333662Y-108776225D01*
X148387272Y-108731423D01*
X148456597Y-108722715D01*
X148475078Y-108727186D01*
X148613757Y-108772246D01*
X148823713Y-108805500D01*
X148823714Y-108805500D01*
X149036286Y-108805500D01*
X149036287Y-108805500D01*
X149246243Y-108772246D01*
X149448412Y-108706557D01*
X149637816Y-108610051D01*
X149806709Y-108487344D01*
X149872515Y-108463864D01*
X149940569Y-108479690D01*
X149967275Y-108499981D01*
X151086023Y-109618729D01*
X151086026Y-109618733D01*
X151173151Y-109705858D01*
X151230001Y-109743844D01*
X151275599Y-109774312D01*
X151275601Y-109774313D01*
X151275600Y-109774313D01*
X151297035Y-109783191D01*
X151324751Y-109794671D01*
X151324752Y-109794672D01*
X151356089Y-109807652D01*
X151389432Y-109821463D01*
X151449855Y-109833481D01*
X151510277Y-109845500D01*
X151510278Y-109845500D01*
X169480639Y-109845500D01*
X169547678Y-109865185D01*
X169568321Y-109881820D01*
X169605961Y-109919461D01*
X169605965Y-109919464D01*
X169753446Y-110018009D01*
X169753459Y-110018016D01*
X169848014Y-110057181D01*
X169917334Y-110085894D01*
X169917336Y-110085894D01*
X169917341Y-110085896D01*
X170091304Y-110120499D01*
X170091307Y-110120500D01*
X170091309Y-110120500D01*
X170268693Y-110120500D01*
X170268694Y-110120499D01*
X170326682Y-110108964D01*
X170442658Y-110085896D01*
X170442661Y-110085894D01*
X170442666Y-110085894D01*
X170606547Y-110018013D01*
X170754035Y-109919464D01*
X170879464Y-109794035D01*
X170978013Y-109646547D01*
X171045894Y-109482666D01*
X171056349Y-109430109D01*
X171080499Y-109308695D01*
X171080500Y-109308693D01*
X171080500Y-109131306D01*
X171080499Y-109131304D01*
X171045896Y-108957341D01*
X171045893Y-108957332D01*
X171045212Y-108955689D01*
X171013029Y-108877989D01*
X170978016Y-108793459D01*
X170978009Y-108793446D01*
X170879464Y-108645965D01*
X170879461Y-108645961D01*
X170754038Y-108520538D01*
X170754034Y-108520535D01*
X170606553Y-108421990D01*
X170606540Y-108421983D01*
X170442667Y-108354106D01*
X170442658Y-108354103D01*
X170268694Y-108319500D01*
X170268691Y-108319500D01*
X170091309Y-108319500D01*
X170091306Y-108319500D01*
X169917341Y-108354103D01*
X169917332Y-108354106D01*
X169753459Y-108421983D01*
X169753446Y-108421990D01*
X169605965Y-108520535D01*
X169605961Y-108520538D01*
X169568321Y-108558180D01*
X169506999Y-108591666D01*
X169480639Y-108594500D01*
X157619758Y-108594500D01*
X157552719Y-108574815D01*
X157506964Y-108522011D01*
X157497020Y-108452853D01*
X157526045Y-108389297D01*
X157532077Y-108382819D01*
X157541399Y-108373497D01*
X157580104Y-108334792D01*
X157580106Y-108334788D01*
X157580109Y-108334786D01*
X157705048Y-108162820D01*
X157705047Y-108162820D01*
X157705051Y-108162816D01*
X157801557Y-107973412D01*
X157867246Y-107771243D01*
X157900500Y-107561287D01*
X157900500Y-107348713D01*
X157867246Y-107138757D01*
X157801557Y-106936588D01*
X157705051Y-106747184D01*
X157705049Y-106747181D01*
X157705048Y-106747179D01*
X157580109Y-106575213D01*
X157466569Y-106461673D01*
X157433084Y-106400350D01*
X157438068Y-106330658D01*
X157479940Y-106274725D01*
X157510915Y-106257810D01*
X157642331Y-106208796D01*
X157757546Y-106122546D01*
X157843796Y-106007331D01*
X157894091Y-105872483D01*
X157900500Y-105812873D01*
X157900499Y-104017128D01*
X157894091Y-103957517D01*
X157892810Y-103954083D01*
X157843797Y-103822671D01*
X157843793Y-103822664D01*
X157757547Y-103707455D01*
X157757544Y-103707452D01*
X157642335Y-103621206D01*
X157642328Y-103621202D01*
X157507482Y-103570908D01*
X157507483Y-103570908D01*
X157447883Y-103564501D01*
X157447881Y-103564500D01*
X157447873Y-103564500D01*
X157447864Y-103564500D01*
X155652129Y-103564500D01*
X155652123Y-103564501D01*
X155592516Y-103570908D01*
X155457671Y-103621202D01*
X155457664Y-103621206D01*
X155342455Y-103707452D01*
X155342452Y-103707455D01*
X155256206Y-103822664D01*
X155256203Y-103822669D01*
X155207189Y-103954083D01*
X155165317Y-104010016D01*
X155099853Y-104034433D01*
X155031580Y-104019581D01*
X155003326Y-103998430D01*
X154889786Y-103884890D01*
X154717820Y-103759951D01*
X154528414Y-103663444D01*
X154528413Y-103663443D01*
X154528412Y-103663443D01*
X154326243Y-103597754D01*
X154326241Y-103597753D01*
X154326240Y-103597753D01*
X154164957Y-103572208D01*
X154116287Y-103564500D01*
X154004452Y-103564500D01*
X153937413Y-103544815D01*
X153891658Y-103492011D01*
X153881714Y-103422853D01*
X153910739Y-103359297D01*
X153916771Y-103352819D01*
X153991385Y-103278205D01*
X154370856Y-102898735D01*
X154384255Y-102878683D01*
X154439310Y-102796287D01*
X154486462Y-102682453D01*
X154510499Y-102561607D01*
X154510499Y-97346058D01*
X154530184Y-97279019D01*
X154546819Y-97258376D01*
X154584460Y-97220735D01*
X154584463Y-97220732D01*
X154683012Y-97073244D01*
X154750893Y-96909363D01*
X154750983Y-96908914D01*
X154785498Y-96735392D01*
X154785499Y-96735390D01*
X154785499Y-96558003D01*
X154785498Y-96558001D01*
X154750895Y-96384038D01*
X154750892Y-96384029D01*
X154683015Y-96220156D01*
X154683008Y-96220143D01*
X154584463Y-96072662D01*
X154584460Y-96072658D01*
X154459037Y-95947235D01*
X154459033Y-95947232D01*
X154311552Y-95848687D01*
X154311539Y-95848680D01*
X154147666Y-95780803D01*
X154147657Y-95780800D01*
X153973693Y-95746197D01*
X153973690Y-95746197D01*
X153796308Y-95746197D01*
X153796305Y-95746197D01*
X153622340Y-95780800D01*
X153622331Y-95780803D01*
X153458458Y-95848680D01*
X153458445Y-95848687D01*
X153310964Y-95947232D01*
X153310960Y-95947235D01*
X153185537Y-96072658D01*
X153185534Y-96072662D01*
X153086989Y-96220143D01*
X153086982Y-96220156D01*
X153019105Y-96384029D01*
X153019102Y-96384038D01*
X152984499Y-96558001D01*
X152984499Y-96735392D01*
X153019102Y-96909355D01*
X153019105Y-96909364D01*
X153086982Y-97073237D01*
X153086989Y-97073250D01*
X153185534Y-97220731D01*
X153185537Y-97220735D01*
X153223179Y-97258376D01*
X153256665Y-97319698D01*
X153259499Y-97346058D01*
X153259499Y-102189547D01*
X153239814Y-102256586D01*
X153223180Y-102277228D01*
X151927837Y-103572570D01*
X151866514Y-103606055D01*
X151801842Y-103602821D01*
X151786246Y-103597754D01*
X151627239Y-103572570D01*
X151576287Y-103564500D01*
X151363713Y-103564500D01*
X151324202Y-103570757D01*
X151153759Y-103597753D01*
X151153755Y-103597754D01*
X151081817Y-103621128D01*
X151011976Y-103623123D01*
X150952143Y-103587042D01*
X150921316Y-103524341D01*
X150919500Y-103503197D01*
X150919500Y-99911393D01*
X150919499Y-99911389D01*
X150913355Y-99880499D01*
X150895463Y-99790548D01*
X150859387Y-99703453D01*
X150848312Y-99676714D01*
X150814084Y-99625490D01*
X150779858Y-99574267D01*
X150779856Y-99574264D01*
X150689637Y-99484045D01*
X150689606Y-99484016D01*
X150317819Y-99112229D01*
X150284334Y-99050906D01*
X150281500Y-99024548D01*
X150281500Y-98971306D01*
X150281499Y-98971304D01*
X150246896Y-98797341D01*
X150246893Y-98797332D01*
X150245056Y-98792898D01*
X150213757Y-98717334D01*
X150179016Y-98633459D01*
X150179009Y-98633446D01*
X150080464Y-98485965D01*
X150080461Y-98485961D01*
X149955038Y-98360538D01*
X149955034Y-98360535D01*
X149807553Y-98261990D01*
X149807540Y-98261983D01*
X149643667Y-98194106D01*
X149643658Y-98194103D01*
X149469694Y-98159500D01*
X149469691Y-98159500D01*
X149292309Y-98159500D01*
X149292306Y-98159500D01*
X149118341Y-98194103D01*
X149118329Y-98194107D01*
X149093109Y-98204553D01*
X149073235Y-98206688D01*
X149054508Y-98213674D01*
X149039208Y-98210345D01*
X149023640Y-98212019D01*
X149005765Y-98203070D01*
X148986235Y-98198822D01*
X148963939Y-98182131D01*
X148961162Y-98180741D01*
X148957981Y-98177671D01*
X148840075Y-98059765D01*
X148806590Y-97998442D01*
X148811574Y-97928750D01*
X148853446Y-97872817D01*
X148918910Y-97848400D01*
X148975207Y-97857523D01*
X148989634Y-97863499D01*
X148989636Y-97863499D01*
X148989641Y-97863501D01*
X149163604Y-97898104D01*
X149163607Y-97898105D01*
X149163609Y-97898105D01*
X149340993Y-97898105D01*
X149340994Y-97898104D01*
X149398982Y-97886569D01*
X149514958Y-97863501D01*
X149514961Y-97863499D01*
X149514966Y-97863499D01*
X149678847Y-97795618D01*
X149826335Y-97697069D01*
X149951764Y-97571640D01*
X150050313Y-97424152D01*
X150118194Y-97260271D01*
X150126059Y-97220735D01*
X150144007Y-97130499D01*
X150152800Y-97086296D01*
X150152800Y-96908914D01*
X150152800Y-96908911D01*
X150152799Y-96908909D01*
X150118196Y-96734946D01*
X150118193Y-96734937D01*
X150050313Y-96571058D01*
X150050311Y-96571056D01*
X150050311Y-96571054D01*
X149973698Y-96456395D01*
X149952820Y-96389717D01*
X149952800Y-96387504D01*
X149952800Y-91683304D01*
X149925881Y-91547977D01*
X149925880Y-91547976D01*
X149925880Y-91547972D01*
X149917895Y-91528695D01*
X149873077Y-91420493D01*
X149873076Y-91420491D01*
X149873075Y-91420489D01*
X149826847Y-91351304D01*
X159119500Y-91351304D01*
X159119500Y-91528695D01*
X159154103Y-91702658D01*
X159154106Y-91702667D01*
X159221983Y-91866540D01*
X159221990Y-91866553D01*
X159320535Y-92014034D01*
X159320538Y-92014038D01*
X159445961Y-92139461D01*
X159445965Y-92139464D01*
X159593446Y-92238009D01*
X159593459Y-92238016D01*
X159716363Y-92288923D01*
X159757334Y-92305894D01*
X159757336Y-92305894D01*
X159757341Y-92305896D01*
X159931304Y-92340499D01*
X159931307Y-92340500D01*
X159931309Y-92340500D01*
X160108693Y-92340500D01*
X160108694Y-92340499D01*
X160166682Y-92328964D01*
X160282658Y-92305896D01*
X160282661Y-92305894D01*
X160282666Y-92305894D01*
X160446547Y-92238013D01*
X160594035Y-92139464D01*
X160719464Y-92014035D01*
X160818013Y-91866547D01*
X160885894Y-91702666D01*
X160889746Y-91683304D01*
X160920499Y-91528695D01*
X160920500Y-91528693D01*
X160920500Y-91475452D01*
X160940185Y-91408413D01*
X160956819Y-91387771D01*
X163181932Y-89162658D01*
X165539580Y-86805011D01*
X165551918Y-86786547D01*
X165608034Y-86702563D01*
X165655186Y-86588729D01*
X165679223Y-86467883D01*
X165679223Y-82075777D01*
X165698908Y-82008738D01*
X165751712Y-81962983D01*
X165803223Y-81951777D01*
X166413637Y-81951777D01*
X166474059Y-81939758D01*
X166534482Y-81927740D01*
X166588174Y-81905500D01*
X166648316Y-81880589D01*
X166699539Y-81846361D01*
X166750763Y-81812135D01*
X166837888Y-81725010D01*
X166837889Y-81725008D01*
X166844955Y-81717942D01*
X166844957Y-81717938D01*
X168371710Y-80191187D01*
X168433033Y-80157702D01*
X168459391Y-80154868D01*
X168512632Y-80154868D01*
X168512633Y-80154867D01*
X168570621Y-80143332D01*
X168686597Y-80120264D01*
X168686600Y-80120262D01*
X168686605Y-80120262D01*
X168850486Y-80052381D01*
X168997974Y-79953832D01*
X169123403Y-79828403D01*
X169221952Y-79680915D01*
X169240939Y-79635075D01*
X169284779Y-79580673D01*
X169351073Y-79558607D01*
X169418772Y-79575885D01*
X169466383Y-79627022D01*
X169479500Y-79682528D01*
X169479500Y-80938480D01*
X169459815Y-81005519D01*
X169443181Y-81026161D01*
X167095888Y-83373453D01*
X167095887Y-83373454D01*
X167019222Y-83488192D01*
X166966421Y-83615667D01*
X166966418Y-83615679D01*
X166940302Y-83746976D01*
X166940299Y-83746993D01*
X166939500Y-83751005D01*
X166939500Y-85749899D01*
X166919815Y-85816938D01*
X166918602Y-85818790D01*
X166841988Y-85933449D01*
X166841987Y-85933452D01*
X166774106Y-86097332D01*
X166774103Y-86097341D01*
X166739500Y-86271304D01*
X166739500Y-86448695D01*
X166774103Y-86622658D01*
X166774106Y-86622667D01*
X166841983Y-86786540D01*
X166841990Y-86786553D01*
X166940535Y-86934034D01*
X166940538Y-86934038D01*
X167065961Y-87059461D01*
X167065965Y-87059464D01*
X167213446Y-87158009D01*
X167213459Y-87158016D01*
X167336363Y-87208923D01*
X167377334Y-87225894D01*
X167377336Y-87225894D01*
X167377341Y-87225896D01*
X167551304Y-87260499D01*
X167551307Y-87260500D01*
X167551309Y-87260500D01*
X167728693Y-87260500D01*
X167728694Y-87260499D01*
X167786682Y-87248964D01*
X167902658Y-87225896D01*
X167902661Y-87225894D01*
X167902666Y-87225894D01*
X168066547Y-87158013D01*
X168214035Y-87059464D01*
X168339464Y-86934035D01*
X168438013Y-86786547D01*
X168505894Y-86622666D01*
X168540500Y-86448691D01*
X168540500Y-86271309D01*
X168540500Y-86271306D01*
X168540499Y-86271304D01*
X168505896Y-86097341D01*
X168505893Y-86097332D01*
X168438013Y-85933453D01*
X168438011Y-85933451D01*
X168438011Y-85933449D01*
X168361398Y-85818790D01*
X168340520Y-85752112D01*
X168340500Y-85749899D01*
X168340500Y-84161518D01*
X168360185Y-84094479D01*
X168376819Y-84073837D01*
X169542176Y-82908480D01*
X170724113Y-81726543D01*
X170724655Y-81725731D01*
X170725154Y-81724987D01*
X170754516Y-81681041D01*
X170800775Y-81611811D01*
X170843473Y-81508728D01*
X170853580Y-81484329D01*
X170858934Y-81457409D01*
X170880500Y-81348993D01*
X170880500Y-79350099D01*
X170900185Y-79283060D01*
X170901398Y-79281208D01*
X170911017Y-79266812D01*
X170978013Y-79166547D01*
X171045894Y-79002666D01*
X171046606Y-78999090D01*
X171080499Y-78828695D01*
X171080500Y-78828693D01*
X171080500Y-78651306D01*
X171080499Y-78651304D01*
X171045896Y-78477341D01*
X171045893Y-78477332D01*
X171042762Y-78469774D01*
X171011871Y-78395195D01*
X170978016Y-78313459D01*
X170978009Y-78313446D01*
X170879464Y-78165965D01*
X170879461Y-78165961D01*
X170754038Y-78040538D01*
X170754034Y-78040535D01*
X170606553Y-77941990D01*
X170606540Y-77941983D01*
X170442667Y-77874106D01*
X170442658Y-77874103D01*
X170268694Y-77839500D01*
X170268691Y-77839500D01*
X170091309Y-77839500D01*
X170091306Y-77839500D01*
X169917341Y-77874103D01*
X169917332Y-77874106D01*
X169753459Y-77941983D01*
X169753446Y-77941990D01*
X169605965Y-78040535D01*
X169605961Y-78040538D01*
X169480538Y-78165961D01*
X169480535Y-78165965D01*
X169381990Y-78313446D01*
X169381983Y-78313459D01*
X169314106Y-78477332D01*
X169314104Y-78477340D01*
X169294044Y-78578186D01*
X169261659Y-78640097D01*
X169200943Y-78674671D01*
X169131173Y-78670930D01*
X169084746Y-78641675D01*
X168997977Y-78554906D01*
X168997973Y-78554903D01*
X168850492Y-78456358D01*
X168850479Y-78456351D01*
X168686606Y-78388474D01*
X168686597Y-78388471D01*
X168512633Y-78353868D01*
X168512630Y-78353868D01*
X168335248Y-78353868D01*
X168335245Y-78353868D01*
X168161280Y-78388471D01*
X168161271Y-78388474D01*
X167997398Y-78456351D01*
X167997385Y-78456358D01*
X167849904Y-78554903D01*
X167849900Y-78554906D01*
X167724477Y-78680329D01*
X167669785Y-78762181D01*
X167616172Y-78806985D01*
X167546847Y-78815692D01*
X167483820Y-78785537D01*
X167447101Y-78726093D01*
X167445066Y-78669097D01*
X167459999Y-78594020D01*
X167460000Y-78594020D01*
X167460000Y-78465980D01*
X167459999Y-78465976D01*
X167435022Y-78340409D01*
X167435020Y-78340401D01*
X167386023Y-78222112D01*
X167363591Y-78188540D01*
X167022132Y-78529999D01*
X167022132Y-78530000D01*
X167363589Y-78871458D01*
X167419936Y-78865909D01*
X167443181Y-78870317D01*
X167466841Y-78870281D01*
X167476875Y-78876707D01*
X167488582Y-78878928D01*
X167505753Y-78895203D01*
X167525678Y-78907965D01*
X167530645Y-78918797D01*
X167539292Y-78926993D01*
X167544938Y-78949967D01*
X167554801Y-78971476D01*
X167554362Y-78988315D01*
X167555967Y-78994844D01*
X167554855Y-79006770D01*
X167554371Y-79010169D01*
X167523439Y-79165677D01*
X167523439Y-79227689D01*
X167522204Y-79236374D01*
X167511224Y-79260514D01*
X167503754Y-79285955D01*
X167494339Y-79297637D01*
X167493277Y-79299974D01*
X167491570Y-79301074D01*
X167487120Y-79306597D01*
X166129259Y-80664458D01*
X166067936Y-80697943D01*
X166041578Y-80700777D01*
X165753084Y-80700777D01*
X165686045Y-80681092D01*
X165665402Y-80664457D01*
X165627761Y-80626815D01*
X165627757Y-80626812D01*
X165480276Y-80528267D01*
X165480263Y-80528260D01*
X165316390Y-80460383D01*
X165316381Y-80460380D01*
X165142417Y-80425777D01*
X165142414Y-80425777D01*
X164965032Y-80425777D01*
X164965029Y-80425777D01*
X164791064Y-80460380D01*
X164791055Y-80460383D01*
X164627182Y-80528260D01*
X164627169Y-80528267D01*
X164479688Y-80626812D01*
X164479684Y-80626815D01*
X164354261Y-80752238D01*
X164354258Y-80752242D01*
X164255713Y-80899723D01*
X164255706Y-80899736D01*
X164187829Y-81063609D01*
X164187826Y-81063618D01*
X164153223Y-81237581D01*
X164153223Y-81414972D01*
X164187826Y-81588935D01*
X164187829Y-81588944D01*
X164255706Y-81752817D01*
X164255713Y-81752830D01*
X164354258Y-81900311D01*
X164354261Y-81900315D01*
X164391903Y-81937956D01*
X164425389Y-81999278D01*
X164428223Y-82025638D01*
X164428223Y-86095824D01*
X164408538Y-86162863D01*
X164391904Y-86183505D01*
X160072229Y-90503181D01*
X160010906Y-90536666D01*
X159984548Y-90539500D01*
X159931306Y-90539500D01*
X159757341Y-90574103D01*
X159757332Y-90574106D01*
X159593459Y-90641983D01*
X159593446Y-90641990D01*
X159445965Y-90740535D01*
X159445961Y-90740538D01*
X159320538Y-90865961D01*
X159320535Y-90865965D01*
X159221990Y-91013446D01*
X159221983Y-91013459D01*
X159154106Y-91177332D01*
X159154103Y-91177341D01*
X159119500Y-91351304D01*
X149826847Y-91351304D01*
X149796414Y-91305757D01*
X149796412Y-91305754D01*
X149796411Y-91305753D01*
X140348287Y-81857630D01*
X140314802Y-81796307D01*
X140319786Y-81726615D01*
X140332874Y-81701046D01*
X140334342Y-81698849D01*
X140334347Y-81698842D01*
X140487215Y-81412847D01*
X140578981Y-81191304D01*
X156579500Y-81191304D01*
X156579500Y-81368695D01*
X156614103Y-81542658D01*
X156614106Y-81542667D01*
X156681983Y-81706540D01*
X156681990Y-81706553D01*
X156780535Y-81854034D01*
X156780538Y-81854038D01*
X156905961Y-81979461D01*
X156905965Y-81979464D01*
X157053446Y-82078009D01*
X157053459Y-82078016D01*
X157176363Y-82128923D01*
X157217334Y-82145894D01*
X157217336Y-82145894D01*
X157217341Y-82145896D01*
X157391304Y-82180499D01*
X157391307Y-82180500D01*
X157391309Y-82180500D01*
X157568693Y-82180500D01*
X157568694Y-82180499D01*
X157626682Y-82168964D01*
X157742658Y-82145896D01*
X157742661Y-82145894D01*
X157742666Y-82145894D01*
X157906547Y-82078013D01*
X158054035Y-81979464D01*
X158091679Y-81941820D01*
X158153001Y-81908334D01*
X158179361Y-81905500D01*
X160081608Y-81905500D01*
X160081608Y-81905499D01*
X160169974Y-81887923D01*
X160202452Y-81881463D01*
X160262462Y-81856606D01*
X160316286Y-81834312D01*
X160316289Y-81834309D01*
X160319698Y-81832488D01*
X160378150Y-81817847D01*
X160471346Y-81817847D01*
X160471347Y-81817846D01*
X160529335Y-81806311D01*
X160645311Y-81783243D01*
X160645314Y-81783241D01*
X160645319Y-81783241D01*
X160785958Y-81724987D01*
X160809193Y-81715363D01*
X160809193Y-81715362D01*
X160809200Y-81715360D01*
X160956688Y-81616811D01*
X161082117Y-81491382D01*
X161180666Y-81343894D01*
X161248547Y-81180013D01*
X161251996Y-81162677D01*
X161283152Y-81006042D01*
X161283153Y-81006040D01*
X161283153Y-80828653D01*
X161283152Y-80828651D01*
X161248549Y-80654688D01*
X161248546Y-80654679D01*
X161180669Y-80490806D01*
X161180662Y-80490793D01*
X161082117Y-80343312D01*
X161082114Y-80343308D01*
X160956691Y-80217885D01*
X160956687Y-80217882D01*
X160809206Y-80119337D01*
X160809193Y-80119330D01*
X160645320Y-80051453D01*
X160645311Y-80051450D01*
X160471347Y-80016847D01*
X160471344Y-80016847D01*
X160293962Y-80016847D01*
X160293959Y-80016847D01*
X160119994Y-80051450D01*
X160119985Y-80051453D01*
X159956112Y-80119330D01*
X159956099Y-80119337D01*
X159808618Y-80217882D01*
X159808614Y-80217885D01*
X159683191Y-80343308D01*
X159683188Y-80343312D01*
X159584643Y-80490793D01*
X159584641Y-80490797D01*
X159578286Y-80506139D01*
X159548539Y-80577954D01*
X159504701Y-80632355D01*
X159438407Y-80654421D01*
X159433980Y-80654500D01*
X158179361Y-80654500D01*
X158112322Y-80634815D01*
X158091679Y-80618180D01*
X158054038Y-80580538D01*
X158054034Y-80580535D01*
X157906553Y-80481990D01*
X157906540Y-80481983D01*
X157742667Y-80414106D01*
X157742658Y-80414103D01*
X157568694Y-80379500D01*
X157568691Y-80379500D01*
X157391309Y-80379500D01*
X157391306Y-80379500D01*
X157217341Y-80414103D01*
X157217332Y-80414106D01*
X157053459Y-80481983D01*
X157053446Y-80481990D01*
X156905965Y-80580535D01*
X156905961Y-80580538D01*
X156780538Y-80705961D01*
X156780535Y-80705965D01*
X156681990Y-80853446D01*
X156681983Y-80853459D01*
X156614106Y-81017332D01*
X156614103Y-81017341D01*
X156579500Y-81191304D01*
X140578981Y-81191304D01*
X140611314Y-81113246D01*
X140705449Y-80802923D01*
X140705451Y-80802913D01*
X140705454Y-80802902D01*
X140767534Y-80490800D01*
X140768714Y-80484868D01*
X140800500Y-80162143D01*
X140800500Y-79837857D01*
X140800080Y-79833591D01*
X165693540Y-79833591D01*
X165727112Y-79856023D01*
X165845401Y-79905020D01*
X165845409Y-79905022D01*
X165970976Y-79929999D01*
X165970980Y-79930000D01*
X166099020Y-79930000D01*
X166099023Y-79929999D01*
X166224590Y-79905022D01*
X166224594Y-79905021D01*
X166342891Y-79856020D01*
X166342898Y-79856016D01*
X166376458Y-79833591D01*
X166376459Y-79833590D01*
X166035001Y-79492132D01*
X166035000Y-79492132D01*
X165693540Y-79833591D01*
X140800080Y-79833591D01*
X140768714Y-79515132D01*
X140741835Y-79380000D01*
X140705454Y-79197097D01*
X140705451Y-79197086D01*
X140705450Y-79197083D01*
X140705449Y-79197077D01*
X140671024Y-79083591D01*
X164918540Y-79083591D01*
X164952112Y-79106023D01*
X165070401Y-79155020D01*
X165070409Y-79155022D01*
X165195976Y-79179999D01*
X165195980Y-79180000D01*
X165261000Y-79180000D01*
X165328039Y-79199685D01*
X165373794Y-79252489D01*
X165385000Y-79304000D01*
X165385000Y-79344023D01*
X165409977Y-79469590D01*
X165409979Y-79469598D01*
X165458976Y-79587886D01*
X165458981Y-79587896D01*
X165481407Y-79621458D01*
X165481408Y-79621458D01*
X165822868Y-79280000D01*
X165802977Y-79260109D01*
X165935000Y-79260109D01*
X165935000Y-79299891D01*
X165950224Y-79336645D01*
X165978355Y-79364776D01*
X166015109Y-79380000D01*
X166054891Y-79380000D01*
X166091645Y-79364776D01*
X166119776Y-79336645D01*
X166135000Y-79299891D01*
X166135000Y-79280000D01*
X166247132Y-79280000D01*
X166588590Y-79621459D01*
X166588591Y-79621458D01*
X166611016Y-79587898D01*
X166611020Y-79587891D01*
X166660021Y-79469594D01*
X166660022Y-79469590D01*
X166684999Y-79344023D01*
X166685000Y-79344020D01*
X166685000Y-79304000D01*
X166704685Y-79236961D01*
X166757489Y-79191206D01*
X166809000Y-79180000D01*
X166874020Y-79180000D01*
X166874023Y-79179999D01*
X166999590Y-79155022D01*
X166999594Y-79155021D01*
X167117891Y-79106020D01*
X167117898Y-79106016D01*
X167151458Y-79083591D01*
X167151459Y-79083590D01*
X166810000Y-78742132D01*
X166413342Y-79138790D01*
X166358270Y-79168861D01*
X166247132Y-79280000D01*
X166135000Y-79280000D01*
X166135000Y-79260109D01*
X166119776Y-79223355D01*
X166091645Y-79195224D01*
X166054891Y-79180000D01*
X166015109Y-79180000D01*
X165978355Y-79195224D01*
X165950224Y-79223355D01*
X165935000Y-79260109D01*
X165802977Y-79260109D01*
X165707018Y-79164150D01*
X165677300Y-79155424D01*
X165656658Y-79138790D01*
X165260001Y-78742132D01*
X165260000Y-78742132D01*
X164918540Y-79083591D01*
X140671024Y-79083591D01*
X140611314Y-78886754D01*
X140487215Y-78587153D01*
X140487211Y-78587145D01*
X140450435Y-78518342D01*
X140422445Y-78465976D01*
X164610000Y-78465976D01*
X164610000Y-78594023D01*
X164634977Y-78719590D01*
X164634979Y-78719598D01*
X164683976Y-78837886D01*
X164683981Y-78837896D01*
X164706407Y-78871458D01*
X164706408Y-78871458D01*
X165047868Y-78530000D01*
X165047868Y-78529999D01*
X165027978Y-78510109D01*
X165160000Y-78510109D01*
X165160000Y-78549891D01*
X165175224Y-78586645D01*
X165203355Y-78614776D01*
X165240109Y-78630000D01*
X165279891Y-78630000D01*
X165316645Y-78614776D01*
X165344776Y-78586645D01*
X165360000Y-78549891D01*
X165360000Y-78530000D01*
X165472132Y-78530000D01*
X165587981Y-78645849D01*
X165617700Y-78654576D01*
X165638342Y-78671210D01*
X166035000Y-79067868D01*
X166431658Y-78671210D01*
X166486729Y-78641138D01*
X166597868Y-78530000D01*
X166577977Y-78510109D01*
X166710000Y-78510109D01*
X166710000Y-78549891D01*
X166725224Y-78586645D01*
X166753355Y-78614776D01*
X166790109Y-78630000D01*
X166829891Y-78630000D01*
X166866645Y-78614776D01*
X166894776Y-78586645D01*
X166910000Y-78549891D01*
X166910000Y-78510109D01*
X166894776Y-78473355D01*
X166866645Y-78445224D01*
X166829891Y-78430000D01*
X166790109Y-78430000D01*
X166753355Y-78445224D01*
X166725224Y-78473355D01*
X166710000Y-78510109D01*
X166577977Y-78510109D01*
X166422500Y-78354632D01*
X166228747Y-78548385D01*
X166220801Y-78552723D01*
X166215376Y-78559971D01*
X166190616Y-78569205D01*
X166167424Y-78581870D01*
X166158394Y-78581224D01*
X166149912Y-78584388D01*
X166124091Y-78578771D01*
X166123067Y-78578697D01*
X166135000Y-78549891D01*
X166135000Y-78510109D01*
X166119776Y-78473355D01*
X166091645Y-78445224D01*
X166054891Y-78430000D01*
X166015109Y-78430000D01*
X165978355Y-78445224D01*
X165950224Y-78473355D01*
X165935000Y-78510109D01*
X165935000Y-78549891D01*
X165948031Y-78581350D01*
X165885600Y-78576886D01*
X165841253Y-78548385D01*
X165647500Y-78354632D01*
X165472132Y-78530000D01*
X165360000Y-78530000D01*
X165360000Y-78510109D01*
X165344776Y-78473355D01*
X165316645Y-78445224D01*
X165279891Y-78430000D01*
X165240109Y-78430000D01*
X165203355Y-78445224D01*
X165175224Y-78473355D01*
X165160000Y-78510109D01*
X165027978Y-78510109D01*
X164706408Y-78188539D01*
X164706407Y-78188540D01*
X164683978Y-78222109D01*
X164634979Y-78340401D01*
X164634977Y-78340409D01*
X164610000Y-78465976D01*
X140422445Y-78465976D01*
X140334353Y-78301169D01*
X140334352Y-78301167D01*
X140334347Y-78301158D01*
X140154183Y-78031524D01*
X140154178Y-78031518D01*
X140132415Y-78005000D01*
X164947132Y-78005000D01*
X165260000Y-78317868D01*
X165435368Y-78142500D01*
X165435368Y-78117805D01*
X165431587Y-78110881D01*
X165428753Y-78084523D01*
X165428753Y-77925477D01*
X165434991Y-77904231D01*
X165435368Y-77898964D01*
X165435368Y-77867500D01*
X165859632Y-77867500D01*
X165859632Y-77892194D01*
X165863413Y-77899119D01*
X165866247Y-77925477D01*
X165866247Y-78084523D01*
X165860008Y-78105768D01*
X165859632Y-78111035D01*
X165859632Y-78142500D01*
X166035000Y-78317868D01*
X166210368Y-78142500D01*
X166210368Y-78117805D01*
X166206587Y-78110881D01*
X166206527Y-78058440D01*
X166219000Y-78000464D01*
X166613086Y-78000464D01*
X166613086Y-78011782D01*
X166638413Y-78058165D01*
X166634632Y-78111035D01*
X166634632Y-78142500D01*
X166810000Y-78317868D01*
X167122868Y-78005000D01*
X166810000Y-77692132D01*
X166634632Y-77867500D01*
X166634632Y-77892194D01*
X166638413Y-77899119D01*
X166633429Y-77968811D01*
X166613086Y-78000464D01*
X166219000Y-78000464D01*
X166222997Y-77981888D01*
X166206587Y-77951835D01*
X166210368Y-77898964D01*
X166210368Y-77867500D01*
X166035000Y-77692132D01*
X165859632Y-77867500D01*
X165435368Y-77867500D01*
X165260000Y-77692132D01*
X164947132Y-78005000D01*
X140132415Y-78005000D01*
X139948453Y-77780841D01*
X139719159Y-77551547D01*
X139701001Y-77536645D01*
X139553965Y-77415976D01*
X164610000Y-77415976D01*
X164610000Y-77544023D01*
X164634977Y-77669590D01*
X164634979Y-77669598D01*
X164683976Y-77787886D01*
X164683981Y-77787896D01*
X164706407Y-77821458D01*
X164706408Y-77821458D01*
X165047868Y-77480000D01*
X165047868Y-77479999D01*
X165027978Y-77460109D01*
X165160000Y-77460109D01*
X165160000Y-77499891D01*
X165175224Y-77536645D01*
X165203355Y-77564776D01*
X165240109Y-77580000D01*
X165279891Y-77580000D01*
X165316645Y-77564776D01*
X165344776Y-77536645D01*
X165360000Y-77499891D01*
X165360000Y-77480000D01*
X165472132Y-77480000D01*
X165647500Y-77655368D01*
X165841253Y-77461615D01*
X165849198Y-77457276D01*
X165854624Y-77450029D01*
X165879383Y-77440794D01*
X165902576Y-77428130D01*
X165911605Y-77428775D01*
X165920088Y-77425612D01*
X165945908Y-77431228D01*
X165946932Y-77431301D01*
X165935000Y-77460109D01*
X165935000Y-77499891D01*
X165950224Y-77536645D01*
X165978355Y-77564776D01*
X166015109Y-77580000D01*
X166054891Y-77580000D01*
X166091645Y-77564776D01*
X166119776Y-77536645D01*
X166135000Y-77499891D01*
X166135000Y-77460109D01*
X166121968Y-77428649D01*
X166184400Y-77433114D01*
X166228747Y-77461615D01*
X166422500Y-77655368D01*
X166597868Y-77480000D01*
X166577977Y-77460109D01*
X166710000Y-77460109D01*
X166710000Y-77499891D01*
X166725224Y-77536645D01*
X166753355Y-77564776D01*
X166790109Y-77580000D01*
X166829891Y-77580000D01*
X166866645Y-77564776D01*
X166894776Y-77536645D01*
X166910000Y-77499891D01*
X166910000Y-77479999D01*
X167022132Y-77479999D01*
X167022132Y-77480000D01*
X167363590Y-77821459D01*
X167363591Y-77821458D01*
X167386016Y-77787898D01*
X167386020Y-77787891D01*
X167435021Y-77669594D01*
X167435022Y-77669590D01*
X167459999Y-77544023D01*
X167460000Y-77544020D01*
X167460000Y-77415980D01*
X167459999Y-77415976D01*
X167435022Y-77290409D01*
X167435020Y-77290401D01*
X167386023Y-77172112D01*
X167363591Y-77138540D01*
X167022132Y-77479999D01*
X166910000Y-77479999D01*
X166910000Y-77460109D01*
X166894776Y-77423355D01*
X166866645Y-77395224D01*
X166829891Y-77380000D01*
X166790109Y-77380000D01*
X166753355Y-77395224D01*
X166725224Y-77423355D01*
X166710000Y-77460109D01*
X166577977Y-77460109D01*
X166482018Y-77364150D01*
X166452300Y-77355424D01*
X166431658Y-77338790D01*
X166035000Y-76942132D01*
X165638342Y-77338790D01*
X165583270Y-77368861D01*
X165472132Y-77480000D01*
X165360000Y-77480000D01*
X165360000Y-77460109D01*
X165344776Y-77423355D01*
X165316645Y-77395224D01*
X165279891Y-77380000D01*
X165240109Y-77380000D01*
X165203355Y-77395224D01*
X165175224Y-77423355D01*
X165160000Y-77460109D01*
X165027978Y-77460109D01*
X164706408Y-77138539D01*
X164706407Y-77138540D01*
X164683978Y-77172109D01*
X164634979Y-77290401D01*
X164634977Y-77290409D01*
X164610000Y-77415976D01*
X139553965Y-77415976D01*
X139468476Y-77345817D01*
X139198842Y-77165653D01*
X139198837Y-77165650D01*
X139198830Y-77165646D01*
X139042296Y-77081977D01*
X138912854Y-77012788D01*
X138912849Y-77012786D01*
X138877191Y-76998016D01*
X138704315Y-76926408D01*
X164918539Y-76926408D01*
X165259999Y-77267868D01*
X165656658Y-76871210D01*
X165711729Y-76841138D01*
X165822868Y-76730000D01*
X165822868Y-76729999D01*
X165802978Y-76710109D01*
X165935000Y-76710109D01*
X165935000Y-76749891D01*
X165950224Y-76786645D01*
X165978355Y-76814776D01*
X166015109Y-76830000D01*
X166054891Y-76830000D01*
X166091645Y-76814776D01*
X166119776Y-76786645D01*
X166135000Y-76749891D01*
X166135000Y-76729999D01*
X166247132Y-76729999D01*
X166247132Y-76730000D01*
X166362981Y-76845849D01*
X166392700Y-76854576D01*
X166413342Y-76871210D01*
X166810000Y-77267868D01*
X166810001Y-77267868D01*
X167151458Y-76926408D01*
X167151458Y-76926407D01*
X167117896Y-76903981D01*
X167117886Y-76903976D01*
X166999598Y-76854979D01*
X166999590Y-76854977D01*
X166874023Y-76830000D01*
X166809000Y-76830000D01*
X166741961Y-76810315D01*
X166696206Y-76757511D01*
X166685000Y-76706000D01*
X166685000Y-76665980D01*
X166684999Y-76665976D01*
X166660022Y-76540409D01*
X166660020Y-76540401D01*
X166611023Y-76422112D01*
X166588591Y-76388540D01*
X166247132Y-76729999D01*
X166135000Y-76729999D01*
X166135000Y-76710109D01*
X166119776Y-76673355D01*
X166091645Y-76645224D01*
X166054891Y-76630000D01*
X166015109Y-76630000D01*
X165978355Y-76645224D01*
X165950224Y-76673355D01*
X165935000Y-76710109D01*
X165802978Y-76710109D01*
X165481408Y-76388539D01*
X165481407Y-76388540D01*
X165458978Y-76422109D01*
X165409979Y-76540401D01*
X165409977Y-76540409D01*
X165385000Y-76665976D01*
X165385000Y-76706000D01*
X165365315Y-76773039D01*
X165312511Y-76818794D01*
X165261000Y-76830000D01*
X165195976Y-76830000D01*
X165070409Y-76854977D01*
X165070401Y-76854979D01*
X164952109Y-76903978D01*
X164918540Y-76926407D01*
X164918539Y-76926408D01*
X138704315Y-76926408D01*
X138613247Y-76888686D01*
X138302920Y-76794550D01*
X138301566Y-76794281D01*
X138300305Y-76794030D01*
X138238396Y-76761645D01*
X138203823Y-76700929D01*
X138200500Y-76672414D01*
X138200500Y-76201518D01*
X138207873Y-76176408D01*
X165693539Y-76176408D01*
X166035000Y-76517868D01*
X166035001Y-76517868D01*
X166376458Y-76176408D01*
X166376458Y-76176407D01*
X166342896Y-76153981D01*
X166342886Y-76153976D01*
X166239868Y-76111304D01*
X169279500Y-76111304D01*
X169279500Y-76288695D01*
X169314103Y-76462658D01*
X169314106Y-76462667D01*
X169381983Y-76626540D01*
X169381990Y-76626553D01*
X169480535Y-76774034D01*
X169480538Y-76774038D01*
X169605961Y-76899461D01*
X169605965Y-76899464D01*
X169753446Y-76998009D01*
X169753459Y-76998016D01*
X169789123Y-77012788D01*
X169917334Y-77065894D01*
X169917336Y-77065894D01*
X169917341Y-77065896D01*
X170091304Y-77100499D01*
X170091307Y-77100500D01*
X170091309Y-77100500D01*
X170144548Y-77100500D01*
X170211587Y-77120185D01*
X170232229Y-77136819D01*
X172058181Y-78962771D01*
X172091666Y-79024094D01*
X172094500Y-79050452D01*
X172094500Y-81095638D01*
X172074815Y-81162677D01*
X172058181Y-81183319D01*
X172020538Y-81220961D01*
X172020535Y-81220965D01*
X171921990Y-81368446D01*
X171921983Y-81368459D01*
X171854106Y-81532332D01*
X171854103Y-81532341D01*
X171819500Y-81706304D01*
X171819500Y-81883695D01*
X171854103Y-82057658D01*
X171854106Y-82057667D01*
X171921983Y-82221540D01*
X171921990Y-82221553D01*
X172020535Y-82369034D01*
X172020538Y-82369038D01*
X172145961Y-82494461D01*
X172145965Y-82494464D01*
X172293446Y-82593009D01*
X172293459Y-82593016D01*
X172416363Y-82643923D01*
X172457334Y-82660894D01*
X172457336Y-82660894D01*
X172457341Y-82660896D01*
X172631304Y-82695499D01*
X172631307Y-82695500D01*
X172631309Y-82695500D01*
X172808693Y-82695500D01*
X172808694Y-82695499D01*
X172866682Y-82683964D01*
X172982658Y-82660896D01*
X172982661Y-82660894D01*
X172982666Y-82660894D01*
X173146547Y-82593013D01*
X173294035Y-82494464D01*
X173419464Y-82369035D01*
X173518013Y-82221547D01*
X173585894Y-82057666D01*
X173588721Y-82043458D01*
X173620499Y-81883695D01*
X173620500Y-81883693D01*
X173620500Y-81706306D01*
X173620499Y-81706304D01*
X173585896Y-81532341D01*
X173585893Y-81532332D01*
X173518016Y-81368459D01*
X173518009Y-81368446D01*
X173419464Y-81220965D01*
X173419461Y-81220961D01*
X173381819Y-81183319D01*
X173348334Y-81121996D01*
X173345500Y-81095638D01*
X173345500Y-78678399D01*
X173345500Y-78678394D01*
X173344030Y-78671006D01*
X173321463Y-78557548D01*
X173279547Y-78456355D01*
X173274312Y-78443716D01*
X173274307Y-78443708D01*
X173241892Y-78395195D01*
X173241891Y-78395194D01*
X173237401Y-78388474D01*
X173205858Y-78341267D01*
X173118733Y-78254142D01*
X173118732Y-78254141D01*
X171116819Y-76252228D01*
X171083334Y-76190905D01*
X171080500Y-76164547D01*
X171080500Y-76111306D01*
X171080499Y-76111304D01*
X171045896Y-75937341D01*
X171045893Y-75937332D01*
X170978016Y-75773459D01*
X170978009Y-75773446D01*
X170879464Y-75625965D01*
X170879461Y-75625961D01*
X170754038Y-75500538D01*
X170754034Y-75500535D01*
X170606553Y-75401990D01*
X170606540Y-75401983D01*
X170442667Y-75334106D01*
X170442658Y-75334103D01*
X170268694Y-75299500D01*
X170268691Y-75299500D01*
X170091309Y-75299500D01*
X170091306Y-75299500D01*
X169917341Y-75334103D01*
X169917332Y-75334106D01*
X169753459Y-75401983D01*
X169753446Y-75401990D01*
X169605965Y-75500535D01*
X169605961Y-75500538D01*
X169480538Y-75625961D01*
X169480535Y-75625965D01*
X169381990Y-75773446D01*
X169381983Y-75773459D01*
X169314106Y-75937332D01*
X169314103Y-75937341D01*
X169279500Y-76111304D01*
X166239868Y-76111304D01*
X166224598Y-76104979D01*
X166224590Y-76104977D01*
X166099023Y-76080000D01*
X165970976Y-76080000D01*
X165845409Y-76104977D01*
X165845401Y-76104979D01*
X165727109Y-76153978D01*
X165693540Y-76176407D01*
X165693539Y-76176408D01*
X138207873Y-76176408D01*
X138220185Y-76134479D01*
X138236814Y-76113842D01*
X140779352Y-73571304D01*
X164199500Y-73571304D01*
X164199500Y-73748695D01*
X164234103Y-73922658D01*
X164234106Y-73922667D01*
X164301983Y-74086540D01*
X164301990Y-74086553D01*
X164400535Y-74234034D01*
X164400538Y-74234038D01*
X164525961Y-74359461D01*
X164525965Y-74359464D01*
X164673446Y-74458009D01*
X164673459Y-74458016D01*
X164796363Y-74508923D01*
X164837334Y-74525894D01*
X164837336Y-74525894D01*
X164837341Y-74525896D01*
X165011304Y-74560499D01*
X165011307Y-74560500D01*
X165011309Y-74560500D01*
X165188693Y-74560500D01*
X165188694Y-74560499D01*
X165294481Y-74539457D01*
X165362658Y-74525896D01*
X165362661Y-74525894D01*
X165362666Y-74525894D01*
X165526547Y-74458013D01*
X165674035Y-74359464D01*
X165711679Y-74321820D01*
X165773001Y-74288334D01*
X165799361Y-74285500D01*
X167665639Y-74285500D01*
X167732678Y-74305185D01*
X167753321Y-74321820D01*
X167790961Y-74359461D01*
X167790965Y-74359464D01*
X167938446Y-74458009D01*
X167938459Y-74458016D01*
X168061363Y-74508923D01*
X168102334Y-74525894D01*
X168102336Y-74525894D01*
X168102341Y-74525896D01*
X168276304Y-74560499D01*
X168276307Y-74560500D01*
X168276309Y-74560500D01*
X168453693Y-74560500D01*
X168453694Y-74560499D01*
X168559481Y-74539457D01*
X168627658Y-74525896D01*
X168627661Y-74525894D01*
X168627666Y-74525894D01*
X168791547Y-74458013D01*
X168939035Y-74359464D01*
X169064464Y-74234035D01*
X169163013Y-74086547D01*
X169230894Y-73922666D01*
X169265500Y-73748691D01*
X169265500Y-73571309D01*
X169265500Y-73571306D01*
X169265499Y-73571304D01*
X169230896Y-73397341D01*
X169230893Y-73397332D01*
X169163016Y-73233459D01*
X169163009Y-73233446D01*
X169064464Y-73085965D01*
X169064461Y-73085961D01*
X168939038Y-72960538D01*
X168939034Y-72960535D01*
X168791553Y-72861990D01*
X168791540Y-72861983D01*
X168627667Y-72794106D01*
X168627658Y-72794103D01*
X168453694Y-72759500D01*
X168453691Y-72759500D01*
X168276309Y-72759500D01*
X168276306Y-72759500D01*
X168102341Y-72794103D01*
X168102332Y-72794106D01*
X167938459Y-72861983D01*
X167938446Y-72861990D01*
X167790965Y-72960535D01*
X167790961Y-72960538D01*
X167753321Y-72998180D01*
X167691999Y-73031666D01*
X167665639Y-73034500D01*
X165799361Y-73034500D01*
X165732322Y-73014815D01*
X165711679Y-72998180D01*
X165674038Y-72960538D01*
X165674034Y-72960535D01*
X165526553Y-72861990D01*
X165526540Y-72861983D01*
X165362667Y-72794106D01*
X165362658Y-72794103D01*
X165188694Y-72759500D01*
X165188691Y-72759500D01*
X165011309Y-72759500D01*
X165011306Y-72759500D01*
X164837341Y-72794103D01*
X164837332Y-72794106D01*
X164673459Y-72861983D01*
X164673446Y-72861990D01*
X164525965Y-72960535D01*
X164525961Y-72960538D01*
X164400538Y-73085961D01*
X164400535Y-73085965D01*
X164301990Y-73233446D01*
X164301983Y-73233459D01*
X164234106Y-73397332D01*
X164234103Y-73397341D01*
X164199500Y-73571304D01*
X140779352Y-73571304D01*
X144843925Y-69506730D01*
X144905246Y-69473247D01*
X144907237Y-69472831D01*
X145042666Y-69445894D01*
X145206547Y-69378013D01*
X145354035Y-69279464D01*
X145479464Y-69154035D01*
X145578013Y-69006547D01*
X145645894Y-68842666D01*
X145680500Y-68668691D01*
X145680500Y-68491309D01*
X145680500Y-68491306D01*
X145680499Y-68491304D01*
X145645896Y-68317341D01*
X145645893Y-68317332D01*
X145578016Y-68153459D01*
X145578009Y-68153446D01*
X145479464Y-68005965D01*
X145479461Y-68005961D01*
X145354038Y-67880538D01*
X145354034Y-67880535D01*
X145206553Y-67781990D01*
X145206540Y-67781983D01*
X145042667Y-67714106D01*
X145042658Y-67714103D01*
X144868694Y-67679500D01*
X144868691Y-67679500D01*
X144691309Y-67679500D01*
X144691306Y-67679500D01*
X144517341Y-67714103D01*
X144517332Y-67714106D01*
X144353459Y-67781983D01*
X144353446Y-67781990D01*
X144205965Y-67880535D01*
X144205961Y-67880538D01*
X144080538Y-68005961D01*
X144080535Y-68005965D01*
X143981990Y-68153446D01*
X143981983Y-68153459D01*
X143914106Y-68317332D01*
X143914104Y-68317340D01*
X143887202Y-68452586D01*
X143854817Y-68514496D01*
X143853266Y-68516075D01*
X140539447Y-71829894D01*
X140478124Y-71863379D01*
X140408432Y-71858395D01*
X140352499Y-71816523D01*
X140328082Y-71751059D01*
X140342407Y-71683762D01*
X140487215Y-71412847D01*
X140611314Y-71113246D01*
X140705449Y-70802923D01*
X140705451Y-70802913D01*
X140705454Y-70802902D01*
X140737399Y-70642295D01*
X140768714Y-70484868D01*
X140800500Y-70162143D01*
X140800500Y-69837857D01*
X140768714Y-69515132D01*
X140721837Y-69279464D01*
X140705454Y-69197097D01*
X140705451Y-69197086D01*
X140705450Y-69197083D01*
X140705449Y-69197077D01*
X140611314Y-68886754D01*
X140487215Y-68587153D01*
X140435982Y-68491304D01*
X140334353Y-68301169D01*
X140334352Y-68301167D01*
X140334347Y-68301158D01*
X140154183Y-68031524D01*
X139948458Y-67780847D01*
X139948457Y-67780846D01*
X139948453Y-67780841D01*
X139719158Y-67551546D01*
X139468481Y-67345821D01*
X139468480Y-67345820D01*
X139468476Y-67345817D01*
X139198842Y-67165653D01*
X139198837Y-67165650D01*
X139198830Y-67165646D01*
X138912854Y-67012788D01*
X138912849Y-67012786D01*
X138613247Y-66888686D01*
X138302913Y-66794548D01*
X138302902Y-66794545D01*
X137984874Y-66731287D01*
X137984857Y-66731284D01*
X137740812Y-66707248D01*
X137662143Y-66699500D01*
X137337857Y-66699500D01*
X137265099Y-66706666D01*
X137015142Y-66731284D01*
X137015125Y-66731287D01*
X136697097Y-66794545D01*
X136697086Y-66794548D01*
X136386752Y-66888686D01*
X136087150Y-67012786D01*
X136087145Y-67012788D01*
X135801169Y-67165646D01*
X135801151Y-67165657D01*
X135531532Y-67345811D01*
X135531518Y-67345821D01*
X135280841Y-67551546D01*
X135051546Y-67780841D01*
X134845821Y-68031518D01*
X134845811Y-68031532D01*
X134665657Y-68301151D01*
X134665646Y-68301169D01*
X134512788Y-68587145D01*
X134512786Y-68587150D01*
X134388686Y-68886752D01*
X134294548Y-69197086D01*
X134294545Y-69197097D01*
X134231287Y-69515125D01*
X134231284Y-69515142D01*
X134199500Y-69837860D01*
X134199500Y-70162139D01*
X134231284Y-70484857D01*
X134231287Y-70484874D01*
X134294545Y-70802902D01*
X134294548Y-70802913D01*
X134388686Y-71113247D01*
X134512786Y-71412849D01*
X134512788Y-71412854D01*
X134665646Y-71698830D01*
X134665649Y-71698836D01*
X134665653Y-71698842D01*
X134665658Y-71698849D01*
X134667135Y-71701060D01*
X134688011Y-71767738D01*
X134669525Y-71835118D01*
X134651712Y-71857629D01*
X131969885Y-74539457D01*
X131969883Y-74539459D01*
X131955828Y-74560497D01*
X131955826Y-74560500D01*
X131893228Y-74654182D01*
X131893221Y-74654195D01*
X131840421Y-74781667D01*
X131840418Y-74781677D01*
X131813500Y-74917004D01*
X131813500Y-77183481D01*
X131793815Y-77250520D01*
X131741011Y-77296275D01*
X131671853Y-77306219D01*
X131608297Y-77277194D01*
X131601819Y-77271162D01*
X130466732Y-76136075D01*
X130433247Y-76074752D01*
X130432826Y-76072735D01*
X130405894Y-75937334D01*
X130345283Y-75791004D01*
X130338016Y-75773459D01*
X130338009Y-75773446D01*
X130239464Y-75625965D01*
X130239461Y-75625961D01*
X130114038Y-75500538D01*
X130114034Y-75500535D01*
X129966553Y-75401990D01*
X129966540Y-75401983D01*
X129802667Y-75334106D01*
X129802658Y-75334103D01*
X129628694Y-75299500D01*
X129628691Y-75299500D01*
X129451309Y-75299500D01*
X129451306Y-75299500D01*
X129277341Y-75334103D01*
X129277332Y-75334106D01*
X129113459Y-75401983D01*
X129113446Y-75401990D01*
X128965965Y-75500535D01*
X128965961Y-75500538D01*
X128840538Y-75625961D01*
X128840535Y-75625965D01*
X128741990Y-75773446D01*
X128741983Y-75773459D01*
X128674106Y-75937332D01*
X128674103Y-75937341D01*
X128639500Y-76111304D01*
X128639500Y-76288695D01*
X128674103Y-76462658D01*
X128674106Y-76462667D01*
X128741983Y-76626540D01*
X128741990Y-76626553D01*
X128840535Y-76774034D01*
X128840538Y-76774038D01*
X128965961Y-76899461D01*
X128965965Y-76899464D01*
X129113446Y-76998009D01*
X129113459Y-76998016D01*
X129149123Y-77012788D01*
X129277334Y-77065894D01*
X129412588Y-77092797D01*
X129474495Y-77125180D01*
X129476075Y-77126732D01*
X130080183Y-77730840D01*
X130113668Y-77792163D01*
X130108684Y-77861855D01*
X130066812Y-77917788D01*
X130001348Y-77942205D01*
X129945050Y-77933082D01*
X129802667Y-77874106D01*
X129802658Y-77874103D01*
X129628694Y-77839500D01*
X129628691Y-77839500D01*
X129451309Y-77839500D01*
X129451306Y-77839500D01*
X129277341Y-77874103D01*
X129277332Y-77874106D01*
X129113459Y-77941983D01*
X129113446Y-77941990D01*
X128965965Y-78040535D01*
X128965961Y-78040538D01*
X128840538Y-78165961D01*
X128840535Y-78165965D01*
X128741990Y-78313446D01*
X128741983Y-78313459D01*
X128674107Y-78477329D01*
X128674104Y-78477339D01*
X128647201Y-78612588D01*
X128614816Y-78674499D01*
X128613265Y-78676077D01*
X128009159Y-79280183D01*
X127947836Y-79313668D01*
X127878144Y-79308684D01*
X127822211Y-79266812D01*
X127797794Y-79201348D01*
X127806917Y-79145050D01*
X127820300Y-79112741D01*
X127865894Y-79002666D01*
X127866606Y-78999090D01*
X127900499Y-78828695D01*
X127900500Y-78828693D01*
X127900500Y-78651306D01*
X127900499Y-78651304D01*
X127865896Y-78477341D01*
X127865893Y-78477332D01*
X127862762Y-78469774D01*
X127831871Y-78395195D01*
X127798016Y-78313459D01*
X127798009Y-78313446D01*
X127699464Y-78165965D01*
X127699461Y-78165961D01*
X127661819Y-78128319D01*
X127628334Y-78066996D01*
X127625500Y-78040638D01*
X127625500Y-74359361D01*
X127645185Y-74292322D01*
X127661820Y-74271679D01*
X127699461Y-74234038D01*
X127699464Y-74234035D01*
X127798013Y-74086547D01*
X127865894Y-73922666D01*
X127900500Y-73748691D01*
X127900500Y-73571309D01*
X127900500Y-73571306D01*
X127900499Y-73571304D01*
X127865896Y-73397341D01*
X127865893Y-73397332D01*
X127798016Y-73233459D01*
X127798009Y-73233446D01*
X127699464Y-73085965D01*
X127699461Y-73085961D01*
X127574038Y-72960538D01*
X127574034Y-72960535D01*
X127426553Y-72861990D01*
X127426540Y-72861983D01*
X127262667Y-72794106D01*
X127262658Y-72794103D01*
X127088694Y-72759500D01*
X127088691Y-72759500D01*
X126911309Y-72759500D01*
X126911306Y-72759500D01*
X126737341Y-72794103D01*
X126737332Y-72794106D01*
X126573459Y-72861983D01*
X126573446Y-72861990D01*
X126425965Y-72960535D01*
X126425961Y-72960538D01*
X126300538Y-73085961D01*
X126300535Y-73085965D01*
X126201990Y-73233446D01*
X126201983Y-73233459D01*
X126134106Y-73397332D01*
X126134103Y-73397341D01*
X126099500Y-73571304D01*
X126099500Y-73748695D01*
X126134103Y-73922658D01*
X126134106Y-73922667D01*
X126201983Y-74086540D01*
X126201990Y-74086553D01*
X126300535Y-74234034D01*
X126300538Y-74234038D01*
X126338180Y-74271679D01*
X126371666Y-74333001D01*
X126374500Y-74359361D01*
X126374500Y-78040638D01*
X126354815Y-78107677D01*
X126338181Y-78128319D01*
X126300538Y-78165961D01*
X126300535Y-78165965D01*
X126201990Y-78313446D01*
X126201983Y-78313459D01*
X126134106Y-78477332D01*
X126134103Y-78477341D01*
X126099500Y-78651304D01*
X126099500Y-78828695D01*
X126134103Y-79002658D01*
X126134106Y-79002667D01*
X126201983Y-79166540D01*
X126201990Y-79166553D01*
X126300535Y-79314034D01*
X126300538Y-79314038D01*
X126425961Y-79439461D01*
X126425965Y-79439464D01*
X126573446Y-79538009D01*
X126573459Y-79538016D01*
X126693887Y-79587898D01*
X126737334Y-79605894D01*
X126737336Y-79605894D01*
X126737341Y-79605896D01*
X126911304Y-79640499D01*
X126911307Y-79640500D01*
X126911309Y-79640500D01*
X127088693Y-79640500D01*
X127088694Y-79640499D01*
X127156449Y-79627022D01*
X127262658Y-79605896D01*
X127262661Y-79605894D01*
X127262666Y-79605894D01*
X127405050Y-79546916D01*
X127474519Y-79539448D01*
X127536998Y-79570723D01*
X127572650Y-79630812D01*
X127570156Y-79700638D01*
X127540183Y-79749159D01*
X126746162Y-80543181D01*
X126684839Y-80576666D01*
X126658481Y-80579500D01*
X125070100Y-80579500D01*
X125003061Y-80559815D01*
X125001209Y-80558602D01*
X124886549Y-80481988D01*
X124886547Y-80481987D01*
X124722667Y-80414106D01*
X124722658Y-80414103D01*
X124548694Y-80379500D01*
X124548691Y-80379500D01*
X124371309Y-80379500D01*
X124371306Y-80379500D01*
X124197341Y-80414103D01*
X124197332Y-80414106D01*
X124033459Y-80481983D01*
X124033446Y-80481990D01*
X123885965Y-80580535D01*
X123885961Y-80580538D01*
X123760538Y-80705961D01*
X123760535Y-80705965D01*
X123661990Y-80853446D01*
X123661983Y-80853459D01*
X123594106Y-81017332D01*
X123594103Y-81017341D01*
X123559500Y-81191304D01*
X123559500Y-81368695D01*
X123594562Y-81544961D01*
X123596945Y-81569152D01*
X123596945Y-83934899D01*
X123592465Y-83951054D01*
X123592924Y-83966222D01*
X123580738Y-83993346D01*
X123579239Y-83998755D01*
X123577698Y-84001319D01*
X123499432Y-84118453D01*
X123481894Y-84160792D01*
X123477149Y-84168692D01*
X123457950Y-84186371D01*
X123441573Y-84206694D01*
X123432660Y-84209660D01*
X123425752Y-84216022D01*
X123400042Y-84220515D01*
X123375278Y-84228757D01*
X123366177Y-84226434D01*
X123356925Y-84228051D01*
X123332870Y-84217932D01*
X123307579Y-84211477D01*
X123295836Y-84202354D01*
X123292522Y-84200960D01*
X123290786Y-84198431D01*
X123283174Y-84192517D01*
X122366546Y-83275888D01*
X122366545Y-83275887D01*
X122251807Y-83199222D01*
X122124332Y-83146421D01*
X122124322Y-83146418D01*
X121988996Y-83119500D01*
X121988994Y-83119500D01*
X121988993Y-83119500D01*
X102210100Y-83119500D01*
X102143061Y-83099815D01*
X102141209Y-83098602D01*
X102026549Y-83021988D01*
X102026547Y-83021987D01*
X101862667Y-82954106D01*
X101862658Y-82954103D01*
X101688694Y-82919500D01*
X101688691Y-82919500D01*
X101511309Y-82919500D01*
X101511306Y-82919500D01*
X101337341Y-82954103D01*
X101337332Y-82954106D01*
X101173459Y-83021983D01*
X101173446Y-83021990D01*
X101025965Y-83120535D01*
X101025961Y-83120538D01*
X100900538Y-83245961D01*
X100900535Y-83245965D01*
X100801990Y-83393446D01*
X100801983Y-83393459D01*
X100734106Y-83557332D01*
X100734103Y-83557341D01*
X100699500Y-83731304D01*
X100699500Y-83908695D01*
X100734103Y-84082658D01*
X100734106Y-84082667D01*
X100801983Y-84246540D01*
X100801990Y-84246553D01*
X100900535Y-84394034D01*
X100900538Y-84394038D01*
X101025961Y-84519461D01*
X101025965Y-84519464D01*
X101173446Y-84618009D01*
X101173459Y-84618016D01*
X101296363Y-84668923D01*
X101337334Y-84685894D01*
X101337336Y-84685894D01*
X101337341Y-84685896D01*
X101511304Y-84720499D01*
X101511307Y-84720500D01*
X101511309Y-84720500D01*
X101688693Y-84720500D01*
X101688694Y-84720499D01*
X101746682Y-84708964D01*
X101862658Y-84685896D01*
X101862661Y-84685894D01*
X101862666Y-84685894D01*
X102026547Y-84618013D01*
X102141209Y-84541397D01*
X102207886Y-84520520D01*
X102210100Y-84520500D01*
X121578481Y-84520500D01*
X121645520Y-84540185D01*
X121666162Y-84556819D01*
X123533265Y-86423921D01*
X123566750Y-86485244D01*
X123567201Y-86487410D01*
X123594104Y-86622660D01*
X123594107Y-86622670D01*
X123661983Y-86786540D01*
X123661990Y-86786553D01*
X123760535Y-86934034D01*
X123760538Y-86934038D01*
X123885961Y-87059461D01*
X123885965Y-87059464D01*
X124033446Y-87158009D01*
X124033459Y-87158016D01*
X124156363Y-87208923D01*
X124197334Y-87225894D01*
X124197336Y-87225894D01*
X124197341Y-87225896D01*
X124371304Y-87260499D01*
X124371307Y-87260500D01*
X124371309Y-87260500D01*
X124548693Y-87260500D01*
X124548694Y-87260499D01*
X124606682Y-87248964D01*
X124722658Y-87225896D01*
X124722661Y-87225894D01*
X124722666Y-87225894D01*
X124886547Y-87158013D01*
X125034035Y-87059464D01*
X125159464Y-86934035D01*
X125258013Y-86786547D01*
X125325894Y-86622666D01*
X125360500Y-86448691D01*
X125360500Y-86271309D01*
X125360500Y-86271306D01*
X125360499Y-86271304D01*
X125325896Y-86097341D01*
X125325893Y-86097332D01*
X125325268Y-86095824D01*
X125308923Y-86056363D01*
X125258016Y-85933459D01*
X125258009Y-85933446D01*
X125159464Y-85785965D01*
X125159461Y-85785961D01*
X125034038Y-85660538D01*
X125034034Y-85660535D01*
X124886553Y-85561990D01*
X124886544Y-85561985D01*
X124798221Y-85525401D01*
X124743818Y-85481560D01*
X124721753Y-85415266D01*
X124739032Y-85347567D01*
X124776780Y-85307740D01*
X124871480Y-85244464D01*
X124996909Y-85119035D01*
X125095458Y-84971547D01*
X125163339Y-84807666D01*
X125175769Y-84745180D01*
X125187561Y-84685893D01*
X125197945Y-84633691D01*
X125197945Y-84456309D01*
X125197945Y-84456306D01*
X125197944Y-84456304D01*
X125163341Y-84282341D01*
X125163338Y-84282332D01*
X125158551Y-84270775D01*
X125095458Y-84118453D01*
X125095456Y-84118451D01*
X125095456Y-84118449D01*
X125018843Y-84003790D01*
X124997965Y-83937112D01*
X124997945Y-83934899D01*
X124997945Y-82558995D01*
X127509499Y-82558995D01*
X127536418Y-82694322D01*
X127536421Y-82694332D01*
X127589221Y-82821804D01*
X127589228Y-82821817D01*
X127665885Y-82936541D01*
X127665888Y-82936545D01*
X127711662Y-82982319D01*
X127745147Y-83043642D01*
X127740163Y-83113334D01*
X127711662Y-83157681D01*
X127665888Y-83203454D01*
X127665885Y-83203458D01*
X127589228Y-83318182D01*
X127589221Y-83318195D01*
X127536421Y-83445667D01*
X127536418Y-83445677D01*
X127509500Y-83581004D01*
X127509500Y-83581007D01*
X127509500Y-83718993D01*
X127509500Y-83718995D01*
X127509499Y-83718995D01*
X127536418Y-83854322D01*
X127536421Y-83854332D01*
X127589221Y-83981804D01*
X127589228Y-83981817D01*
X127665885Y-84096541D01*
X127665888Y-84096545D01*
X127763454Y-84194111D01*
X127763458Y-84194114D01*
X127878182Y-84270771D01*
X127878195Y-84270778D01*
X128005667Y-84323578D01*
X128005672Y-84323580D01*
X128005676Y-84323580D01*
X128005677Y-84323581D01*
X128141004Y-84350500D01*
X128141007Y-84350500D01*
X128278995Y-84350500D01*
X128370041Y-84332389D01*
X128414328Y-84323580D01*
X128541811Y-84270775D01*
X128656542Y-84194114D01*
X128664285Y-84186371D01*
X128702319Y-84148338D01*
X128763642Y-84114853D01*
X128833334Y-84119837D01*
X128877681Y-84148338D01*
X128923454Y-84194111D01*
X128923458Y-84194114D01*
X129038182Y-84270771D01*
X129038195Y-84270778D01*
X129165667Y-84323578D01*
X129165672Y-84323580D01*
X129165676Y-84323580D01*
X129165677Y-84323581D01*
X129301004Y-84350500D01*
X129301007Y-84350500D01*
X129438995Y-84350500D01*
X129530041Y-84332389D01*
X129574328Y-84323580D01*
X129701811Y-84270775D01*
X129816542Y-84194114D01*
X129914114Y-84096542D01*
X129990775Y-83981811D01*
X130043580Y-83854328D01*
X130064132Y-83751007D01*
X130070500Y-83718995D01*
X130070500Y-83581004D01*
X130043581Y-83445677D01*
X130043580Y-83445676D01*
X130043580Y-83445672D01*
X130021953Y-83393459D01*
X129990778Y-83318195D01*
X129990771Y-83318182D01*
X129914114Y-83203458D01*
X129914111Y-83203454D01*
X129868338Y-83157681D01*
X129834853Y-83096358D01*
X129839837Y-83026666D01*
X129868338Y-82982319D01*
X129914111Y-82936545D01*
X129914114Y-82936542D01*
X129990775Y-82821811D01*
X130043580Y-82694328D01*
X130052389Y-82650041D01*
X130070500Y-82558995D01*
X130070500Y-82421004D01*
X130043581Y-82285677D01*
X130043580Y-82285676D01*
X130043580Y-82285672D01*
X130017016Y-82221540D01*
X129990778Y-82158195D01*
X129990771Y-82158182D01*
X129914114Y-82043458D01*
X129914111Y-82043454D01*
X129816545Y-81945888D01*
X129816541Y-81945885D01*
X129701817Y-81869228D01*
X129701804Y-81869221D01*
X129574332Y-81816421D01*
X129574322Y-81816418D01*
X129438995Y-81789500D01*
X129438993Y-81789500D01*
X129301007Y-81789500D01*
X129301005Y-81789500D01*
X129165677Y-81816418D01*
X129165667Y-81816421D01*
X129038195Y-81869221D01*
X129038182Y-81869228D01*
X128923458Y-81945885D01*
X128923454Y-81945888D01*
X128877681Y-81991662D01*
X128816358Y-82025147D01*
X128746666Y-82020163D01*
X128702319Y-81991662D01*
X128656545Y-81945888D01*
X128656541Y-81945885D01*
X128541817Y-81869228D01*
X128541804Y-81869221D01*
X128414332Y-81816421D01*
X128414322Y-81816418D01*
X128278995Y-81789500D01*
X128278993Y-81789500D01*
X128141007Y-81789500D01*
X128141005Y-81789500D01*
X128005677Y-81816418D01*
X128005667Y-81816421D01*
X127878195Y-81869221D01*
X127878182Y-81869228D01*
X127763458Y-81945885D01*
X127763454Y-81945888D01*
X127665888Y-82043454D01*
X127665885Y-82043458D01*
X127589228Y-82158182D01*
X127589221Y-82158195D01*
X127536421Y-82285667D01*
X127536418Y-82285677D01*
X127509500Y-82421004D01*
X127509500Y-82421007D01*
X127509500Y-82558993D01*
X127509500Y-82558995D01*
X127509499Y-82558995D01*
X124997945Y-82558995D01*
X124997945Y-82104500D01*
X125017630Y-82037461D01*
X125070434Y-81991706D01*
X125121945Y-81980500D01*
X127068996Y-81980500D01*
X127160040Y-81962389D01*
X127204328Y-81953580D01*
X127320404Y-81905500D01*
X127331807Y-81900777D01*
X127331808Y-81900776D01*
X127331811Y-81900775D01*
X127446543Y-81824114D01*
X129603923Y-79666731D01*
X129665244Y-79633248D01*
X129667248Y-79632830D01*
X129802666Y-79605894D01*
X129966547Y-79538013D01*
X130114035Y-79439464D01*
X130239464Y-79314035D01*
X130338013Y-79166547D01*
X130405894Y-79002666D01*
X130406606Y-78999090D01*
X130440499Y-78828695D01*
X130440500Y-78828693D01*
X130440500Y-78651306D01*
X130440499Y-78651304D01*
X130405896Y-78477341D01*
X130405893Y-78477332D01*
X130402762Y-78469774D01*
X130349534Y-78341267D01*
X130346917Y-78334949D01*
X130339448Y-78265480D01*
X130370724Y-78203001D01*
X130430813Y-78167349D01*
X130500638Y-78169843D01*
X130549159Y-78199816D01*
X130977181Y-78627838D01*
X131010666Y-78689161D01*
X131013500Y-78715519D01*
X131013500Y-80669899D01*
X130993815Y-80736938D01*
X130992602Y-80738790D01*
X130915988Y-80853449D01*
X130915987Y-80853452D01*
X130848106Y-81017332D01*
X130848103Y-81017341D01*
X130813500Y-81191304D01*
X130813500Y-81368695D01*
X130848103Y-81542658D01*
X130848106Y-81542667D01*
X130915983Y-81706540D01*
X130915990Y-81706553D01*
X131014535Y-81854034D01*
X131014538Y-81854038D01*
X131139961Y-81979461D01*
X131139965Y-81979464D01*
X131287446Y-82078009D01*
X131287459Y-82078016D01*
X131410363Y-82128923D01*
X131451334Y-82145894D01*
X131451336Y-82145894D01*
X131451341Y-82145896D01*
X131625304Y-82180499D01*
X131625307Y-82180500D01*
X131689500Y-82180500D01*
X131756539Y-82200185D01*
X131802294Y-82252989D01*
X131813500Y-82304500D01*
X131813500Y-86018481D01*
X131793815Y-86085520D01*
X131777181Y-86106162D01*
X127180162Y-90703181D01*
X127118839Y-90736666D01*
X127092481Y-90739500D01*
X122530100Y-90739500D01*
X122463061Y-90719815D01*
X122461209Y-90718602D01*
X122346549Y-90641988D01*
X122346547Y-90641987D01*
X122182667Y-90574106D01*
X122182658Y-90574103D01*
X122008694Y-90539500D01*
X122008691Y-90539500D01*
X121831309Y-90539500D01*
X121831306Y-90539500D01*
X121657341Y-90574103D01*
X121657332Y-90574106D01*
X121493459Y-90641983D01*
X121493446Y-90641990D01*
X121345965Y-90740535D01*
X121345961Y-90740538D01*
X121220538Y-90865961D01*
X121220535Y-90865965D01*
X121121990Y-91013446D01*
X121121983Y-91013459D01*
X121054106Y-91177332D01*
X121054103Y-91177341D01*
X121019500Y-91351304D01*
X121019500Y-91528695D01*
X121054103Y-91702658D01*
X121054106Y-91702667D01*
X121121983Y-91866540D01*
X121121990Y-91866553D01*
X121220535Y-92014034D01*
X121220538Y-92014038D01*
X121345961Y-92139461D01*
X121345965Y-92139464D01*
X121493446Y-92238009D01*
X121493459Y-92238016D01*
X121616363Y-92288923D01*
X121657334Y-92305894D01*
X121657336Y-92305894D01*
X121657341Y-92305896D01*
X121831304Y-92340499D01*
X121831307Y-92340500D01*
X121831309Y-92340500D01*
X122008693Y-92340500D01*
X122008694Y-92340499D01*
X122066682Y-92328964D01*
X122182658Y-92305896D01*
X122182661Y-92305894D01*
X122182666Y-92305894D01*
X122346547Y-92238013D01*
X122461209Y-92161397D01*
X122527886Y-92140520D01*
X122530100Y-92140500D01*
X127502996Y-92140500D01*
X127594040Y-92122389D01*
X127638328Y-92113580D01*
X127749670Y-92067461D01*
X127765807Y-92060777D01*
X127765808Y-92060776D01*
X127765811Y-92060775D01*
X127880543Y-91984114D01*
X131601819Y-88262838D01*
X131663142Y-88229353D01*
X131732834Y-88234337D01*
X131788767Y-88276209D01*
X131813184Y-88341673D01*
X131813500Y-88350519D01*
X131813500Y-102554683D01*
X131793815Y-102621722D01*
X131741011Y-102667477D01*
X131689500Y-102678683D01*
X131625306Y-102678683D01*
X131451341Y-102713286D01*
X131451332Y-102713289D01*
X131287459Y-102781166D01*
X131287446Y-102781173D01*
X131139965Y-102879718D01*
X131139961Y-102879721D01*
X131102321Y-102917363D01*
X131040999Y-102950849D01*
X131014639Y-102953683D01*
X128033089Y-102953683D01*
X127936399Y-102972916D01*
X127936396Y-102972916D01*
X127926939Y-102974798D01*
X127912249Y-102977720D01*
X127826660Y-103013172D01*
X127824235Y-103014062D01*
X127791830Y-103016203D01*
X127759512Y-103019678D01*
X127757150Y-103018495D01*
X127754517Y-103018670D01*
X127726088Y-103002946D01*
X127697033Y-102988402D01*
X127693849Y-102985329D01*
X127661819Y-102953299D01*
X127628334Y-102891976D01*
X127625500Y-102865618D01*
X127625500Y-100829361D01*
X127645185Y-100762322D01*
X127661820Y-100741679D01*
X127699461Y-100704038D01*
X127699464Y-100704035D01*
X127798013Y-100556547D01*
X127865894Y-100392666D01*
X127867815Y-100383012D01*
X127900499Y-100218695D01*
X127900500Y-100218693D01*
X127900500Y-100041306D01*
X127900499Y-100041304D01*
X127865896Y-99867341D01*
X127865893Y-99867332D01*
X127862031Y-99858009D01*
X127835137Y-99793079D01*
X127798016Y-99703459D01*
X127798009Y-99703446D01*
X127699464Y-99555965D01*
X127699461Y-99555961D01*
X127574038Y-99430538D01*
X127574034Y-99430535D01*
X127426553Y-99331990D01*
X127426540Y-99331983D01*
X127262667Y-99264106D01*
X127262658Y-99264103D01*
X127088694Y-99229500D01*
X127088691Y-99229500D01*
X126911309Y-99229500D01*
X126911306Y-99229500D01*
X126737341Y-99264103D01*
X126737332Y-99264106D01*
X126573459Y-99331983D01*
X126573446Y-99331990D01*
X126425965Y-99430535D01*
X126425961Y-99430538D01*
X126300538Y-99555961D01*
X126300535Y-99555965D01*
X126201990Y-99703446D01*
X126201983Y-99703459D01*
X126134106Y-99867332D01*
X126134103Y-99867341D01*
X126099500Y-100041304D01*
X126099500Y-100218695D01*
X126134103Y-100392658D01*
X126134106Y-100392667D01*
X126201983Y-100556540D01*
X126201990Y-100556553D01*
X126300535Y-100704034D01*
X126300538Y-100704038D01*
X126338180Y-100741679D01*
X126371666Y-100803001D01*
X126374500Y-100829361D01*
X126374500Y-102949216D01*
X126354815Y-103016255D01*
X126345672Y-103027600D01*
X126346200Y-103028034D01*
X126342334Y-103032744D01*
X126243789Y-103180225D01*
X126243782Y-103180238D01*
X126175905Y-103344111D01*
X126175902Y-103344120D01*
X126151920Y-103464691D01*
X126119535Y-103526602D01*
X126058820Y-103561176D01*
X126030303Y-103564500D01*
X125963713Y-103564500D01*
X125915042Y-103572208D01*
X125753760Y-103597753D01*
X125551585Y-103663444D01*
X125362179Y-103759951D01*
X125282385Y-103817925D01*
X125216578Y-103841405D01*
X125148525Y-103825579D01*
X125099830Y-103775473D01*
X125085500Y-103717607D01*
X125085500Y-96929361D01*
X125105185Y-96862322D01*
X125121820Y-96841679D01*
X125159461Y-96804038D01*
X125159464Y-96804035D01*
X125258013Y-96656547D01*
X125325894Y-96492666D01*
X125338100Y-96431306D01*
X125360499Y-96318695D01*
X125360500Y-96318693D01*
X125360500Y-96141306D01*
X125360499Y-96141304D01*
X125325896Y-95967341D01*
X125325893Y-95967332D01*
X125317567Y-95947232D01*
X125308923Y-95926363D01*
X125258016Y-95803459D01*
X125258009Y-95803446D01*
X125159464Y-95655965D01*
X125159461Y-95655961D01*
X125034038Y-95530538D01*
X125034034Y-95530535D01*
X124886553Y-95431990D01*
X124886540Y-95431983D01*
X124722667Y-95364106D01*
X124722658Y-95364103D01*
X124548694Y-95329500D01*
X124548691Y-95329500D01*
X124371309Y-95329500D01*
X124371306Y-95329500D01*
X124197341Y-95364103D01*
X124197332Y-95364106D01*
X124033459Y-95431983D01*
X124033446Y-95431990D01*
X123885965Y-95530535D01*
X123885961Y-95530538D01*
X123760538Y-95655961D01*
X123760535Y-95655965D01*
X123661990Y-95803446D01*
X123661983Y-95803459D01*
X123594106Y-95967332D01*
X123594103Y-95967341D01*
X123559500Y-96141304D01*
X123559500Y-96318695D01*
X123594103Y-96492658D01*
X123594106Y-96492667D01*
X123661983Y-96656540D01*
X123661990Y-96656553D01*
X123760535Y-96804034D01*
X123760538Y-96804038D01*
X123798180Y-96841679D01*
X123812885Y-96868609D01*
X123829477Y-96894426D01*
X123830368Y-96900624D01*
X123831666Y-96903001D01*
X123834500Y-96929361D01*
X123834500Y-96960547D01*
X123814815Y-97027586D01*
X123762011Y-97073341D01*
X123692853Y-97083285D01*
X123629297Y-97054260D01*
X123622819Y-97048228D01*
X122856819Y-96282228D01*
X122823334Y-96220905D01*
X122820500Y-96194547D01*
X122820500Y-96141306D01*
X122820499Y-96141304D01*
X122785896Y-95967341D01*
X122785893Y-95967332D01*
X122777567Y-95947232D01*
X122768923Y-95926363D01*
X122718016Y-95803459D01*
X122718009Y-95803446D01*
X122619464Y-95655965D01*
X122619461Y-95655961D01*
X122494038Y-95530538D01*
X122494034Y-95530535D01*
X122346553Y-95431990D01*
X122346540Y-95431983D01*
X122182667Y-95364106D01*
X122182658Y-95364103D01*
X122008694Y-95329500D01*
X122008691Y-95329500D01*
X121831309Y-95329500D01*
X121831306Y-95329500D01*
X121657341Y-95364103D01*
X121657332Y-95364106D01*
X121493459Y-95431983D01*
X121493446Y-95431990D01*
X121345965Y-95530535D01*
X121345961Y-95530538D01*
X121220538Y-95655961D01*
X121220535Y-95655965D01*
X121121990Y-95803446D01*
X121121983Y-95803459D01*
X121054106Y-95967332D01*
X121054103Y-95967341D01*
X121019500Y-96141304D01*
X121019500Y-96318695D01*
X121054103Y-96492658D01*
X121054106Y-96492667D01*
X121121983Y-96656540D01*
X121121990Y-96656553D01*
X121220535Y-96804034D01*
X121220538Y-96804038D01*
X121345961Y-96929461D01*
X121345965Y-96929464D01*
X121493446Y-97028009D01*
X121493459Y-97028016D01*
X121602651Y-97073244D01*
X121657334Y-97095894D01*
X121657336Y-97095894D01*
X121657341Y-97095896D01*
X121831304Y-97130499D01*
X121831307Y-97130500D01*
X121831309Y-97130500D01*
X121884548Y-97130500D01*
X121951587Y-97150185D01*
X121972229Y-97166819D01*
X123073181Y-98267771D01*
X123087884Y-98294698D01*
X123104477Y-98320517D01*
X123105368Y-98326717D01*
X123106666Y-98329094D01*
X123109500Y-98355452D01*
X123109500Y-98360638D01*
X123089815Y-98427677D01*
X123073181Y-98448319D01*
X123035538Y-98485961D01*
X123035535Y-98485965D01*
X122936990Y-98633446D01*
X122936983Y-98633459D01*
X122869106Y-98797332D01*
X122869105Y-98797337D01*
X122860080Y-98842705D01*
X122827693Y-98904615D01*
X122766977Y-98939188D01*
X122697207Y-98935447D01*
X122650782Y-98906192D01*
X120316819Y-96572229D01*
X120283334Y-96510906D01*
X120280500Y-96484548D01*
X120280500Y-96431306D01*
X120280499Y-96431304D01*
X120245896Y-96257341D01*
X120245893Y-96257332D01*
X120178016Y-96093459D01*
X120178009Y-96093446D01*
X120079464Y-95945965D01*
X120079461Y-95945961D01*
X119954038Y-95820538D01*
X119954034Y-95820535D01*
X119806553Y-95721990D01*
X119806540Y-95721983D01*
X119642667Y-95654106D01*
X119642658Y-95654103D01*
X119468694Y-95619500D01*
X119468691Y-95619500D01*
X119291309Y-95619500D01*
X119291306Y-95619500D01*
X119117341Y-95654103D01*
X119117332Y-95654106D01*
X118953459Y-95721983D01*
X118953446Y-95721990D01*
X118805965Y-95820535D01*
X118805961Y-95820538D01*
X118680538Y-95945961D01*
X118680535Y-95945965D01*
X118581990Y-96093446D01*
X118581983Y-96093459D01*
X118514106Y-96257332D01*
X118514103Y-96257341D01*
X118479500Y-96431304D01*
X118479500Y-96608695D01*
X118514103Y-96782658D01*
X118514106Y-96782667D01*
X118581983Y-96946540D01*
X118581990Y-96946553D01*
X118680535Y-97094034D01*
X118680538Y-97094038D01*
X118805961Y-97219461D01*
X118805965Y-97219464D01*
X118953446Y-97318009D01*
X118953459Y-97318016D01*
X119061273Y-97362673D01*
X119117334Y-97385894D01*
X119117336Y-97385894D01*
X119117341Y-97385896D01*
X119291304Y-97420499D01*
X119291307Y-97420500D01*
X119291309Y-97420500D01*
X119344548Y-97420500D01*
X119411587Y-97440185D01*
X119432229Y-97456819D01*
X121690991Y-99715581D01*
X121724476Y-99776904D01*
X121727310Y-99803262D01*
X121727310Y-103572627D01*
X121707625Y-103639666D01*
X121654821Y-103685421D01*
X121585663Y-103695365D01*
X121547015Y-103683112D01*
X121508414Y-103663444D01*
X121508413Y-103663443D01*
X121508412Y-103663443D01*
X121306243Y-103597754D01*
X121306241Y-103597753D01*
X121306240Y-103597753D01*
X121144957Y-103572208D01*
X121096287Y-103564500D01*
X120883713Y-103564500D01*
X120843255Y-103570908D01*
X120673753Y-103597754D01*
X120658160Y-103602821D01*
X120588319Y-103604816D01*
X120532162Y-103572571D01*
X119529166Y-102569575D01*
X119495681Y-102508252D01*
X119492847Y-102481894D01*
X119492847Y-99246708D01*
X119512532Y-99179669D01*
X119529167Y-99159026D01*
X119566808Y-99121385D01*
X119566811Y-99121382D01*
X119665360Y-98973894D01*
X119733241Y-98810013D01*
X119735405Y-98799138D01*
X119767846Y-98636042D01*
X119767847Y-98636040D01*
X119767847Y-98458653D01*
X119767846Y-98458651D01*
X119733243Y-98284688D01*
X119733240Y-98284679D01*
X119729607Y-98275909D01*
X119699437Y-98203070D01*
X119665363Y-98120806D01*
X119665356Y-98120793D01*
X119566811Y-97973312D01*
X119566808Y-97973308D01*
X119441385Y-97847885D01*
X119441381Y-97847882D01*
X119293900Y-97749337D01*
X119293887Y-97749330D01*
X119130014Y-97681453D01*
X119130005Y-97681450D01*
X118956041Y-97646847D01*
X118956038Y-97646847D01*
X118778656Y-97646847D01*
X118778653Y-97646847D01*
X118604688Y-97681450D01*
X118604679Y-97681453D01*
X118440806Y-97749330D01*
X118440793Y-97749337D01*
X118293312Y-97847882D01*
X118293308Y-97847885D01*
X118167885Y-97973308D01*
X118167882Y-97973312D01*
X118069337Y-98120793D01*
X118069330Y-98120806D01*
X118001453Y-98284679D01*
X118001450Y-98284688D01*
X117966847Y-98458651D01*
X117966847Y-98636042D01*
X118001450Y-98810005D01*
X118001453Y-98810014D01*
X118069330Y-98973887D01*
X118069337Y-98973900D01*
X118167882Y-99121381D01*
X118167885Y-99121385D01*
X118205527Y-99159026D01*
X118239013Y-99220348D01*
X118241847Y-99246708D01*
X118241847Y-102853953D01*
X118265884Y-102974798D01*
X118265885Y-102974802D01*
X118276126Y-102999527D01*
X118276135Y-102999547D01*
X118277088Y-103001847D01*
X118313035Y-103088633D01*
X118321609Y-103101464D01*
X118326990Y-103109517D01*
X118326991Y-103109519D01*
X118381487Y-103191078D01*
X118381488Y-103191079D01*
X118381489Y-103191080D01*
X118468614Y-103278205D01*
X118468615Y-103278205D01*
X118475682Y-103285272D01*
X118475681Y-103285272D01*
X118475685Y-103285275D01*
X118543229Y-103352819D01*
X118576714Y-103414142D01*
X118571730Y-103483834D01*
X118529858Y-103539767D01*
X118464394Y-103564184D01*
X118455548Y-103564500D01*
X118343713Y-103564500D01*
X118315006Y-103569046D01*
X118133757Y-103597753D01*
X118118158Y-103602822D01*
X118048317Y-103604816D01*
X117992161Y-103572571D01*
X117501819Y-103082229D01*
X117468334Y-103020906D01*
X117465500Y-102994548D01*
X117465500Y-102299361D01*
X117485185Y-102232322D01*
X117501820Y-102211679D01*
X117539461Y-102174038D01*
X117539464Y-102174035D01*
X117638013Y-102026547D01*
X117705894Y-101862666D01*
X117740500Y-101688691D01*
X117740500Y-101511309D01*
X117740500Y-101511306D01*
X117740499Y-101511304D01*
X117705896Y-101337341D01*
X117705893Y-101337332D01*
X117638016Y-101173459D01*
X117638009Y-101173446D01*
X117539464Y-101025965D01*
X117539461Y-101025961D01*
X117414038Y-100900538D01*
X117414034Y-100900535D01*
X117266553Y-100801990D01*
X117266540Y-100801983D01*
X117102667Y-100734106D01*
X117102658Y-100734103D01*
X116928694Y-100699500D01*
X116928691Y-100699500D01*
X116751309Y-100699500D01*
X116751306Y-100699500D01*
X116577341Y-100734103D01*
X116577332Y-100734106D01*
X116413459Y-100801983D01*
X116413446Y-100801990D01*
X116265965Y-100900535D01*
X116265961Y-100900538D01*
X116140538Y-101025961D01*
X116140535Y-101025965D01*
X116041990Y-101173446D01*
X116041983Y-101173459D01*
X115974106Y-101337332D01*
X115974103Y-101337341D01*
X115939500Y-101511304D01*
X115939500Y-101688695D01*
X115974103Y-101862658D01*
X115974106Y-101862667D01*
X116041983Y-102026540D01*
X116041990Y-102026553D01*
X116140535Y-102174034D01*
X116140538Y-102174038D01*
X116178180Y-102211679D01*
X116211666Y-102273001D01*
X116214500Y-102299361D01*
X116214500Y-103243393D01*
X116214500Y-103366607D01*
X116220492Y-103396731D01*
X116238537Y-103487452D01*
X116251015Y-103517577D01*
X116280089Y-103587768D01*
X116285689Y-103601288D01*
X116290377Y-103608304D01*
X116312082Y-103640786D01*
X116312083Y-103640789D01*
X116312084Y-103640789D01*
X116354141Y-103703733D01*
X116445586Y-103795178D01*
X116445608Y-103795198D01*
X117107571Y-104457161D01*
X117141056Y-104518484D01*
X117137822Y-104583158D01*
X117132753Y-104598757D01*
X117099500Y-104808713D01*
X117099500Y-105021286D01*
X117132753Y-105231239D01*
X117198444Y-105433414D01*
X117294951Y-105622820D01*
X117419890Y-105794786D01*
X117570213Y-105945109D01*
X117742182Y-106070050D01*
X117750946Y-106074516D01*
X117801742Y-106122491D01*
X117818536Y-106190312D01*
X117795998Y-106256447D01*
X117750946Y-106295484D01*
X117742182Y-106299949D01*
X117570213Y-106424890D01*
X117419890Y-106575213D01*
X117294951Y-106747179D01*
X117198444Y-106936585D01*
X117132753Y-107138760D01*
X117099500Y-107348713D01*
X117099500Y-107561286D01*
X117132753Y-107771239D01*
X117198444Y-107973414D01*
X117294951Y-108162820D01*
X117419890Y-108334786D01*
X117570213Y-108485109D01*
X117742179Y-108610048D01*
X117742181Y-108610049D01*
X117742184Y-108610051D01*
X117931588Y-108706557D01*
X118133757Y-108772246D01*
X118343713Y-108805500D01*
X118343714Y-108805500D01*
X118556286Y-108805500D01*
X118556287Y-108805500D01*
X118766243Y-108772246D01*
X118968412Y-108706557D01*
X119157816Y-108610051D01*
X119326709Y-108487344D01*
X119392515Y-108463864D01*
X119460569Y-108479690D01*
X119487275Y-108499981D01*
X121775113Y-110787819D01*
X121808598Y-110849142D01*
X121803614Y-110918834D01*
X121761742Y-110974767D01*
X121696278Y-110999184D01*
X121687432Y-110999500D01*
X96624500Y-110999500D01*
X96557461Y-110979815D01*
X96511706Y-110927011D01*
X96500500Y-110875500D01*
X96500500Y-91351304D01*
X100699500Y-91351304D01*
X100699500Y-91528695D01*
X100734103Y-91702658D01*
X100734106Y-91702667D01*
X100801983Y-91866540D01*
X100801990Y-91866553D01*
X100900535Y-92014034D01*
X100900538Y-92014038D01*
X101025961Y-92139461D01*
X101025965Y-92139464D01*
X101173446Y-92238009D01*
X101173459Y-92238016D01*
X101296363Y-92288923D01*
X101337334Y-92305894D01*
X101337336Y-92305894D01*
X101337341Y-92305896D01*
X101511304Y-92340499D01*
X101511307Y-92340500D01*
X101511309Y-92340500D01*
X101688693Y-92340500D01*
X101688694Y-92340499D01*
X101746682Y-92328964D01*
X101862658Y-92305896D01*
X101862661Y-92305894D01*
X101862666Y-92305894D01*
X102026547Y-92238013D01*
X102174035Y-92139464D01*
X102299464Y-92014035D01*
X102398013Y-91866547D01*
X102465894Y-91702666D01*
X102492798Y-91567408D01*
X102525181Y-91505501D01*
X102526675Y-91503980D01*
X104393837Y-89636819D01*
X104455160Y-89603334D01*
X104481518Y-89600500D01*
X106069900Y-89600500D01*
X106136939Y-89620185D01*
X106138788Y-89621396D01*
X106253453Y-89698013D01*
X106417334Y-89765894D01*
X106417336Y-89765894D01*
X106417341Y-89765896D01*
X106591304Y-89800499D01*
X106591307Y-89800500D01*
X106591309Y-89800500D01*
X106768693Y-89800500D01*
X106768694Y-89800499D01*
X106826682Y-89788964D01*
X106942658Y-89765896D01*
X106942661Y-89765894D01*
X106942666Y-89765894D01*
X107106547Y-89698013D01*
X107254035Y-89599464D01*
X107379464Y-89474035D01*
X107478013Y-89326547D01*
X107545894Y-89162666D01*
X107580500Y-88988691D01*
X107580500Y-88811309D01*
X107580500Y-88811306D01*
X107580499Y-88811304D01*
X107545896Y-88637341D01*
X107545893Y-88637332D01*
X107478016Y-88473459D01*
X107478009Y-88473446D01*
X107379464Y-88325965D01*
X107379461Y-88325961D01*
X107254038Y-88200538D01*
X107254034Y-88200535D01*
X107106553Y-88101990D01*
X107106540Y-88101983D01*
X106942667Y-88034106D01*
X106942658Y-88034103D01*
X106768694Y-87999500D01*
X106768691Y-87999500D01*
X106591309Y-87999500D01*
X106591306Y-87999500D01*
X106417341Y-88034103D01*
X106417332Y-88034106D01*
X106253452Y-88101987D01*
X106253450Y-88101988D01*
X106138791Y-88178602D01*
X106072114Y-88199480D01*
X106069900Y-88199500D01*
X104071003Y-88199500D01*
X103973760Y-88218843D01*
X103973758Y-88218843D01*
X103962591Y-88221065D01*
X103935671Y-88226420D01*
X103882866Y-88248292D01*
X103808189Y-88279225D01*
X103808188Y-88279226D01*
X103787199Y-88293249D01*
X103787192Y-88293253D01*
X103693457Y-88355886D01*
X103693453Y-88355889D01*
X101536076Y-90513265D01*
X101474753Y-90546750D01*
X101472587Y-90547201D01*
X101337339Y-90574104D01*
X101337329Y-90574107D01*
X101173459Y-90641983D01*
X101173446Y-90641990D01*
X101025965Y-90740535D01*
X101025961Y-90740538D01*
X100900538Y-90865961D01*
X100900535Y-90865965D01*
X100801990Y-91013446D01*
X100801983Y-91013459D01*
X100734106Y-91177332D01*
X100734103Y-91177341D01*
X100699500Y-91351304D01*
X96500500Y-91351304D01*
X96500500Y-78649178D01*
X99446000Y-78649178D01*
X99446000Y-78830821D01*
X99474415Y-79010225D01*
X99530548Y-79182984D01*
X99613012Y-79344830D01*
X99613014Y-79344834D01*
X99625048Y-79361395D01*
X99625049Y-79361396D01*
X100200000Y-78786445D01*
X100200000Y-78792661D01*
X100227259Y-78894394D01*
X100279920Y-78985606D01*
X100354394Y-79060080D01*
X100445606Y-79112741D01*
X100547339Y-79140000D01*
X100553554Y-79140000D01*
X99978602Y-79714949D01*
X99978603Y-79714950D01*
X99995165Y-79726985D01*
X99995179Y-79726993D01*
X100157012Y-79809450D01*
X100329774Y-79865584D01*
X100509179Y-79894000D01*
X100690821Y-79894000D01*
X100870225Y-79865584D01*
X101042984Y-79809451D01*
X101204831Y-79726986D01*
X101221396Y-79714949D01*
X100646447Y-79140000D01*
X100652661Y-79140000D01*
X100754394Y-79112741D01*
X100845606Y-79060080D01*
X100920080Y-78985606D01*
X100972741Y-78894394D01*
X101000000Y-78792661D01*
X101000000Y-78786446D01*
X101409181Y-79195627D01*
X101442666Y-79256950D01*
X101445500Y-79283307D01*
X101445500Y-79441869D01*
X101445501Y-79441876D01*
X101451908Y-79501483D01*
X101502202Y-79636328D01*
X101502206Y-79636335D01*
X101588452Y-79751544D01*
X101588455Y-79751547D01*
X101703664Y-79837793D01*
X101703671Y-79837797D01*
X101838517Y-79888091D01*
X101838516Y-79888091D01*
X101845444Y-79888835D01*
X101898127Y-79894500D01*
X103301872Y-79894499D01*
X103361483Y-79888091D01*
X103496331Y-79837796D01*
X103611546Y-79751546D01*
X103697796Y-79636331D01*
X103748091Y-79501483D01*
X103754500Y-79441873D01*
X103754499Y-78038128D01*
X103748091Y-77978517D01*
X103738139Y-77951835D01*
X103697797Y-77843671D01*
X103697793Y-77843664D01*
X103611547Y-77728455D01*
X103611544Y-77728452D01*
X103496335Y-77642206D01*
X103496328Y-77642202D01*
X103361482Y-77591908D01*
X103361483Y-77591908D01*
X103301883Y-77585501D01*
X103301881Y-77585500D01*
X103301873Y-77585500D01*
X103301864Y-77585500D01*
X101898129Y-77585500D01*
X101898123Y-77585501D01*
X101838516Y-77591908D01*
X101703671Y-77642202D01*
X101703664Y-77642206D01*
X101588455Y-77728452D01*
X101588452Y-77728455D01*
X101502206Y-77843664D01*
X101502202Y-77843671D01*
X101451908Y-77978517D01*
X101446210Y-78031521D01*
X101445501Y-78038123D01*
X101445500Y-78038135D01*
X101445500Y-78196691D01*
X101425815Y-78263730D01*
X101409181Y-78284372D01*
X101000000Y-78693553D01*
X101000000Y-78687339D01*
X100972741Y-78585606D01*
X100920080Y-78494394D01*
X100845606Y-78419920D01*
X100754394Y-78367259D01*
X100652661Y-78340000D01*
X100646447Y-78340000D01*
X101221396Y-77765049D01*
X101221395Y-77765048D01*
X101204834Y-77753014D01*
X101204830Y-77753012D01*
X101042984Y-77670548D01*
X100870225Y-77614415D01*
X100690821Y-77586000D01*
X100509179Y-77586000D01*
X100329774Y-77614415D01*
X100157015Y-77670548D01*
X99995170Y-77753012D01*
X99995161Y-77753018D01*
X99978603Y-77765048D01*
X99978602Y-77765049D01*
X100553554Y-78340000D01*
X100547339Y-78340000D01*
X100445606Y-78367259D01*
X100354394Y-78419920D01*
X100279920Y-78494394D01*
X100227259Y-78585606D01*
X100200000Y-78687339D01*
X100200000Y-78693553D01*
X99625049Y-78118602D01*
X99625048Y-78118603D01*
X99613018Y-78135161D01*
X99613012Y-78135170D01*
X99530548Y-78297015D01*
X99474415Y-78469774D01*
X99446000Y-78649178D01*
X96500500Y-78649178D01*
X96500500Y-63411304D01*
X100699500Y-63411304D01*
X100699500Y-63588695D01*
X100734103Y-63762658D01*
X100734106Y-63762667D01*
X100801983Y-63926540D01*
X100801990Y-63926553D01*
X100900535Y-64074034D01*
X100900538Y-64074038D01*
X101025961Y-64199461D01*
X101025965Y-64199464D01*
X101173446Y-64298009D01*
X101173459Y-64298016D01*
X101280003Y-64342147D01*
X101337334Y-64365894D01*
X101337336Y-64365894D01*
X101337341Y-64365896D01*
X101511304Y-64400499D01*
X101511307Y-64400500D01*
X101511309Y-64400500D01*
X101688693Y-64400500D01*
X101688694Y-64400499D01*
X101771481Y-64384032D01*
X101862658Y-64365896D01*
X101862661Y-64365894D01*
X101862666Y-64365894D01*
X102026547Y-64298013D01*
X102141209Y-64221397D01*
X102207886Y-64200520D01*
X102210100Y-64200500D01*
X103416636Y-64200500D01*
X103483675Y-64220185D01*
X103529430Y-64272989D01*
X103539374Y-64342147D01*
X103510349Y-64405703D01*
X103504317Y-64412181D01*
X103440538Y-64475959D01*
X103440535Y-64475963D01*
X103341990Y-64623444D01*
X103341983Y-64623457D01*
X103274106Y-64787330D01*
X103274103Y-64787339D01*
X103239500Y-64961302D01*
X103239500Y-65138693D01*
X103274103Y-65312656D01*
X103274106Y-65312665D01*
X103341983Y-65476538D01*
X103341990Y-65476551D01*
X103440535Y-65624032D01*
X103440538Y-65624036D01*
X103468274Y-65651772D01*
X103501759Y-65713095D01*
X103496775Y-65782787D01*
X103468274Y-65827134D01*
X101652229Y-67643181D01*
X101590906Y-67676666D01*
X101564548Y-67679500D01*
X101511306Y-67679500D01*
X101337341Y-67714103D01*
X101337332Y-67714106D01*
X101173459Y-67781983D01*
X101173446Y-67781990D01*
X101025965Y-67880535D01*
X101025961Y-67880538D01*
X100900538Y-68005961D01*
X100900535Y-68005965D01*
X100801990Y-68153446D01*
X100801983Y-68153459D01*
X100734106Y-68317332D01*
X100734103Y-68317341D01*
X100699500Y-68491304D01*
X100699500Y-68668695D01*
X100734103Y-68842658D01*
X100734106Y-68842667D01*
X100801983Y-69006540D01*
X100801990Y-69006553D01*
X100900535Y-69154034D01*
X100900538Y-69154038D01*
X101025961Y-69279461D01*
X101025965Y-69279464D01*
X101173446Y-69378009D01*
X101173459Y-69378016D01*
X101296363Y-69428923D01*
X101337334Y-69445894D01*
X101337336Y-69445894D01*
X101337341Y-69445896D01*
X101511304Y-69480499D01*
X101511307Y-69480500D01*
X101511309Y-69480500D01*
X101688693Y-69480500D01*
X101688694Y-69480499D01*
X101746682Y-69468964D01*
X101862658Y-69445896D01*
X101862661Y-69445894D01*
X101862666Y-69445894D01*
X102026547Y-69378013D01*
X102174035Y-69279464D01*
X102299464Y-69154035D01*
X102398013Y-69006547D01*
X102465894Y-68842666D01*
X102500500Y-68668691D01*
X102500500Y-68615452D01*
X102520185Y-68548413D01*
X102536819Y-68527771D01*
X104625854Y-66438737D01*
X104625857Y-66438734D01*
X104694311Y-66336286D01*
X104741463Y-66222452D01*
X104765500Y-66101607D01*
X104765500Y-66074498D01*
X104785185Y-66007459D01*
X104837989Y-65961704D01*
X104889500Y-65950498D01*
X104937693Y-65950498D01*
X104937694Y-65950497D01*
X104995682Y-65938962D01*
X105111658Y-65915894D01*
X105111661Y-65915892D01*
X105111666Y-65915892D01*
X105275547Y-65848011D01*
X105423035Y-65749462D01*
X105460679Y-65711818D01*
X105522001Y-65678332D01*
X105548361Y-65675498D01*
X106007583Y-65675498D01*
X106068005Y-65663479D01*
X106128428Y-65651461D01*
X106161768Y-65637650D01*
X106242262Y-65604310D01*
X106293485Y-65570082D01*
X106344709Y-65535856D01*
X106431834Y-65448731D01*
X106431835Y-65448729D01*
X106438901Y-65441663D01*
X106438904Y-65441659D01*
X107763352Y-64117210D01*
X107824673Y-64083727D01*
X107894365Y-64088711D01*
X107938712Y-64117212D01*
X107984808Y-64163308D01*
X107984812Y-64163311D01*
X108132293Y-64261856D01*
X108132306Y-64261863D01*
X108219589Y-64298016D01*
X108296181Y-64329741D01*
X108296183Y-64329741D01*
X108296188Y-64329743D01*
X108470151Y-64364346D01*
X108470154Y-64364347D01*
X108470156Y-64364347D01*
X108523395Y-64364347D01*
X108590434Y-64384032D01*
X108611076Y-64400666D01*
X111098181Y-66887771D01*
X111131666Y-66949094D01*
X111134500Y-66975452D01*
X111134500Y-67880638D01*
X111114815Y-67947677D01*
X111098181Y-67968319D01*
X111060538Y-68005961D01*
X111060535Y-68005965D01*
X110961990Y-68153446D01*
X110961983Y-68153459D01*
X110894106Y-68317332D01*
X110894103Y-68317341D01*
X110859500Y-68491304D01*
X110859500Y-68668695D01*
X110894103Y-68842658D01*
X110894106Y-68842667D01*
X110961983Y-69006540D01*
X110961990Y-69006553D01*
X111060535Y-69154034D01*
X111060538Y-69154038D01*
X111185961Y-69279461D01*
X111185965Y-69279464D01*
X111333446Y-69378009D01*
X111333459Y-69378016D01*
X111456363Y-69428923D01*
X111497334Y-69445894D01*
X111497336Y-69445894D01*
X111497341Y-69445896D01*
X111671304Y-69480499D01*
X111671307Y-69480500D01*
X111671309Y-69480500D01*
X111848693Y-69480500D01*
X111848694Y-69480499D01*
X111906682Y-69468964D01*
X112022658Y-69445896D01*
X112022661Y-69445894D01*
X112022666Y-69445894D01*
X112186547Y-69378013D01*
X112334035Y-69279464D01*
X112459464Y-69154035D01*
X112558013Y-69006547D01*
X112625894Y-68842666D01*
X112660500Y-68668691D01*
X112660500Y-68491309D01*
X112660500Y-68491306D01*
X112660499Y-68491304D01*
X112625896Y-68317341D01*
X112625893Y-68317332D01*
X112558016Y-68153459D01*
X112558009Y-68153446D01*
X112459464Y-68005965D01*
X112459461Y-68005961D01*
X112421819Y-67968319D01*
X112388334Y-67906996D01*
X112385500Y-67880638D01*
X112385500Y-66603394D01*
X112383692Y-66594304D01*
X112383692Y-66594303D01*
X112361464Y-66482554D01*
X112361463Y-66482553D01*
X112361463Y-66482549D01*
X112361460Y-66482543D01*
X112361459Y-66482538D01*
X112314314Y-66368719D01*
X112314312Y-66368714D01*
X112270179Y-66302666D01*
X112245858Y-66266267D01*
X112158733Y-66179142D01*
X112158729Y-66179139D01*
X109554618Y-63575028D01*
X109521133Y-63513705D01*
X109526117Y-63444013D01*
X109567989Y-63388080D01*
X109633453Y-63363663D01*
X109642299Y-63363347D01*
X118307395Y-63363347D01*
X118374434Y-63383032D01*
X118395076Y-63399666D01*
X118443181Y-63447771D01*
X118476666Y-63509094D01*
X118479500Y-63535452D01*
X118479500Y-63588695D01*
X118514103Y-63762658D01*
X118514106Y-63762667D01*
X118581983Y-63926540D01*
X118581990Y-63926553D01*
X118680535Y-64074034D01*
X118680538Y-64074038D01*
X118805961Y-64199461D01*
X118805965Y-64199464D01*
X118953446Y-64298009D01*
X118953459Y-64298016D01*
X119060003Y-64342147D01*
X119117334Y-64365894D01*
X119117336Y-64365894D01*
X119117341Y-64365896D01*
X119291304Y-64400499D01*
X119291307Y-64400500D01*
X119291309Y-64400500D01*
X119468693Y-64400500D01*
X119468694Y-64400499D01*
X119551481Y-64384032D01*
X119642658Y-64365896D01*
X119642661Y-64365894D01*
X119642666Y-64365894D01*
X119806547Y-64298013D01*
X119954035Y-64199464D01*
X120079464Y-64074035D01*
X120178013Y-63926547D01*
X120245894Y-63762666D01*
X120280500Y-63588691D01*
X120280500Y-63411309D01*
X120280500Y-63411306D01*
X120280499Y-63411304D01*
X120245896Y-63237341D01*
X120245893Y-63237332D01*
X120178016Y-63073459D01*
X120178009Y-63073446D01*
X120079464Y-62925965D01*
X120079461Y-62925961D01*
X119954038Y-62800538D01*
X119954034Y-62800535D01*
X119806553Y-62701990D01*
X119806540Y-62701983D01*
X119642667Y-62634106D01*
X119642658Y-62634103D01*
X119468694Y-62599500D01*
X119468691Y-62599500D01*
X119415452Y-62599500D01*
X119348413Y-62579815D01*
X119327771Y-62563181D01*
X119110997Y-62346407D01*
X119103707Y-62339117D01*
X119103705Y-62339114D01*
X119016580Y-62251989D01*
X118965356Y-62217762D01*
X118914133Y-62183535D01*
X118914130Y-62183533D01*
X118914127Y-62183532D01*
X118840450Y-62153015D01*
X118840448Y-62153014D01*
X118833639Y-62150194D01*
X118800299Y-62136384D01*
X118739876Y-62124365D01*
X118735153Y-62123425D01*
X118735151Y-62123425D01*
X118679457Y-62112347D01*
X118679454Y-62112347D01*
X118679453Y-62112347D01*
X109454236Y-62112347D01*
X109432997Y-62106110D01*
X109410916Y-62104534D01*
X109400125Y-62096458D01*
X109387197Y-62092662D01*
X109372703Y-62075935D01*
X109354977Y-62062669D01*
X109350265Y-62050040D01*
X109341442Y-62039858D01*
X109338291Y-62017948D01*
X109330553Y-61997207D01*
X109333415Y-61984038D01*
X109331498Y-61970700D01*
X109340694Y-61950562D01*
X109345397Y-61928933D01*
X109358673Y-61911193D01*
X109360523Y-61907144D01*
X109366545Y-61900676D01*
X109370902Y-61896318D01*
X109432219Y-61862828D01*
X109434225Y-61862409D01*
X109569653Y-61835472D01*
X109733534Y-61767591D01*
X109881022Y-61669042D01*
X110006451Y-61543613D01*
X110105000Y-61396125D01*
X110172881Y-61232244D01*
X110207487Y-61058269D01*
X110207487Y-60880887D01*
X110207487Y-60880884D01*
X110207486Y-60880882D01*
X110172883Y-60706919D01*
X110172880Y-60706910D01*
X110105003Y-60543037D01*
X110104996Y-60543024D01*
X110006451Y-60395543D01*
X110006448Y-60395539D01*
X109881025Y-60270116D01*
X109881021Y-60270113D01*
X109733540Y-60171568D01*
X109733527Y-60171561D01*
X109569654Y-60103684D01*
X109569645Y-60103681D01*
X109395681Y-60069078D01*
X109395678Y-60069078D01*
X109218296Y-60069078D01*
X109218293Y-60069078D01*
X109044328Y-60103681D01*
X109044319Y-60103684D01*
X108880446Y-60171561D01*
X108880433Y-60171568D01*
X108732952Y-60270113D01*
X108732948Y-60270116D01*
X108607525Y-60395539D01*
X108607522Y-60395543D01*
X108508977Y-60543024D01*
X108508970Y-60543037D01*
X108441093Y-60706910D01*
X108441091Y-60706918D01*
X108414189Y-60842164D01*
X108381804Y-60904074D01*
X108380253Y-60905653D01*
X106522727Y-62763181D01*
X106461404Y-62796666D01*
X106435046Y-62799500D01*
X102210100Y-62799500D01*
X102143061Y-62779815D01*
X102141209Y-62778602D01*
X102026549Y-62701988D01*
X102026547Y-62701987D01*
X101862667Y-62634106D01*
X101862658Y-62634103D01*
X101688694Y-62599500D01*
X101688691Y-62599500D01*
X101511309Y-62599500D01*
X101511306Y-62599500D01*
X101337341Y-62634103D01*
X101337332Y-62634106D01*
X101173459Y-62701983D01*
X101173446Y-62701990D01*
X101025965Y-62800535D01*
X101025961Y-62800538D01*
X100900538Y-62925961D01*
X100900535Y-62925965D01*
X100801990Y-63073446D01*
X100801983Y-63073459D01*
X100734106Y-63237332D01*
X100734103Y-63237341D01*
X100699500Y-63411304D01*
X96500500Y-63411304D01*
X96500500Y-58368550D01*
X103399299Y-58368550D01*
X103399299Y-58521452D01*
X103428979Y-58632220D01*
X103438873Y-58669144D01*
X103438874Y-58669145D01*
X103515320Y-58801555D01*
X103515322Y-58801558D01*
X103515323Y-58801559D01*
X103623441Y-58909677D01*
X103623442Y-58909678D01*
X103623444Y-58909679D01*
X103660457Y-58931048D01*
X103755857Y-58986127D01*
X103903548Y-59025701D01*
X103903551Y-59025701D01*
X104056447Y-59025701D01*
X104056450Y-59025701D01*
X104204141Y-58986127D01*
X104336557Y-58909677D01*
X104444675Y-58801559D01*
X104521125Y-58669143D01*
X104560699Y-58521452D01*
X104560699Y-58368550D01*
X109179301Y-58368550D01*
X109179301Y-58521452D01*
X109208981Y-58632220D01*
X109218875Y-58669144D01*
X109218876Y-58669145D01*
X109295322Y-58801555D01*
X109295324Y-58801558D01*
X109295325Y-58801559D01*
X109403443Y-58909677D01*
X109403444Y-58909678D01*
X109403446Y-58909679D01*
X109440459Y-58931048D01*
X109535859Y-58986127D01*
X109683550Y-59025701D01*
X109683553Y-59025701D01*
X109836449Y-59025701D01*
X109836452Y-59025701D01*
X109984143Y-58986127D01*
X110116559Y-58909677D01*
X110224677Y-58801559D01*
X110301127Y-58669143D01*
X110340701Y-58521452D01*
X110340701Y-58368550D01*
X110330721Y-58331304D01*
X118479500Y-58331304D01*
X118479500Y-58508695D01*
X118514103Y-58682658D01*
X118514106Y-58682667D01*
X118581983Y-58846540D01*
X118581990Y-58846553D01*
X118680535Y-58994034D01*
X118680538Y-58994038D01*
X118805961Y-59119461D01*
X118805965Y-59119464D01*
X118953446Y-59218009D01*
X118953459Y-59218016D01*
X119000622Y-59237551D01*
X119117334Y-59285894D01*
X119117336Y-59285894D01*
X119117341Y-59285896D01*
X119291304Y-59320499D01*
X119291307Y-59320500D01*
X119291309Y-59320500D01*
X119344548Y-59320500D01*
X119411587Y-59340185D01*
X119432229Y-59356819D01*
X123523181Y-63447771D01*
X123556666Y-63509094D01*
X123559500Y-63535452D01*
X123559500Y-63588695D01*
X123594103Y-63762658D01*
X123594106Y-63762667D01*
X123661983Y-63926540D01*
X123661990Y-63926553D01*
X123760535Y-64074034D01*
X123760538Y-64074038D01*
X123885961Y-64199461D01*
X123885965Y-64199464D01*
X124033446Y-64298009D01*
X124033459Y-64298016D01*
X124140003Y-64342147D01*
X124197334Y-64365894D01*
X124197336Y-64365894D01*
X124197341Y-64365896D01*
X124371304Y-64400499D01*
X124371307Y-64400500D01*
X124371309Y-64400500D01*
X124548693Y-64400500D01*
X124548694Y-64400499D01*
X124631481Y-64384032D01*
X124722658Y-64365896D01*
X124722661Y-64365894D01*
X124722666Y-64365894D01*
X124886547Y-64298013D01*
X124891101Y-64294969D01*
X124957775Y-64274085D01*
X125025157Y-64292563D01*
X125028852Y-64294937D01*
X125033456Y-64298013D01*
X125033459Y-64298014D01*
X125033462Y-64298016D01*
X125140006Y-64342147D01*
X125197337Y-64365894D01*
X125197339Y-64365894D01*
X125197344Y-64365896D01*
X125371307Y-64400499D01*
X125371310Y-64400500D01*
X125371312Y-64400500D01*
X125548696Y-64400500D01*
X125548697Y-64400499D01*
X125631484Y-64384032D01*
X125722661Y-64365896D01*
X125722664Y-64365894D01*
X125722669Y-64365894D01*
X125886550Y-64298013D01*
X126034038Y-64199464D01*
X126159467Y-64074035D01*
X126258016Y-63926547D01*
X126325897Y-63762666D01*
X126360503Y-63588691D01*
X126360503Y-63411309D01*
X126360503Y-63411306D01*
X126360502Y-63411304D01*
X156579500Y-63411304D01*
X156579500Y-63588695D01*
X156614103Y-63762658D01*
X156614106Y-63762667D01*
X156681983Y-63926540D01*
X156681990Y-63926553D01*
X156780535Y-64074034D01*
X156780538Y-64074038D01*
X156818180Y-64111679D01*
X156851666Y-64173001D01*
X156854500Y-64199361D01*
X156854500Y-65340638D01*
X156834815Y-65407677D01*
X156818181Y-65428319D01*
X156780538Y-65465961D01*
X156780535Y-65465965D01*
X156681990Y-65613446D01*
X156681983Y-65613459D01*
X156614106Y-65777332D01*
X156614103Y-65777341D01*
X156579500Y-65951304D01*
X156579500Y-66128695D01*
X156614103Y-66302658D01*
X156614106Y-66302666D01*
X156681983Y-66466540D01*
X156681990Y-66466553D01*
X156780535Y-66614034D01*
X156780538Y-66614038D01*
X156905961Y-66739461D01*
X156905965Y-66739464D01*
X157053446Y-66838009D01*
X157053459Y-66838016D01*
X157173581Y-66887771D01*
X157217334Y-66905894D01*
X157217336Y-66905894D01*
X157217341Y-66905896D01*
X157391304Y-66940499D01*
X157391307Y-66940500D01*
X157391309Y-66940500D01*
X157568693Y-66940500D01*
X157568694Y-66940499D01*
X157626682Y-66928964D01*
X157742658Y-66905896D01*
X157742661Y-66905894D01*
X157742666Y-66905894D01*
X157906547Y-66838013D01*
X158054035Y-66739464D01*
X158179464Y-66614035D01*
X158278013Y-66466547D01*
X158345894Y-66302666D01*
X158353135Y-66266267D01*
X158380499Y-66128695D01*
X158380500Y-66128693D01*
X158380500Y-65951306D01*
X158380499Y-65951304D01*
X158345896Y-65777341D01*
X158345893Y-65777332D01*
X158278016Y-65613459D01*
X158278009Y-65613446D01*
X158179464Y-65465965D01*
X158179461Y-65465961D01*
X158141819Y-65428319D01*
X158108334Y-65366996D01*
X158105500Y-65340638D01*
X158105500Y-64199361D01*
X158125185Y-64132322D01*
X158141820Y-64111679D01*
X158179461Y-64074038D01*
X158179464Y-64074035D01*
X158278013Y-63926547D01*
X158345894Y-63762666D01*
X158380500Y-63588691D01*
X158380500Y-63411309D01*
X158380500Y-63411306D01*
X158380499Y-63411304D01*
X158345896Y-63237341D01*
X158345893Y-63237332D01*
X158278016Y-63073459D01*
X158278009Y-63073446D01*
X158179464Y-62925965D01*
X158179461Y-62925961D01*
X158054038Y-62800538D01*
X158054034Y-62800535D01*
X157906553Y-62701990D01*
X157906540Y-62701983D01*
X157742667Y-62634106D01*
X157742658Y-62634103D01*
X157568694Y-62599500D01*
X157568691Y-62599500D01*
X157391309Y-62599500D01*
X157391306Y-62599500D01*
X157217341Y-62634103D01*
X157217332Y-62634106D01*
X157053459Y-62701983D01*
X157053446Y-62701990D01*
X156905965Y-62800535D01*
X156905961Y-62800538D01*
X156780538Y-62925961D01*
X156780535Y-62925965D01*
X156681990Y-63073446D01*
X156681983Y-63073459D01*
X156614106Y-63237332D01*
X156614103Y-63237341D01*
X156579500Y-63411304D01*
X126360502Y-63411304D01*
X126325899Y-63237341D01*
X126325896Y-63237332D01*
X126258019Y-63073459D01*
X126258012Y-63073446D01*
X126159467Y-62925965D01*
X126159464Y-62925961D01*
X126121822Y-62888319D01*
X126088337Y-62826996D01*
X126085503Y-62800638D01*
X126085503Y-60088804D01*
X127857000Y-60088804D01*
X127857000Y-60266195D01*
X127891603Y-60440158D01*
X127891606Y-60440167D01*
X127959483Y-60604040D01*
X127959490Y-60604053D01*
X128058035Y-60751534D01*
X128058038Y-60751538D01*
X128183461Y-60876961D01*
X128183465Y-60876964D01*
X128330946Y-60975509D01*
X128330959Y-60975516D01*
X128429281Y-61016241D01*
X128494834Y-61043394D01*
X128630088Y-61070297D01*
X128691995Y-61102680D01*
X128693575Y-61104232D01*
X129093451Y-61504109D01*
X129093454Y-61504112D01*
X129152572Y-61543613D01*
X129208192Y-61580777D01*
X129335667Y-61633578D01*
X129335672Y-61633580D01*
X129335676Y-61633580D01*
X129335677Y-61633581D01*
X129471004Y-61660500D01*
X129471007Y-61660500D01*
X131614900Y-61660500D01*
X131681939Y-61680185D01*
X131683788Y-61681396D01*
X131798453Y-61758013D01*
X131962334Y-61825894D01*
X131962336Y-61825894D01*
X131962341Y-61825896D01*
X132136304Y-61860499D01*
X132136307Y-61860500D01*
X132136309Y-61860500D01*
X132313693Y-61860500D01*
X132313694Y-61860499D01*
X132371682Y-61848964D01*
X132487658Y-61825896D01*
X132487661Y-61825894D01*
X132487666Y-61825894D01*
X132651547Y-61758013D01*
X132766209Y-61681397D01*
X132832886Y-61660520D01*
X132835100Y-61660500D01*
X134688996Y-61660500D01*
X134780040Y-61642389D01*
X134824328Y-61633580D01*
X134888069Y-61607177D01*
X134951807Y-61580777D01*
X134951808Y-61580776D01*
X134951811Y-61580775D01*
X135066543Y-61504114D01*
X137223923Y-59346731D01*
X137285244Y-59313248D01*
X137287248Y-59312830D01*
X137422666Y-59285894D01*
X137586547Y-59218013D01*
X137734035Y-59119464D01*
X137859464Y-58994035D01*
X137958013Y-58846547D01*
X138025894Y-58682666D01*
X138060500Y-58508691D01*
X138060500Y-58331309D01*
X138060500Y-58331306D01*
X138060499Y-58331304D01*
X138025896Y-58157341D01*
X138025893Y-58157332D01*
X137958016Y-57993459D01*
X137958009Y-57993446D01*
X137859464Y-57845965D01*
X137859461Y-57845961D01*
X137734038Y-57720538D01*
X137734034Y-57720535D01*
X137586553Y-57621990D01*
X137586540Y-57621983D01*
X137422667Y-57554106D01*
X137422658Y-57554103D01*
X137248694Y-57519500D01*
X137248691Y-57519500D01*
X137071309Y-57519500D01*
X137071306Y-57519500D01*
X136897341Y-57554103D01*
X136897332Y-57554106D01*
X136733459Y-57621983D01*
X136733446Y-57621990D01*
X136585965Y-57720535D01*
X136585961Y-57720538D01*
X136460538Y-57845961D01*
X136460535Y-57845965D01*
X136361990Y-57993446D01*
X136361983Y-57993459D01*
X136294107Y-58157329D01*
X136294104Y-58157339D01*
X136267201Y-58292588D01*
X136234816Y-58354499D01*
X136233265Y-58356077D01*
X134366162Y-60223181D01*
X134304839Y-60256666D01*
X134278481Y-60259500D01*
X132835100Y-60259500D01*
X132768061Y-60239815D01*
X132766209Y-60238602D01*
X132651549Y-60161988D01*
X132651547Y-60161987D01*
X132487667Y-60094106D01*
X132487658Y-60094103D01*
X132313694Y-60059500D01*
X132313691Y-60059500D01*
X132136309Y-60059500D01*
X132136306Y-60059500D01*
X131962341Y-60094103D01*
X131962332Y-60094106D01*
X131798452Y-60161987D01*
X131798450Y-60161988D01*
X131683791Y-60238602D01*
X131617114Y-60259480D01*
X131614900Y-60259500D01*
X129881519Y-60259500D01*
X129852078Y-60250855D01*
X129822092Y-60244332D01*
X129817076Y-60240577D01*
X129814480Y-60239815D01*
X129793838Y-60223181D01*
X129684232Y-60113575D01*
X129650747Y-60052252D01*
X129650326Y-60050235D01*
X129623394Y-59914834D01*
X129596241Y-59849281D01*
X129555516Y-59750959D01*
X129555509Y-59750946D01*
X129456964Y-59603465D01*
X129456961Y-59603461D01*
X129331538Y-59478038D01*
X129331534Y-59478035D01*
X129184053Y-59379490D01*
X129184040Y-59379483D01*
X129020167Y-59311606D01*
X129020158Y-59311603D01*
X128846194Y-59277000D01*
X128846191Y-59277000D01*
X128668809Y-59277000D01*
X128668806Y-59277000D01*
X128494841Y-59311603D01*
X128494832Y-59311606D01*
X128330959Y-59379483D01*
X128330946Y-59379490D01*
X128183465Y-59478035D01*
X128183461Y-59478038D01*
X128058038Y-59603461D01*
X128058035Y-59603465D01*
X127959490Y-59750946D01*
X127959483Y-59750959D01*
X127891606Y-59914832D01*
X127891603Y-59914841D01*
X127857000Y-60088804D01*
X126085503Y-60088804D01*
X126085503Y-59358396D01*
X126085502Y-59358392D01*
X126083183Y-59346733D01*
X126061466Y-59237551D01*
X126014314Y-59123717D01*
X126014313Y-59123716D01*
X126014310Y-59123710D01*
X125945861Y-59021270D01*
X125945858Y-59021266D01*
X125855640Y-58931048D01*
X125855609Y-58931019D01*
X122856819Y-55932229D01*
X122823334Y-55870906D01*
X122820500Y-55844548D01*
X122820500Y-55791306D01*
X122820499Y-55791304D01*
X122785896Y-55617341D01*
X122785893Y-55617332D01*
X122718016Y-55453459D01*
X122718009Y-55453446D01*
X122619464Y-55305965D01*
X122619461Y-55305961D01*
X122494038Y-55180538D01*
X122494034Y-55180535D01*
X122346553Y-55081990D01*
X122346540Y-55081983D01*
X122182667Y-55014106D01*
X122182658Y-55014103D01*
X122008694Y-54979500D01*
X122008691Y-54979500D01*
X121831309Y-54979500D01*
X121831306Y-54979500D01*
X121657341Y-55014103D01*
X121657332Y-55014106D01*
X121493459Y-55081983D01*
X121493446Y-55081990D01*
X121345965Y-55180535D01*
X121345961Y-55180538D01*
X121220538Y-55305961D01*
X121220535Y-55305965D01*
X121121990Y-55453446D01*
X121121983Y-55453459D01*
X121054106Y-55617332D01*
X121054103Y-55617341D01*
X121019500Y-55791304D01*
X121019500Y-55968695D01*
X121054103Y-56142658D01*
X121054106Y-56142667D01*
X121121983Y-56306540D01*
X121121990Y-56306553D01*
X121220535Y-56454034D01*
X121220538Y-56454038D01*
X121345961Y-56579461D01*
X121345965Y-56579464D01*
X121493446Y-56678009D01*
X121493459Y-56678016D01*
X121616363Y-56728923D01*
X121657334Y-56745894D01*
X121657336Y-56745894D01*
X121657341Y-56745896D01*
X121831304Y-56780499D01*
X121831307Y-56780500D01*
X121831309Y-56780500D01*
X121884548Y-56780500D01*
X121951587Y-56800185D01*
X121972229Y-56816819D01*
X124798184Y-59642774D01*
X124831669Y-59704097D01*
X124834503Y-59730455D01*
X124834503Y-62505257D01*
X124829571Y-62522053D01*
X124829664Y-62539561D01*
X124819930Y-62554883D01*
X124814818Y-62572296D01*
X124801588Y-62583759D01*
X124792201Y-62598538D01*
X124775730Y-62606165D01*
X124762014Y-62618051D01*
X124744539Y-62620611D01*
X124728800Y-62627900D01*
X124699597Y-62627194D01*
X124693507Y-62628087D01*
X124689891Y-62627586D01*
X124548691Y-62599500D01*
X124486911Y-62599500D01*
X124478456Y-62598330D01*
X124454068Y-62587348D01*
X124428413Y-62579815D01*
X124417108Y-62570705D01*
X124414747Y-62569642D01*
X124413600Y-62567878D01*
X124407771Y-62563181D01*
X120316819Y-58472229D01*
X120283334Y-58410906D01*
X120280500Y-58384548D01*
X120280500Y-58331306D01*
X120280499Y-58331304D01*
X120245896Y-58157341D01*
X120245893Y-58157332D01*
X120178016Y-57993459D01*
X120178009Y-57993446D01*
X120079464Y-57845965D01*
X120079461Y-57845961D01*
X119954038Y-57720538D01*
X119954034Y-57720535D01*
X119806553Y-57621990D01*
X119806540Y-57621983D01*
X119642667Y-57554106D01*
X119642658Y-57554103D01*
X119468694Y-57519500D01*
X119468691Y-57519500D01*
X119291309Y-57519500D01*
X119291306Y-57519500D01*
X119117341Y-57554103D01*
X119117332Y-57554106D01*
X118953459Y-57621983D01*
X118953446Y-57621990D01*
X118805965Y-57720535D01*
X118805961Y-57720538D01*
X118680538Y-57845961D01*
X118680535Y-57845965D01*
X118581990Y-57993446D01*
X118581983Y-57993459D01*
X118514106Y-58157332D01*
X118514103Y-58157341D01*
X118479500Y-58331304D01*
X110330721Y-58331304D01*
X110301127Y-58220859D01*
X110224677Y-58088443D01*
X110116559Y-57980325D01*
X110116558Y-57980324D01*
X110116555Y-57980322D01*
X109984145Y-57903876D01*
X109984144Y-57903875D01*
X109947220Y-57893981D01*
X109836452Y-57864301D01*
X109683550Y-57864301D01*
X109594935Y-57888045D01*
X109535857Y-57903875D01*
X109535856Y-57903876D01*
X109403446Y-57980322D01*
X109403441Y-57980326D01*
X109295326Y-58088441D01*
X109295322Y-58088446D01*
X109218876Y-58220856D01*
X109218875Y-58220857D01*
X109199655Y-58292588D01*
X109179301Y-58368550D01*
X104560699Y-58368550D01*
X104521125Y-58220859D01*
X104444675Y-58088443D01*
X104336557Y-57980325D01*
X104336556Y-57980324D01*
X104336553Y-57980322D01*
X104204143Y-57903876D01*
X104204142Y-57903875D01*
X104167218Y-57893981D01*
X104056450Y-57864301D01*
X103903548Y-57864301D01*
X103814933Y-57888045D01*
X103755855Y-57903875D01*
X103755854Y-57903876D01*
X103623444Y-57980322D01*
X103623439Y-57980326D01*
X103515324Y-58088441D01*
X103515320Y-58088446D01*
X103438874Y-58220856D01*
X103438873Y-58220857D01*
X103419653Y-58292588D01*
X103399299Y-58368550D01*
X96500500Y-58368550D01*
X96500500Y-52948460D01*
X127048080Y-52948460D01*
X127048080Y-53076539D01*
X127048303Y-53078093D01*
X127084389Y-53200987D01*
X127084390Y-53200990D01*
X127085038Y-53202410D01*
X127085039Y-53202411D01*
X127154286Y-53310161D01*
X127155311Y-53311344D01*
X127252110Y-53395221D01*
X127253427Y-53396067D01*
X127369935Y-53449275D01*
X127371437Y-53449716D01*
X127498217Y-53467944D01*
X127498220Y-53467944D01*
X127499780Y-53467944D01*
X127499783Y-53467944D01*
X127626563Y-53449716D01*
X127628065Y-53449275D01*
X127744573Y-53396067D01*
X127745890Y-53395221D01*
X127842689Y-53311344D01*
X127843714Y-53310161D01*
X127912961Y-53202411D01*
X127913611Y-53200987D01*
X127949697Y-53078092D01*
X127949920Y-53076542D01*
X127949920Y-52948460D01*
X130050580Y-52948460D01*
X130050580Y-53076539D01*
X130050803Y-53078093D01*
X130086889Y-53200987D01*
X130086890Y-53200990D01*
X130087538Y-53202410D01*
X130087539Y-53202411D01*
X130156786Y-53310161D01*
X130157811Y-53311344D01*
X130254610Y-53395221D01*
X130255927Y-53396067D01*
X130372435Y-53449275D01*
X130373937Y-53449716D01*
X130500717Y-53467944D01*
X130500720Y-53467944D01*
X130502280Y-53467944D01*
X130502283Y-53467944D01*
X130629063Y-53449716D01*
X130630565Y-53449275D01*
X130747073Y-53396067D01*
X130748390Y-53395221D01*
X130845189Y-53311344D01*
X130846214Y-53310161D01*
X130915461Y-53202411D01*
X130916111Y-53200987D01*
X130952197Y-53078092D01*
X130952420Y-53076542D01*
X130952420Y-52948458D01*
X130952197Y-52946908D01*
X130916111Y-52824013D01*
X130915461Y-52822589D01*
X130846214Y-52714839D01*
X130845189Y-52713656D01*
X130748390Y-52629779D01*
X130748389Y-52629778D01*
X130747078Y-52628936D01*
X130747075Y-52628934D01*
X130747073Y-52628933D01*
X130747069Y-52628931D01*
X130747065Y-52628929D01*
X130630570Y-52575727D01*
X130630560Y-52575723D01*
X130629429Y-52575391D01*
X130629063Y-52575284D01*
X130629061Y-52575283D01*
X130629059Y-52575283D01*
X130502283Y-52557056D01*
X130500717Y-52557056D01*
X130500716Y-52557056D01*
X130373941Y-52575283D01*
X130373939Y-52575283D01*
X130372439Y-52575723D01*
X130372429Y-52575727D01*
X130255934Y-52628929D01*
X130255921Y-52628936D01*
X130254610Y-52629778D01*
X130157815Y-52713652D01*
X130157813Y-52713654D01*
X130157811Y-52713656D01*
X130156786Y-52714839D01*
X130156782Y-52714844D01*
X130087538Y-52822589D01*
X130086890Y-52824009D01*
X130086889Y-52824012D01*
X130050803Y-52946906D01*
X130050580Y-52948460D01*
X127949920Y-52948460D01*
X127949920Y-52948458D01*
X127949697Y-52946908D01*
X127913611Y-52824013D01*
X127912961Y-52822589D01*
X127843714Y-52714839D01*
X127842689Y-52713656D01*
X127745890Y-52629779D01*
X127745889Y-52629778D01*
X127744578Y-52628936D01*
X127744575Y-52628934D01*
X127744573Y-52628933D01*
X127744569Y-52628931D01*
X127744565Y-52628929D01*
X127628070Y-52575727D01*
X127628060Y-52575723D01*
X127626929Y-52575391D01*
X127626563Y-52575284D01*
X127626561Y-52575283D01*
X127626559Y-52575283D01*
X127499783Y-52557056D01*
X127498217Y-52557056D01*
X127498216Y-52557056D01*
X127371441Y-52575283D01*
X127371439Y-52575283D01*
X127369939Y-52575723D01*
X127369929Y-52575727D01*
X127253434Y-52628929D01*
X127253421Y-52628936D01*
X127252110Y-52629778D01*
X127155315Y-52713652D01*
X127155313Y-52713654D01*
X127155311Y-52713656D01*
X127154286Y-52714839D01*
X127154282Y-52714844D01*
X127085038Y-52822589D01*
X127084390Y-52824009D01*
X127084389Y-52824012D01*
X127048303Y-52946906D01*
X127048080Y-52948460D01*
X96500500Y-52948460D01*
X96500500Y-51124500D01*
X96520185Y-51057461D01*
X96572989Y-51011706D01*
X96624500Y-51000500D01*
X178375500Y-51000500D01*
X178442539Y-51020185D01*
G37*
%TD.AperFunction*%
%TA.AperFunction,Conductor*%
G36*
X133419703Y-102227649D02*
G01*
X133426181Y-102233681D01*
X133491961Y-102299461D01*
X133491965Y-102299464D01*
X133639446Y-102398009D01*
X133639459Y-102398016D01*
X133762363Y-102448923D01*
X133803334Y-102465894D01*
X133803336Y-102465894D01*
X133803341Y-102465896D01*
X133977304Y-102500499D01*
X133977307Y-102500500D01*
X134041500Y-102500500D01*
X134108539Y-102520185D01*
X134154294Y-102572989D01*
X134165500Y-102624500D01*
X134165500Y-103479354D01*
X134145815Y-103546393D01*
X134093011Y-103592148D01*
X134023853Y-103602092D01*
X134010935Y-103599088D01*
X134010866Y-103599380D01*
X134006121Y-103598241D01*
X133940000Y-103587768D01*
X133940000Y-104481988D01*
X133882993Y-104449075D01*
X133755826Y-104415000D01*
X133624174Y-104415000D01*
X133497007Y-104449075D01*
X133440000Y-104481988D01*
X133440000Y-103587768D01*
X133439999Y-103587768D01*
X133373878Y-103598241D01*
X133369134Y-103599380D01*
X133368687Y-103597518D01*
X133306970Y-103599278D01*
X133247139Y-103563194D01*
X133216315Y-103500491D01*
X133214500Y-103479354D01*
X133214500Y-102321362D01*
X133234185Y-102254323D01*
X133286989Y-102208568D01*
X133356147Y-102198624D01*
X133419703Y-102227649D01*
G37*
%TD.AperFunction*%
%TD*%
M02*
