M48
; DRILL file {KiCad 9.0.0} date 2025-04-09T17:19:20+0200
; FORMAT={-:-/ absolute / inch / decimal}
; #@! TF.CreationDate,2025-04-09T17:19:20+02:00
; #@! TF.GenerationSoftware,Kicad,Pcbnew,9.0.0
; #@! TF.FileFunction,Plated,1,2,PTH
FMAT,2
INCH
; #@! TA.AperFunction,Plated,PTH,ComponentDrill
T1C0.0079
; #@! TA.AperFunction,Plated,PTH,ViaDrill
T2C0.0157
; #@! TA.AperFunction,Plated,PTH,ComponentDrill
T3C0.0315
; #@! TA.AperFunction,Plated,PTH,ComponentDrill
T4C0.0394
; #@! TA.AperFunction,Plated,PTH,ComponentDrill
T5C0.1260
%
G90
G05
T1
X5.0476Y-3.2476
X5.0476Y-3.2933
X5.0705Y-3.2705
X5.0933Y-3.2476
X5.0933Y-3.2933
X6.5063Y-3.0504
X6.5063Y-3.0917
X6.5368Y-3.0209
X6.5368Y-3.0504
X6.5368Y-3.0917
X6.5368Y-3.1213
X6.5673Y-3.0504
X6.5673Y-3.0917
T2
X4.0Y-2.5
X4.0Y-2.7
X4.0Y-3.3
X4.0Y-3.6
X4.1Y-2.561
X4.1279Y-2.561
X4.2Y-3.5
X4.274Y-2.4986
X4.3034Y-2.4004
X4.4Y-2.7
X4.6Y-4.0
X4.6798Y-3.8798
X4.7Y-2.3
X4.7Y-2.5
X4.7Y-3.8
X4.8Y-2.2
X4.8Y-3.6
X4.8Y-3.7886
X4.8715Y-3.9
X4.8936Y-3.3285
X4.9Y-2.5
X4.9Y-3.2
X4.9Y-3.4
X4.9Y-3.7886
X4.9394Y-2.5
X5.0Y-2.9
X5.0Y-3.1
X5.0Y-3.9421
X5.0016Y-4.079
X5.0105Y-4.2628
X5.0692Y-2.3692
X5.1Y-3.0
X5.1Y-3.1
X5.1105Y-4.2628
X5.1856Y-3.2
X5.1856Y-4.0779
X5.2Y-4.2913
X5.2Y-4.3307
X5.2057Y-2.4
X5.2782Y-3.5
X5.2782Y-4.0
X5.3412Y-3.6999
X5.353Y-3.8969
X5.4Y-2.3
X5.4Y-3.3
X5.4171Y-4.3171
X5.4884Y-3.9065
X5.6Y-3.8685
X5.6989Y-3.9
X5.7Y-2.7
X5.7874Y-3.8732
X5.8Y-3.7
X5.8101Y-4.2633
X5.8285Y-4.0798
X5.8761Y-3.8188
X5.881Y-4.1725
X5.8811Y-3.9
X5.8811Y-3.9417
X6.0585Y-3.805
X6.2Y-2.5
X6.2Y-2.6
X6.2Y-3.2
X6.3Y-3.6
X6.3143Y-3.1857
X6.4982Y-3.2018
X6.5Y-2.9
X6.6Y-3.4
X6.6285Y-2.9
X6.6309Y-3.1203
X6.7Y-3.0
X6.7Y-3.1
X6.7Y-4.3
X6.8Y-3.2203
T3
X3.9606Y-3.1
X4.0394Y-3.1
T4
X4.6634Y-4.1305
X4.6634Y-4.2305
X4.7634Y-4.1305
X4.7634Y-4.2305
X4.8634Y-4.1305
X4.8634Y-4.2305
X4.9634Y-4.1305
X4.9634Y-4.2305
X5.0634Y-4.1305
X5.0634Y-4.2305
X5.1634Y-4.1305
X5.1634Y-4.2305
X5.2634Y-4.1305
X5.2634Y-4.2305
X5.3634Y-4.1305
X5.3634Y-4.2305
X5.4634Y-4.1305
X5.4634Y-4.2305
X5.5634Y-4.1305
X5.5634Y-4.2305
X5.6634Y-4.1305
X5.6634Y-4.2305
X5.7634Y-4.1305
X5.7634Y-4.2305
X5.8634Y-4.1305
X5.8634Y-4.2305
X5.9634Y-4.1305
X5.9634Y-4.2305
X6.0634Y-4.1305
X6.0634Y-4.2305
X6.1634Y-4.1305
X6.1634Y-4.2305
T5
X5.4134Y-2.7559
X5.4134Y-3.1496
M30
