%TF.GenerationSoftware,KiCad,Pcbnew,9.0.0*%
%TF.CreationDate,2025-04-09T17:19:20+02:00*%
%TF.ProjectId,Micromouse Power Subsystem,4d696372-6f6d-46f7-9573-6520506f7765,2.0*%
%TF.SameCoordinates,Original*%
%TF.FileFunction,Legend,Top*%
%TF.FilePolarity,Positive*%
%FSLAX46Y46*%
G04 Gerber Fmt 4.6, Leading zero omitted, Abs format (unit mm)*
G04 Created by KiCad (PCBNEW 9.0.0) date 2025-04-09 17:19:20*
%MOMM*%
%LPD*%
G01*
G04 APERTURE LIST*
G04 Aperture macros list*
%AMRoundRect*
0 Rectangle with rounded corners*
0 $1 Rounding radius*
0 $2 $3 $4 $5 $6 $7 $8 $9 X,Y pos of 4 corners*
0 Add a 4 corners polygon primitive as box body*
4,1,4,$2,$3,$4,$5,$6,$7,$8,$9,$2,$3,0*
0 Add four circle primitives for the rounded corners*
1,1,$1+$1,$2,$3*
1,1,$1+$1,$4,$5*
1,1,$1+$1,$6,$7*
1,1,$1+$1,$8,$9*
0 Add four rect primitives between the rounded corners*
20,1,$1+$1,$2,$3,$4,$5,0*
20,1,$1+$1,$4,$5,$6,$7,0*
20,1,$1+$1,$6,$7,$8,$9,0*
20,1,$1+$1,$8,$9,$2,$3,0*%
%AMFreePoly0*
4,1,505,-0.203634,2.555678,-0.202053,2.555421,-0.199231,2.554726,-0.198634,2.554678,-0.197053,2.554421,-0.194231,2.553726,-0.193634,2.553678,-0.192053,2.553421,-0.176164,2.549509,-0.173164,2.548509,-0.166423,2.545994,-0.165768,2.545723,-0.159148,2.542704,-0.157464,2.541862,-0.157608,2.541572,-0.146835,2.536534,-0.144880,2.535327,-0.140541,2.531895,-0.136165,2.529249,-0.134865,2.528313,
-0.133109,2.526820,-0.132165,2.526249,-0.130865,2.525313,-0.118339,2.514661,-0.110339,2.506661,-0.099687,2.494135,-0.098751,2.492835,-0.098179,2.491890,-0.096687,2.490135,-0.095751,2.488835,-0.093104,2.484458,-0.089673,2.480120,-0.088466,2.478165,-0.083427,2.467391,-0.083138,2.467536,-0.082296,2.465852,-0.079277,2.459232,-0.079006,2.458577,-0.076491,2.451836,-0.075491,2.448836,
-0.071579,2.432947,-0.071322,2.431366,-0.071273,2.430768,-0.070579,2.427947,-0.070322,2.426366,-0.070273,2.425768,-0.069579,2.422947,-0.069322,2.421366,-0.068000,2.405000,-0.068000,2.032000,0.068000,2.032000,0.068000,2.405000,0.069322,2.421366,0.069579,2.422947,0.070273,2.425768,0.070322,2.426366,0.070579,2.427947,0.071273,2.430768,0.071322,2.431366,0.071579,2.432947,
0.075491,2.448836,0.076491,2.451836,0.079006,2.458577,0.079277,2.459232,0.082296,2.465852,0.083138,2.467536,0.083427,2.467391,0.088466,2.478165,0.089673,2.480120,0.093104,2.484458,0.095751,2.488835,0.096687,2.490135,0.098179,2.491890,0.098751,2.492835,0.099687,2.494135,0.110339,2.506661,0.118339,2.514661,0.130865,2.525313,0.132165,2.526249,0.133109,2.526820,
0.134865,2.528313,0.136165,2.529249,0.140541,2.531895,0.144880,2.535327,0.146835,2.536534,0.157608,2.541572,0.157464,2.541862,0.159148,2.542704,0.165768,2.545723,0.166423,2.545994,0.173164,2.548509,0.176164,2.549509,0.192053,2.553421,0.193634,2.553678,0.194231,2.553726,0.197053,2.554421,0.198634,2.554678,0.199231,2.554726,0.202053,2.555421,0.203634,2.555678,
0.220000,2.557000,0.330000,2.557000,0.346366,2.555678,0.347947,2.555421,0.350768,2.554726,0.351366,2.554678,0.352947,2.554421,0.355768,2.553726,0.356366,2.553678,0.357947,2.553421,0.373836,2.549509,0.376836,2.548509,0.383577,2.545994,0.384232,2.545723,0.390852,2.542704,0.392536,2.541862,0.392391,2.541572,0.403165,2.536534,0.405120,2.535327,0.409458,2.531895,
0.413835,2.529249,0.415135,2.528313,0.416890,2.526820,0.417835,2.526249,0.419135,2.525313,0.431661,2.514661,0.439661,2.506661,0.450313,2.494135,0.451249,2.492835,0.451820,2.491890,0.453313,2.490135,0.454249,2.488835,0.456895,2.484458,0.460327,2.480120,0.461534,2.478165,0.466572,2.467391,0.466862,2.467536,0.467704,2.465852,0.470723,2.459232,0.470994,2.458577,
0.473509,2.451836,0.474509,2.448836,0.478421,2.432947,0.478678,2.431366,0.478726,2.430768,0.479421,2.427947,0.479678,2.426366,0.479726,2.425768,0.480421,2.422947,0.480678,2.421366,0.482000,2.405000,0.482000,1.632000,0.980000,1.632000,0.996366,1.630678,0.997947,1.630421,1.000768,1.629726,1.001366,1.629678,1.002947,1.629421,1.005768,1.628726,1.006366,1.628678,
1.007947,1.628421,1.013719,1.627000,1.025000,1.627000,1.084954,1.607520,1.122008,1.556520,1.127000,1.525000,1.127000,1.513718,1.128421,1.507947,1.128678,1.506366,1.128726,1.505768,1.129421,1.502947,1.129678,1.501366,1.129726,1.500768,1.130421,1.497947,1.130678,1.496366,1.132000,1.480000,1.132000,-1.480000,1.130678,-1.496366,1.130421,-1.497947,1.129726,-1.500768,
1.129678,-1.501366,1.129421,-1.502947,1.128726,-1.505768,1.128678,-1.506366,1.128421,-1.507947,1.127000,-1.513718,1.127000,-1.525000,1.107520,-1.584954,1.056520,-1.622008,1.025000,-1.627000,1.013719,-1.627000,1.007947,-1.628421,1.006366,-1.628678,1.005768,-1.628726,1.002947,-1.629421,1.001366,-1.629678,1.000768,-1.629726,0.997947,-1.630421,0.996366,-1.630678,0.980000,-1.632000,
0.482000,-1.632000,0.482000,-2.405000,0.480678,-2.421366,0.480421,-2.422947,0.479726,-2.425768,0.479678,-2.426366,0.479421,-2.427947,0.478726,-2.430768,0.478678,-2.431366,0.478421,-2.432947,0.474509,-2.448836,0.473509,-2.451836,0.470994,-2.458577,0.470723,-2.459232,0.467704,-2.465852,0.466862,-2.467536,0.466572,-2.467391,0.461534,-2.478165,0.460327,-2.480120,0.456895,-2.484458,
0.454249,-2.488835,0.453313,-2.490135,0.451820,-2.491890,0.451249,-2.492835,0.450313,-2.494135,0.439661,-2.506661,0.431661,-2.514661,0.419135,-2.525313,0.417835,-2.526249,0.416890,-2.526820,0.415135,-2.528313,0.413835,-2.529249,0.409458,-2.531895,0.405120,-2.535327,0.403165,-2.536534,0.392391,-2.541572,0.392536,-2.541862,0.390852,-2.542704,0.384232,-2.545723,0.383577,-2.545994,
0.376836,-2.548509,0.373836,-2.549509,0.357947,-2.553421,0.356366,-2.553678,0.355768,-2.553726,0.352947,-2.554421,0.351366,-2.554678,0.350768,-2.554726,0.347947,-2.555421,0.346366,-2.555678,0.330000,-2.557000,0.220000,-2.557000,0.203634,-2.555678,0.202053,-2.555421,0.199231,-2.554726,0.198634,-2.554678,0.197053,-2.554421,0.194231,-2.553726,0.193634,-2.553678,0.192053,-2.553421,
0.176164,-2.549509,0.173164,-2.548509,0.166423,-2.545994,0.165768,-2.545723,0.159148,-2.542704,0.157464,-2.541862,0.157608,-2.541572,0.146835,-2.536534,0.144880,-2.535327,0.140541,-2.531895,0.136165,-2.529249,0.134865,-2.528313,0.133109,-2.526820,0.132165,-2.526249,0.130865,-2.525313,0.118339,-2.514661,0.110339,-2.506661,0.099687,-2.494135,0.098751,-2.492835,0.098179,-2.491890,
0.096687,-2.490135,0.095751,-2.488835,0.093104,-2.484458,0.089673,-2.480120,0.088466,-2.478165,0.083427,-2.467391,0.083138,-2.467536,0.082296,-2.465852,0.079277,-2.459232,0.079006,-2.458577,0.076491,-2.451836,0.075491,-2.448836,0.071579,-2.432947,0.071322,-2.431366,0.071273,-2.430768,0.070579,-2.427947,0.070322,-2.426366,0.070273,-2.425768,0.069579,-2.422947,0.069322,-2.421366,
0.068000,-2.405000,0.068000,-2.032000,-0.068000,-2.032000,-0.068000,-2.405000,-0.069322,-2.421366,-0.069579,-2.422947,-0.070273,-2.425768,-0.070322,-2.426366,-0.070579,-2.427947,-0.071273,-2.430768,-0.071322,-2.431366,-0.071579,-2.432947,-0.075491,-2.448836,-0.076491,-2.451836,-0.079006,-2.458577,-0.079277,-2.459232,-0.082296,-2.465852,-0.083138,-2.467536,-0.083427,-2.467391,-0.088466,-2.478165,
-0.089673,-2.480120,-0.093104,-2.484458,-0.095751,-2.488835,-0.096687,-2.490135,-0.098179,-2.491890,-0.098751,-2.492835,-0.099687,-2.494135,-0.110339,-2.506661,-0.118339,-2.514661,-0.130865,-2.525313,-0.132165,-2.526249,-0.133109,-2.526820,-0.134865,-2.528313,-0.136165,-2.529249,-0.140541,-2.531895,-0.144880,-2.535327,-0.146835,-2.536534,-0.157608,-2.541572,-0.157464,-2.541862,-0.159148,-2.542704,
-0.165768,-2.545723,-0.166423,-2.545994,-0.173164,-2.548509,-0.176164,-2.549509,-0.192053,-2.553421,-0.193634,-2.553678,-0.194231,-2.553726,-0.197053,-2.554421,-0.198634,-2.554678,-0.199231,-2.554726,-0.202053,-2.555421,-0.203634,-2.555678,-0.220000,-2.557000,-0.330000,-2.557000,-0.346366,-2.555678,-0.347947,-2.555421,-0.350768,-2.554726,-0.351366,-2.554678,-0.352947,-2.554421,-0.355768,-2.553726,
-0.356366,-2.553678,-0.357947,-2.553421,-0.373836,-2.549509,-0.376836,-2.548509,-0.383577,-2.545994,-0.384232,-2.545723,-0.390852,-2.542704,-0.392536,-2.541862,-0.392391,-2.541572,-0.403165,-2.536534,-0.405120,-2.535327,-0.409458,-2.531895,-0.413835,-2.529249,-0.415135,-2.528313,-0.416890,-2.526820,-0.417835,-2.526249,-0.419135,-2.525313,-0.431661,-2.514661,-0.439661,-2.506661,-0.450313,-2.494135,
-0.451249,-2.492835,-0.451820,-2.491890,-0.453313,-2.490135,-0.454249,-2.488835,-0.456895,-2.484458,-0.460327,-2.480120,-0.461534,-2.478165,-0.466572,-2.467391,-0.466862,-2.467536,-0.467704,-2.465852,-0.470723,-2.459232,-0.470994,-2.458577,-0.473509,-2.451836,-0.474509,-2.448836,-0.478421,-2.432947,-0.478678,-2.431366,-0.478726,-2.430768,-0.479421,-2.427947,-0.479678,-2.426366,-0.479726,-2.425768,
-0.480421,-2.422947,-0.480678,-2.421366,-0.482000,-2.405000,-0.482000,-1.632000,-0.980000,-1.632000,-0.996366,-1.630678,-0.997947,-1.630421,-1.000768,-1.629726,-1.001366,-1.629678,-1.002947,-1.629421,-1.005768,-1.628726,-1.006366,-1.628678,-1.007947,-1.628421,-1.013719,-1.627000,-1.025000,-1.627000,-1.084954,-1.607520,-1.122008,-1.556520,-1.127000,-1.525000,-1.127000,-1.513718,-1.128421,-1.507947,
-1.128678,-1.506366,-1.128726,-1.505768,-1.129421,-1.502947,-1.129678,-1.501366,-1.129726,-1.500768,-1.130421,-1.497947,-1.130678,-1.496366,-1.132000,-1.480000,-1.132000,1.480000,-1.130678,1.496366,-1.130421,1.497947,-1.129726,1.500768,-1.129678,1.501366,-1.129421,1.502947,-1.128726,1.505768,-1.128678,1.506366,-1.128421,1.507947,-1.127000,1.513718,-1.127000,1.525000,-1.107520,1.584954,
-1.056520,1.622008,-1.025000,1.627000,-1.013719,1.627000,-1.007947,1.628421,-1.006366,1.628678,-1.005768,1.628726,-1.002947,1.629421,-1.001366,1.629678,-1.000768,1.629726,-0.997947,1.630421,-0.996366,1.630678,-0.980000,1.632000,-0.482000,1.632000,-0.482000,2.405000,-0.480678,2.421366,-0.480421,2.422947,-0.479726,2.425768,-0.479678,2.426366,-0.479421,2.427947,-0.478726,2.430768,
-0.478678,2.431366,-0.478421,2.432947,-0.474509,2.448836,-0.473509,2.451836,-0.470994,2.458577,-0.470723,2.459232,-0.467704,2.465852,-0.466862,2.467536,-0.466572,2.467391,-0.461534,2.478165,-0.460327,2.480120,-0.456895,2.484458,-0.454249,2.488835,-0.453313,2.490135,-0.451820,2.491890,-0.451249,2.492835,-0.450313,2.494135,-0.439661,2.506661,-0.431661,2.514661,-0.419135,2.525313,
-0.417835,2.526249,-0.416890,2.526820,-0.415135,2.528313,-0.413835,2.529249,-0.409458,2.531895,-0.405120,2.535327,-0.403165,2.536534,-0.392391,2.541572,-0.392536,2.541862,-0.390852,2.542704,-0.384232,2.545723,-0.383577,2.545994,-0.376836,2.548509,-0.373836,2.549509,-0.357947,2.553421,-0.356366,2.553678,-0.355768,2.553726,-0.352947,2.554421,-0.351366,2.554678,-0.350768,2.554726,
-0.347947,2.555421,-0.346366,2.555678,-0.330000,2.557000,-0.220000,2.557000,-0.203634,2.555678,-0.203634,2.555678,$1*%
G04 Aperture macros list end*
%ADD10C,0.300000*%
%ADD11C,0.150000*%
%ADD12C,0.098425*%
%ADD13C,0.060464*%
%ADD14C,0.254000*%
%ADD15C,0.120000*%
%ADD16C,0.127000*%
%ADD17C,0.200000*%
%ADD18C,0.152400*%
%ADD19C,0.203200*%
%ADD20C,0.152500*%
%ADD21C,0.010000*%
%ADD22R,1.700000X1.700000*%
%ADD23O,1.700000X1.700000*%
%ADD24RoundRect,0.102000X-0.710000X0.500000X-0.710000X-0.500000X0.710000X-0.500000X0.710000X0.500000X0*%
%ADD25R,1.500000X1.000000*%
%ADD26RoundRect,0.102000X0.710000X-0.500000X0.710000X0.500000X-0.710000X0.500000X-0.710000X-0.500000X0*%
%ADD27RoundRect,0.198500X-0.508500X-0.198500X0.508500X-0.198500X0.508500X0.198500X-0.508500X0.198500X0*%
%ADD28RoundRect,0.102000X-0.910000X0.600000X-0.910000X-0.600000X0.910000X-0.600000X0.910000X0.600000X0*%
%ADD29C,0.660400*%
%ADD30R,1.803400X1.447800*%
%ADD31R,1.803400X1.193800*%
%ADD32R,0.609600X1.447800*%
%ADD33R,0.304800X1.447800*%
%ADD34RoundRect,0.102000X-0.600000X-0.910000X0.600000X-0.910000X0.600000X0.910000X-0.600000X0.910000X0*%
%ADD35RoundRect,0.102000X0.465000X-0.435000X0.465000X0.435000X-0.465000X0.435000X-0.465000X-0.435000X0*%
%ADD36RoundRect,0.102000X-0.500000X-0.710000X0.500000X-0.710000X0.500000X0.710000X-0.500000X0.710000X0*%
%ADD37R,0.558800X1.320800*%
%ADD38RoundRect,0.102000X0.435000X0.465000X-0.435000X0.465000X-0.435000X-0.465000X0.435000X-0.465000X0*%
%ADD39RoundRect,0.197160X0.204840X-0.174840X0.204840X0.174840X-0.204840X0.174840X-0.204840X-0.174840X0*%
%ADD40RoundRect,0.085500X-0.621500X-0.256500X0.621500X-0.256500X0.621500X0.256500X-0.621500X0.256500X0*%
%ADD41RoundRect,0.102000X-0.654000X-0.654000X0.654000X-0.654000X0.654000X0.654000X-0.654000X0.654000X0*%
%ADD42C,1.512000*%
%ADD43RoundRect,0.102000X0.910000X-0.600000X0.910000X0.600000X-0.910000X0.600000X-0.910000X-0.600000X0*%
%ADD44RoundRect,0.102000X-0.535000X-1.710000X0.535000X-1.710000X0.535000X1.710000X-0.535000X1.710000X0*%
%ADD45RoundRect,0.102000X-0.750000X-0.200000X0.750000X-0.200000X0.750000X0.200000X-0.750000X0.200000X0*%
%ADD46RoundRect,0.102000X0.500000X0.710000X-0.500000X0.710000X-0.500000X-0.710000X0.500000X-0.710000X0*%
%ADD47C,5.600000*%
%ADD48R,0.700000X1.250000*%
%ADD49RoundRect,0.102000X0.400000X0.400000X-0.400000X0.400000X-0.400000X-0.400000X0.400000X-0.400000X0*%
%ADD50RoundRect,0.093240X-0.128760X-0.308760X0.128760X-0.308760X0.128760X0.308760X-0.128760X0.308760X0*%
%ADD51RoundRect,0.093240X-0.308760X-0.128760X0.308760X-0.128760X0.308760X0.128760X-0.308760X0.128760X0*%
%ADD52FreePoly0,0.000000*%
%ADD53C,0.504000*%
%ADD54RoundRect,0.102000X0.750000X0.200000X-0.750000X0.200000X-0.750000X-0.200000X0.750000X-0.200000X0*%
%ADD55RoundRect,0.058000X0.474000X0.174000X-0.474000X0.174000X-0.474000X-0.174000X0.474000X-0.174000X0*%
%ADD56RoundRect,0.058000X0.174000X0.474000X-0.174000X0.474000X-0.174000X-0.474000X0.174000X-0.474000X0*%
%ADD57RoundRect,0.102000X0.840000X0.840000X-0.840000X0.840000X-0.840000X-0.840000X0.840000X-0.840000X0*%
%ADD58R,1.400000X0.700000*%
%ADD59R,2.300000X3.200000*%
%ADD60RoundRect,0.102000X-0.580000X-0.735000X0.580000X-0.735000X0.580000X0.735000X-0.580000X0.735000X0*%
%ADD61RoundRect,0.102000X-0.550000X-0.690000X0.550000X-0.690000X0.550000X0.690000X-0.550000X0.690000X0*%
%ADD62RoundRect,0.102000X0.600000X0.910000X-0.600000X0.910000X-0.600000X-0.910000X0.600000X-0.910000X0*%
%ADD63R,0.500000X0.605600*%
%ADD64R,4.000000X1.500000*%
%ADD65RoundRect,0.102000X-0.465000X0.435000X-0.465000X-0.435000X0.465000X-0.435000X0.465000X0.435000X0*%
%ADD66R,0.900000X1.250000*%
%ADD67R,0.800000X0.900000*%
%ADD68R,1.320800X0.558800*%
%ADD69RoundRect,0.102000X0.735000X-0.580000X0.735000X0.580000X-0.735000X0.580000X-0.735000X-0.580000X0*%
%ADD70R,4.220000X2.124000*%
%ADD71RoundRect,0.197160X0.174840X0.204840X-0.174840X0.204840X-0.174840X-0.204840X0.174840X-0.204840X0*%
%ADD72RoundRect,0.102000X-0.575000X-0.725000X0.575000X-0.725000X0.575000X0.725000X-0.575000X0.725000X0*%
%ADD73RoundRect,0.102000X0.690000X-0.550000X0.690000X0.550000X-0.690000X0.550000X-0.690000X-0.550000X0*%
%ADD74R,0.605600X0.500000*%
G04 APERTURE END LIST*
D10*
X175083919Y-51354510D02*
X176583919Y-51354510D01*
X176583919Y-51354510D02*
X175083919Y-52211653D01*
X175083919Y-52211653D02*
X176583919Y-52211653D01*
X175083919Y-52925939D02*
X176583919Y-52925939D01*
X176583919Y-52925939D02*
X176583919Y-53283082D01*
X176583919Y-53283082D02*
X176512490Y-53497368D01*
X176512490Y-53497368D02*
X176369633Y-53640225D01*
X176369633Y-53640225D02*
X176226776Y-53711654D01*
X176226776Y-53711654D02*
X175941062Y-53783082D01*
X175941062Y-53783082D02*
X175726776Y-53783082D01*
X175726776Y-53783082D02*
X175441062Y-53711654D01*
X175441062Y-53711654D02*
X175298205Y-53640225D01*
X175298205Y-53640225D02*
X175155348Y-53497368D01*
X175155348Y-53497368D02*
X175083919Y-53283082D01*
X175083919Y-53283082D02*
X175083919Y-52925939D01*
X176583919Y-54283082D02*
X175083919Y-55283082D01*
X176583919Y-55283082D02*
X175083919Y-54283082D01*
X176583919Y-56283082D02*
X175512490Y-56283082D01*
X175512490Y-56283082D02*
X175298205Y-56211653D01*
X175298205Y-56211653D02*
X175155348Y-56068796D01*
X175155348Y-56068796D02*
X175083919Y-55854510D01*
X175083919Y-55854510D02*
X175083919Y-55711653D01*
X176583919Y-57283082D02*
X176583919Y-57568796D01*
X176583919Y-57568796D02*
X176512490Y-57711653D01*
X176512490Y-57711653D02*
X176369633Y-57854510D01*
X176369633Y-57854510D02*
X176083919Y-57925939D01*
X176083919Y-57925939D02*
X175583919Y-57925939D01*
X175583919Y-57925939D02*
X175298205Y-57854510D01*
X175298205Y-57854510D02*
X175155348Y-57711653D01*
X175155348Y-57711653D02*
X175083919Y-57568796D01*
X175083919Y-57568796D02*
X175083919Y-57283082D01*
X175083919Y-57283082D02*
X175155348Y-57140225D01*
X175155348Y-57140225D02*
X175298205Y-56997367D01*
X175298205Y-56997367D02*
X175583919Y-56925939D01*
X175583919Y-56925939D02*
X176083919Y-56925939D01*
X176083919Y-56925939D02*
X176369633Y-56997367D01*
X176369633Y-56997367D02*
X176512490Y-57140225D01*
X176512490Y-57140225D02*
X176583919Y-57283082D01*
X175155348Y-58497368D02*
X175083919Y-58711654D01*
X175083919Y-58711654D02*
X175083919Y-59068796D01*
X175083919Y-59068796D02*
X175155348Y-59211654D01*
X175155348Y-59211654D02*
X175226776Y-59283082D01*
X175226776Y-59283082D02*
X175369633Y-59354511D01*
X175369633Y-59354511D02*
X175512490Y-59354511D01*
X175512490Y-59354511D02*
X175655348Y-59283082D01*
X175655348Y-59283082D02*
X175726776Y-59211654D01*
X175726776Y-59211654D02*
X175798205Y-59068796D01*
X175798205Y-59068796D02*
X175869633Y-58783082D01*
X175869633Y-58783082D02*
X175941062Y-58640225D01*
X175941062Y-58640225D02*
X176012490Y-58568796D01*
X176012490Y-58568796D02*
X176155348Y-58497368D01*
X176155348Y-58497368D02*
X176298205Y-58497368D01*
X176298205Y-58497368D02*
X176441062Y-58568796D01*
X176441062Y-58568796D02*
X176512490Y-58640225D01*
X176512490Y-58640225D02*
X176583919Y-58783082D01*
X176583919Y-58783082D02*
X176583919Y-59140225D01*
X176583919Y-59140225D02*
X176512490Y-59354511D01*
X176583919Y-60283082D02*
X176583919Y-60425939D01*
X176583919Y-60425939D02*
X176512490Y-60568796D01*
X176512490Y-60568796D02*
X176441062Y-60640225D01*
X176441062Y-60640225D02*
X176298205Y-60711653D01*
X176298205Y-60711653D02*
X176012490Y-60783082D01*
X176012490Y-60783082D02*
X175655348Y-60783082D01*
X175655348Y-60783082D02*
X175369633Y-60711653D01*
X175369633Y-60711653D02*
X175226776Y-60640225D01*
X175226776Y-60640225D02*
X175155348Y-60568796D01*
X175155348Y-60568796D02*
X175083919Y-60425939D01*
X175083919Y-60425939D02*
X175083919Y-60283082D01*
X175083919Y-60283082D02*
X175155348Y-60140225D01*
X175155348Y-60140225D02*
X175226776Y-60068796D01*
X175226776Y-60068796D02*
X175369633Y-59997367D01*
X175369633Y-59997367D02*
X175655348Y-59925939D01*
X175655348Y-59925939D02*
X176012490Y-59925939D01*
X176012490Y-59925939D02*
X176298205Y-59997367D01*
X176298205Y-59997367D02*
X176441062Y-60068796D01*
X176441062Y-60068796D02*
X176512490Y-60140225D01*
X176512490Y-60140225D02*
X176583919Y-60283082D01*
X175083919Y-62211653D02*
X175083919Y-61354510D01*
X175083919Y-61783081D02*
X176583919Y-61783081D01*
X176583919Y-61783081D02*
X176369633Y-61640224D01*
X176369633Y-61640224D02*
X176226776Y-61497367D01*
X176226776Y-61497367D02*
X176155348Y-61354510D01*
X176441062Y-62783081D02*
X176512490Y-62854509D01*
X176512490Y-62854509D02*
X176583919Y-62997367D01*
X176583919Y-62997367D02*
X176583919Y-63354509D01*
X176583919Y-63354509D02*
X176512490Y-63497367D01*
X176512490Y-63497367D02*
X176441062Y-63568795D01*
X176441062Y-63568795D02*
X176298205Y-63640224D01*
X176298205Y-63640224D02*
X176155348Y-63640224D01*
X176155348Y-63640224D02*
X175941062Y-63568795D01*
X175941062Y-63568795D02*
X175083919Y-62711652D01*
X175083919Y-62711652D02*
X175083919Y-63640224D01*
X174169003Y-51783082D02*
X173097574Y-51783082D01*
X173097574Y-51783082D02*
X172883289Y-51711653D01*
X172883289Y-51711653D02*
X172740432Y-51568796D01*
X172740432Y-51568796D02*
X172669003Y-51354510D01*
X172669003Y-51354510D02*
X172669003Y-51211653D01*
X172669003Y-52711653D02*
X172740432Y-52568796D01*
X172740432Y-52568796D02*
X172811860Y-52497367D01*
X172811860Y-52497367D02*
X172954717Y-52425939D01*
X172954717Y-52425939D02*
X173383289Y-52425939D01*
X173383289Y-52425939D02*
X173526146Y-52497367D01*
X173526146Y-52497367D02*
X173597574Y-52568796D01*
X173597574Y-52568796D02*
X173669003Y-52711653D01*
X173669003Y-52711653D02*
X173669003Y-52925939D01*
X173669003Y-52925939D02*
X173597574Y-53068796D01*
X173597574Y-53068796D02*
X173526146Y-53140225D01*
X173526146Y-53140225D02*
X173383289Y-53211653D01*
X173383289Y-53211653D02*
X172954717Y-53211653D01*
X172954717Y-53211653D02*
X172811860Y-53140225D01*
X172811860Y-53140225D02*
X172740432Y-53068796D01*
X172740432Y-53068796D02*
X172669003Y-52925939D01*
X172669003Y-52925939D02*
X172669003Y-52711653D01*
X172740432Y-53783082D02*
X172669003Y-53925939D01*
X172669003Y-53925939D02*
X172669003Y-54211653D01*
X172669003Y-54211653D02*
X172740432Y-54354510D01*
X172740432Y-54354510D02*
X172883289Y-54425939D01*
X172883289Y-54425939D02*
X172954717Y-54425939D01*
X172954717Y-54425939D02*
X173097574Y-54354510D01*
X173097574Y-54354510D02*
X173169003Y-54211653D01*
X173169003Y-54211653D02*
X173169003Y-53997368D01*
X173169003Y-53997368D02*
X173240432Y-53854510D01*
X173240432Y-53854510D02*
X173383289Y-53783082D01*
X173383289Y-53783082D02*
X173454717Y-53783082D01*
X173454717Y-53783082D02*
X173597574Y-53854510D01*
X173597574Y-53854510D02*
X173669003Y-53997368D01*
X173669003Y-53997368D02*
X173669003Y-54211653D01*
X173669003Y-54211653D02*
X173597574Y-54354510D01*
X172669003Y-55068796D02*
X174169003Y-55068796D01*
X172669003Y-55711654D02*
X173454717Y-55711654D01*
X173454717Y-55711654D02*
X173597574Y-55640225D01*
X173597574Y-55640225D02*
X173669003Y-55497368D01*
X173669003Y-55497368D02*
X173669003Y-55283082D01*
X173669003Y-55283082D02*
X173597574Y-55140225D01*
X173597574Y-55140225D02*
X173526146Y-55068796D01*
X173669003Y-57068797D02*
X172669003Y-57068797D01*
X173669003Y-56425939D02*
X172883289Y-56425939D01*
X172883289Y-56425939D02*
X172740432Y-56497368D01*
X172740432Y-56497368D02*
X172669003Y-56640225D01*
X172669003Y-56640225D02*
X172669003Y-56854511D01*
X172669003Y-56854511D02*
X172740432Y-56997368D01*
X172740432Y-56997368D02*
X172811860Y-57068797D01*
X172669003Y-58425940D02*
X173454717Y-58425940D01*
X173454717Y-58425940D02*
X173597574Y-58354511D01*
X173597574Y-58354511D02*
X173669003Y-58211654D01*
X173669003Y-58211654D02*
X173669003Y-57925940D01*
X173669003Y-57925940D02*
X173597574Y-57783082D01*
X172740432Y-58425940D02*
X172669003Y-58283082D01*
X172669003Y-58283082D02*
X172669003Y-57925940D01*
X172669003Y-57925940D02*
X172740432Y-57783082D01*
X172740432Y-57783082D02*
X172883289Y-57711654D01*
X172883289Y-57711654D02*
X173026146Y-57711654D01*
X173026146Y-57711654D02*
X173169003Y-57783082D01*
X173169003Y-57783082D02*
X173240432Y-57925940D01*
X173240432Y-57925940D02*
X173240432Y-58283082D01*
X173240432Y-58283082D02*
X173311860Y-58425940D01*
X172669003Y-60283082D02*
X174169003Y-60283082D01*
X174169003Y-60283082D02*
X172669003Y-61140225D01*
X172669003Y-61140225D02*
X174169003Y-61140225D01*
X172669003Y-62497369D02*
X173454717Y-62497369D01*
X173454717Y-62497369D02*
X173597574Y-62425940D01*
X173597574Y-62425940D02*
X173669003Y-62283083D01*
X173669003Y-62283083D02*
X173669003Y-61997369D01*
X173669003Y-61997369D02*
X173597574Y-61854511D01*
X172740432Y-62497369D02*
X172669003Y-62354511D01*
X172669003Y-62354511D02*
X172669003Y-61997369D01*
X172669003Y-61997369D02*
X172740432Y-61854511D01*
X172740432Y-61854511D02*
X172883289Y-61783083D01*
X172883289Y-61783083D02*
X173026146Y-61783083D01*
X173026146Y-61783083D02*
X173169003Y-61854511D01*
X173169003Y-61854511D02*
X173240432Y-61997369D01*
X173240432Y-61997369D02*
X173240432Y-62354511D01*
X173240432Y-62354511D02*
X173311860Y-62497369D01*
X172669003Y-63211654D02*
X173669003Y-63211654D01*
X174169003Y-63211654D02*
X174097574Y-63140226D01*
X174097574Y-63140226D02*
X174026146Y-63211654D01*
X174026146Y-63211654D02*
X174097574Y-63283083D01*
X174097574Y-63283083D02*
X174169003Y-63211654D01*
X174169003Y-63211654D02*
X174026146Y-63211654D01*
X172669003Y-64568798D02*
X174169003Y-64568798D01*
X172740432Y-64568798D02*
X172669003Y-64425940D01*
X172669003Y-64425940D02*
X172669003Y-64140226D01*
X172669003Y-64140226D02*
X172740432Y-63997369D01*
X172740432Y-63997369D02*
X172811860Y-63925940D01*
X172811860Y-63925940D02*
X172954717Y-63854512D01*
X172954717Y-63854512D02*
X173383289Y-63854512D01*
X173383289Y-63854512D02*
X173526146Y-63925940D01*
X173526146Y-63925940D02*
X173597574Y-63997369D01*
X173597574Y-63997369D02*
X173669003Y-64140226D01*
X173669003Y-64140226D02*
X173669003Y-64425940D01*
X173669003Y-64425940D02*
X173597574Y-64568798D01*
X172669003Y-65497369D02*
X172740432Y-65354512D01*
X172740432Y-65354512D02*
X172811860Y-65283083D01*
X172811860Y-65283083D02*
X172954717Y-65211655D01*
X172954717Y-65211655D02*
X173383289Y-65211655D01*
X173383289Y-65211655D02*
X173526146Y-65283083D01*
X173526146Y-65283083D02*
X173597574Y-65354512D01*
X173597574Y-65354512D02*
X173669003Y-65497369D01*
X173669003Y-65497369D02*
X173669003Y-65711655D01*
X173669003Y-65711655D02*
X173597574Y-65854512D01*
X173597574Y-65854512D02*
X173526146Y-65925941D01*
X173526146Y-65925941D02*
X173383289Y-65997369D01*
X173383289Y-65997369D02*
X172954717Y-65997369D01*
X172954717Y-65997369D02*
X172811860Y-65925941D01*
X172811860Y-65925941D02*
X172740432Y-65854512D01*
X172740432Y-65854512D02*
X172669003Y-65711655D01*
X172669003Y-65711655D02*
X172669003Y-65497369D01*
X172669003Y-66854512D02*
X172740432Y-66711655D01*
X172740432Y-66711655D02*
X172811860Y-66640226D01*
X172811860Y-66640226D02*
X172954717Y-66568798D01*
X172954717Y-66568798D02*
X173383289Y-66568798D01*
X173383289Y-66568798D02*
X173526146Y-66640226D01*
X173526146Y-66640226D02*
X173597574Y-66711655D01*
X173597574Y-66711655D02*
X173669003Y-66854512D01*
X173669003Y-66854512D02*
X173669003Y-67068798D01*
X173669003Y-67068798D02*
X173597574Y-67211655D01*
X173597574Y-67211655D02*
X173526146Y-67283084D01*
X173526146Y-67283084D02*
X173383289Y-67354512D01*
X173383289Y-67354512D02*
X172954717Y-67354512D01*
X172954717Y-67354512D02*
X172811860Y-67283084D01*
X172811860Y-67283084D02*
X172740432Y-67211655D01*
X172740432Y-67211655D02*
X172669003Y-67068798D01*
X172669003Y-67068798D02*
X172669003Y-66854512D01*
X170254087Y-51354510D02*
X171754087Y-51354510D01*
X171754087Y-51354510D02*
X170254087Y-52211653D01*
X170254087Y-52211653D02*
X171754087Y-52211653D01*
X170254087Y-52925939D02*
X171754087Y-52925939D01*
X171754087Y-52925939D02*
X171754087Y-53283082D01*
X171754087Y-53283082D02*
X171682658Y-53497368D01*
X171682658Y-53497368D02*
X171539801Y-53640225D01*
X171539801Y-53640225D02*
X171396944Y-53711654D01*
X171396944Y-53711654D02*
X171111230Y-53783082D01*
X171111230Y-53783082D02*
X170896944Y-53783082D01*
X170896944Y-53783082D02*
X170611230Y-53711654D01*
X170611230Y-53711654D02*
X170468373Y-53640225D01*
X170468373Y-53640225D02*
X170325516Y-53497368D01*
X170325516Y-53497368D02*
X170254087Y-53283082D01*
X170254087Y-53283082D02*
X170254087Y-52925939D01*
X171754087Y-54283082D02*
X170254087Y-55283082D01*
X171754087Y-55283082D02*
X170254087Y-54283082D01*
X170254087Y-55854510D02*
X171754087Y-55854510D01*
X170254087Y-56711653D02*
X171111230Y-56068796D01*
X171754087Y-56711653D02*
X170896944Y-55854510D01*
X170254087Y-57354510D02*
X171754087Y-57354510D01*
X170968373Y-58354511D02*
X170254087Y-58354511D01*
X171754087Y-57854511D02*
X170968373Y-58354511D01*
X170968373Y-58354511D02*
X171754087Y-58854511D01*
X171754087Y-59640225D02*
X171754087Y-59783082D01*
X171754087Y-59783082D02*
X171682658Y-59925939D01*
X171682658Y-59925939D02*
X171611230Y-59997368D01*
X171611230Y-59997368D02*
X171468373Y-60068796D01*
X171468373Y-60068796D02*
X171182658Y-60140225D01*
X171182658Y-60140225D02*
X170825516Y-60140225D01*
X170825516Y-60140225D02*
X170539801Y-60068796D01*
X170539801Y-60068796D02*
X170396944Y-59997368D01*
X170396944Y-59997368D02*
X170325516Y-59925939D01*
X170325516Y-59925939D02*
X170254087Y-59783082D01*
X170254087Y-59783082D02*
X170254087Y-59640225D01*
X170254087Y-59640225D02*
X170325516Y-59497368D01*
X170325516Y-59497368D02*
X170396944Y-59425939D01*
X170396944Y-59425939D02*
X170539801Y-59354510D01*
X170539801Y-59354510D02*
X170825516Y-59283082D01*
X170825516Y-59283082D02*
X171182658Y-59283082D01*
X171182658Y-59283082D02*
X171468373Y-59354510D01*
X171468373Y-59354510D02*
X171611230Y-59425939D01*
X171611230Y-59425939D02*
X171682658Y-59497368D01*
X171682658Y-59497368D02*
X171754087Y-59640225D01*
X171754087Y-61068796D02*
X171754087Y-61211653D01*
X171754087Y-61211653D02*
X171682658Y-61354510D01*
X171682658Y-61354510D02*
X171611230Y-61425939D01*
X171611230Y-61425939D02*
X171468373Y-61497367D01*
X171468373Y-61497367D02*
X171182658Y-61568796D01*
X171182658Y-61568796D02*
X170825516Y-61568796D01*
X170825516Y-61568796D02*
X170539801Y-61497367D01*
X170539801Y-61497367D02*
X170396944Y-61425939D01*
X170396944Y-61425939D02*
X170325516Y-61354510D01*
X170325516Y-61354510D02*
X170254087Y-61211653D01*
X170254087Y-61211653D02*
X170254087Y-61068796D01*
X170254087Y-61068796D02*
X170325516Y-60925939D01*
X170325516Y-60925939D02*
X170396944Y-60854510D01*
X170396944Y-60854510D02*
X170539801Y-60783081D01*
X170539801Y-60783081D02*
X170825516Y-60711653D01*
X170825516Y-60711653D02*
X171182658Y-60711653D01*
X171182658Y-60711653D02*
X171468373Y-60783081D01*
X171468373Y-60783081D02*
X171611230Y-60854510D01*
X171611230Y-60854510D02*
X171682658Y-60925939D01*
X171682658Y-60925939D02*
X171754087Y-61068796D01*
X171254087Y-62854510D02*
X170254087Y-62854510D01*
X171825516Y-62497367D02*
X170754087Y-62140224D01*
X170754087Y-62140224D02*
X170754087Y-63068795D01*
X167839171Y-51354510D02*
X169339171Y-51354510D01*
X167839171Y-52211653D02*
X168696314Y-51568796D01*
X169339171Y-52211653D02*
X168482028Y-51354510D01*
X167839171Y-52854510D02*
X168839171Y-52854510D01*
X169339171Y-52854510D02*
X169267742Y-52783082D01*
X169267742Y-52783082D02*
X169196314Y-52854510D01*
X169196314Y-52854510D02*
X169267742Y-52925939D01*
X169267742Y-52925939D02*
X169339171Y-52854510D01*
X169339171Y-52854510D02*
X169196314Y-52854510D01*
X168839171Y-53425939D02*
X167839171Y-53783082D01*
X168839171Y-54140225D02*
X167839171Y-53783082D01*
X167839171Y-53783082D02*
X167482028Y-53640225D01*
X167482028Y-53640225D02*
X167410600Y-53568796D01*
X167410600Y-53568796D02*
X167339171Y-53425939D01*
X168839171Y-55354511D02*
X167839171Y-55354511D01*
X168839171Y-54711653D02*
X168053457Y-54711653D01*
X168053457Y-54711653D02*
X167910600Y-54783082D01*
X167910600Y-54783082D02*
X167839171Y-54925939D01*
X167839171Y-54925939D02*
X167839171Y-55140225D01*
X167839171Y-55140225D02*
X167910600Y-55283082D01*
X167910600Y-55283082D02*
X167982028Y-55354511D01*
X167839171Y-56068796D02*
X168839171Y-56068796D01*
X168553457Y-56068796D02*
X168696314Y-56140225D01*
X168696314Y-56140225D02*
X168767742Y-56211654D01*
X168767742Y-56211654D02*
X168839171Y-56354511D01*
X168839171Y-56354511D02*
X168839171Y-56497368D01*
X167839171Y-57640225D02*
X168624885Y-57640225D01*
X168624885Y-57640225D02*
X168767742Y-57568796D01*
X168767742Y-57568796D02*
X168839171Y-57425939D01*
X168839171Y-57425939D02*
X168839171Y-57140225D01*
X168839171Y-57140225D02*
X168767742Y-56997367D01*
X167910600Y-57640225D02*
X167839171Y-57497367D01*
X167839171Y-57497367D02*
X167839171Y-57140225D01*
X167839171Y-57140225D02*
X167910600Y-56997367D01*
X167910600Y-56997367D02*
X168053457Y-56925939D01*
X168053457Y-56925939D02*
X168196314Y-56925939D01*
X168196314Y-56925939D02*
X168339171Y-56997367D01*
X168339171Y-56997367D02*
X168410600Y-57140225D01*
X168410600Y-57140225D02*
X168410600Y-57497367D01*
X168410600Y-57497367D02*
X168482028Y-57640225D01*
X168839171Y-58354510D02*
X167839171Y-58354510D01*
X168696314Y-58354510D02*
X168767742Y-58425939D01*
X168767742Y-58425939D02*
X168839171Y-58568796D01*
X168839171Y-58568796D02*
X168839171Y-58783082D01*
X168839171Y-58783082D02*
X168767742Y-58925939D01*
X168767742Y-58925939D02*
X168624885Y-58997368D01*
X168624885Y-58997368D02*
X167839171Y-58997368D01*
X167839171Y-60854510D02*
X169339171Y-60854510D01*
X169339171Y-60854510D02*
X167839171Y-61711653D01*
X167839171Y-61711653D02*
X169339171Y-61711653D01*
X167839171Y-63068797D02*
X168624885Y-63068797D01*
X168624885Y-63068797D02*
X168767742Y-62997368D01*
X168767742Y-62997368D02*
X168839171Y-62854511D01*
X168839171Y-62854511D02*
X168839171Y-62568797D01*
X168839171Y-62568797D02*
X168767742Y-62425939D01*
X167910600Y-63068797D02*
X167839171Y-62925939D01*
X167839171Y-62925939D02*
X167839171Y-62568797D01*
X167839171Y-62568797D02*
X167910600Y-62425939D01*
X167910600Y-62425939D02*
X168053457Y-62354511D01*
X168053457Y-62354511D02*
X168196314Y-62354511D01*
X168196314Y-62354511D02*
X168339171Y-62425939D01*
X168339171Y-62425939D02*
X168410600Y-62568797D01*
X168410600Y-62568797D02*
X168410600Y-62925939D01*
X168410600Y-62925939D02*
X168482028Y-63068797D01*
X167839171Y-63783082D02*
X168839171Y-63783082D01*
X169339171Y-63783082D02*
X169267742Y-63711654D01*
X169267742Y-63711654D02*
X169196314Y-63783082D01*
X169196314Y-63783082D02*
X169267742Y-63854511D01*
X169267742Y-63854511D02*
X169339171Y-63783082D01*
X169339171Y-63783082D02*
X169196314Y-63783082D01*
X167839171Y-65140226D02*
X169339171Y-65140226D01*
X167910600Y-65140226D02*
X167839171Y-64997368D01*
X167839171Y-64997368D02*
X167839171Y-64711654D01*
X167839171Y-64711654D02*
X167910600Y-64568797D01*
X167910600Y-64568797D02*
X167982028Y-64497368D01*
X167982028Y-64497368D02*
X168124885Y-64425940D01*
X168124885Y-64425940D02*
X168553457Y-64425940D01*
X168553457Y-64425940D02*
X168696314Y-64497368D01*
X168696314Y-64497368D02*
X168767742Y-64568797D01*
X168767742Y-64568797D02*
X168839171Y-64711654D01*
X168839171Y-64711654D02*
X168839171Y-64997368D01*
X168839171Y-64997368D02*
X168767742Y-65140226D01*
X167839171Y-66068797D02*
X167910600Y-65925940D01*
X167910600Y-65925940D02*
X167982028Y-65854511D01*
X167982028Y-65854511D02*
X168124885Y-65783083D01*
X168124885Y-65783083D02*
X168553457Y-65783083D01*
X168553457Y-65783083D02*
X168696314Y-65854511D01*
X168696314Y-65854511D02*
X168767742Y-65925940D01*
X168767742Y-65925940D02*
X168839171Y-66068797D01*
X168839171Y-66068797D02*
X168839171Y-66283083D01*
X168839171Y-66283083D02*
X168767742Y-66425940D01*
X168767742Y-66425940D02*
X168696314Y-66497369D01*
X168696314Y-66497369D02*
X168553457Y-66568797D01*
X168553457Y-66568797D02*
X168124885Y-66568797D01*
X168124885Y-66568797D02*
X167982028Y-66497369D01*
X167982028Y-66497369D02*
X167910600Y-66425940D01*
X167910600Y-66425940D02*
X167839171Y-66283083D01*
X167839171Y-66283083D02*
X167839171Y-66068797D01*
X167839171Y-67425940D02*
X167910600Y-67283083D01*
X167910600Y-67283083D02*
X167982028Y-67211654D01*
X167982028Y-67211654D02*
X168124885Y-67140226D01*
X168124885Y-67140226D02*
X168553457Y-67140226D01*
X168553457Y-67140226D02*
X168696314Y-67211654D01*
X168696314Y-67211654D02*
X168767742Y-67283083D01*
X168767742Y-67283083D02*
X168839171Y-67425940D01*
X168839171Y-67425940D02*
X168839171Y-67640226D01*
X168839171Y-67640226D02*
X168767742Y-67783083D01*
X168767742Y-67783083D02*
X168696314Y-67854512D01*
X168696314Y-67854512D02*
X168553457Y-67925940D01*
X168553457Y-67925940D02*
X168124885Y-67925940D01*
X168124885Y-67925940D02*
X167982028Y-67854512D01*
X167982028Y-67854512D02*
X167910600Y-67783083D01*
X167910600Y-67783083D02*
X167839171Y-67640226D01*
X167839171Y-67640226D02*
X167839171Y-67425940D01*
D11*
X158334819Y-106518333D02*
X159049104Y-106518333D01*
X159049104Y-106518333D02*
X159191961Y-106565952D01*
X159191961Y-106565952D02*
X159287200Y-106661190D01*
X159287200Y-106661190D02*
X159334819Y-106804047D01*
X159334819Y-106804047D02*
X159334819Y-106899285D01*
X158430057Y-106089761D02*
X158382438Y-106042142D01*
X158382438Y-106042142D02*
X158334819Y-105946904D01*
X158334819Y-105946904D02*
X158334819Y-105708809D01*
X158334819Y-105708809D02*
X158382438Y-105613571D01*
X158382438Y-105613571D02*
X158430057Y-105565952D01*
X158430057Y-105565952D02*
X158525295Y-105518333D01*
X158525295Y-105518333D02*
X158620533Y-105518333D01*
X158620533Y-105518333D02*
X158763390Y-105565952D01*
X158763390Y-105565952D02*
X159334819Y-106137380D01*
X159334819Y-106137380D02*
X159334819Y-105518333D01*
X124862295Y-61579285D02*
X124481342Y-61845952D01*
X124862295Y-62036428D02*
X124062295Y-62036428D01*
X124062295Y-62036428D02*
X124062295Y-61731666D01*
X124062295Y-61731666D02*
X124100390Y-61655476D01*
X124100390Y-61655476D02*
X124138485Y-61617381D01*
X124138485Y-61617381D02*
X124214676Y-61579285D01*
X124214676Y-61579285D02*
X124328961Y-61579285D01*
X124328961Y-61579285D02*
X124405152Y-61617381D01*
X124405152Y-61617381D02*
X124443247Y-61655476D01*
X124443247Y-61655476D02*
X124481342Y-61731666D01*
X124481342Y-61731666D02*
X124481342Y-62036428D01*
X124138485Y-61274524D02*
X124100390Y-61236428D01*
X124100390Y-61236428D02*
X124062295Y-61160238D01*
X124062295Y-61160238D02*
X124062295Y-60969762D01*
X124062295Y-60969762D02*
X124100390Y-60893571D01*
X124100390Y-60893571D02*
X124138485Y-60855476D01*
X124138485Y-60855476D02*
X124214676Y-60817381D01*
X124214676Y-60817381D02*
X124290866Y-60817381D01*
X124290866Y-60817381D02*
X124405152Y-60855476D01*
X124405152Y-60855476D02*
X124862295Y-61312619D01*
X124862295Y-61312619D02*
X124862295Y-60817381D01*
X124062295Y-60322142D02*
X124062295Y-60245952D01*
X124062295Y-60245952D02*
X124100390Y-60169761D01*
X124100390Y-60169761D02*
X124138485Y-60131666D01*
X124138485Y-60131666D02*
X124214676Y-60093571D01*
X124214676Y-60093571D02*
X124367057Y-60055476D01*
X124367057Y-60055476D02*
X124557533Y-60055476D01*
X124557533Y-60055476D02*
X124709914Y-60093571D01*
X124709914Y-60093571D02*
X124786104Y-60131666D01*
X124786104Y-60131666D02*
X124824200Y-60169761D01*
X124824200Y-60169761D02*
X124862295Y-60245952D01*
X124862295Y-60245952D02*
X124862295Y-60322142D01*
X124862295Y-60322142D02*
X124824200Y-60398333D01*
X124824200Y-60398333D02*
X124786104Y-60436428D01*
X124786104Y-60436428D02*
X124709914Y-60474523D01*
X124709914Y-60474523D02*
X124557533Y-60512619D01*
X124557533Y-60512619D02*
X124367057Y-60512619D01*
X124367057Y-60512619D02*
X124214676Y-60474523D01*
X124214676Y-60474523D02*
X124138485Y-60436428D01*
X124138485Y-60436428D02*
X124100390Y-60398333D01*
X124100390Y-60398333D02*
X124062295Y-60322142D01*
X98954819Y-103793333D02*
X99669104Y-103793333D01*
X99669104Y-103793333D02*
X99811961Y-103840952D01*
X99811961Y-103840952D02*
X99907200Y-103936190D01*
X99907200Y-103936190D02*
X99954819Y-104079047D01*
X99954819Y-104079047D02*
X99954819Y-104174285D01*
X99954819Y-103317142D02*
X98954819Y-103317142D01*
X98954819Y-103317142D02*
X98954819Y-102936190D01*
X98954819Y-102936190D02*
X99002438Y-102840952D01*
X99002438Y-102840952D02*
X99050057Y-102793333D01*
X99050057Y-102793333D02*
X99145295Y-102745714D01*
X99145295Y-102745714D02*
X99288152Y-102745714D01*
X99288152Y-102745714D02*
X99383390Y-102793333D01*
X99383390Y-102793333D02*
X99431009Y-102840952D01*
X99431009Y-102840952D02*
X99478628Y-102936190D01*
X99478628Y-102936190D02*
X99478628Y-103317142D01*
X99954819Y-101793333D02*
X99954819Y-102364761D01*
X99954819Y-102079047D02*
X98954819Y-102079047D01*
X98954819Y-102079047D02*
X99097676Y-102174285D01*
X99097676Y-102174285D02*
X99192914Y-102269523D01*
X99192914Y-102269523D02*
X99240533Y-102364761D01*
X114104295Y-66278332D02*
X113723342Y-66544999D01*
X114104295Y-66735475D02*
X113304295Y-66735475D01*
X113304295Y-66735475D02*
X113304295Y-66430713D01*
X113304295Y-66430713D02*
X113342390Y-66354523D01*
X113342390Y-66354523D02*
X113380485Y-66316428D01*
X113380485Y-66316428D02*
X113456676Y-66278332D01*
X113456676Y-66278332D02*
X113570961Y-66278332D01*
X113570961Y-66278332D02*
X113647152Y-66316428D01*
X113647152Y-66316428D02*
X113685247Y-66354523D01*
X113685247Y-66354523D02*
X113723342Y-66430713D01*
X113723342Y-66430713D02*
X113723342Y-66735475D01*
X113380485Y-65973571D02*
X113342390Y-65935475D01*
X113342390Y-65935475D02*
X113304295Y-65859285D01*
X113304295Y-65859285D02*
X113304295Y-65668809D01*
X113304295Y-65668809D02*
X113342390Y-65592618D01*
X113342390Y-65592618D02*
X113380485Y-65554523D01*
X113380485Y-65554523D02*
X113456676Y-65516428D01*
X113456676Y-65516428D02*
X113532866Y-65516428D01*
X113532866Y-65516428D02*
X113647152Y-65554523D01*
X113647152Y-65554523D02*
X114104295Y-66011666D01*
X114104295Y-66011666D02*
X114104295Y-65516428D01*
X147114761Y-77415057D02*
X147019523Y-77367438D01*
X147019523Y-77367438D02*
X146924285Y-77272200D01*
X146924285Y-77272200D02*
X146781428Y-77129342D01*
X146781428Y-77129342D02*
X146686190Y-77081723D01*
X146686190Y-77081723D02*
X146590952Y-77081723D01*
X146638571Y-77319819D02*
X146543333Y-77272200D01*
X146543333Y-77272200D02*
X146448095Y-77176961D01*
X146448095Y-77176961D02*
X146400476Y-76986485D01*
X146400476Y-76986485D02*
X146400476Y-76653152D01*
X146400476Y-76653152D02*
X146448095Y-76462676D01*
X146448095Y-76462676D02*
X146543333Y-76367438D01*
X146543333Y-76367438D02*
X146638571Y-76319819D01*
X146638571Y-76319819D02*
X146829047Y-76319819D01*
X146829047Y-76319819D02*
X146924285Y-76367438D01*
X146924285Y-76367438D02*
X147019523Y-76462676D01*
X147019523Y-76462676D02*
X147067142Y-76653152D01*
X147067142Y-76653152D02*
X147067142Y-76986485D01*
X147067142Y-76986485D02*
X147019523Y-77176961D01*
X147019523Y-77176961D02*
X146924285Y-77272200D01*
X146924285Y-77272200D02*
X146829047Y-77319819D01*
X146829047Y-77319819D02*
X146638571Y-77319819D01*
X148019523Y-77319819D02*
X147448095Y-77319819D01*
X147733809Y-77319819D02*
X147733809Y-76319819D01*
X147733809Y-76319819D02*
X147638571Y-76462676D01*
X147638571Y-76462676D02*
X147543333Y-76557914D01*
X147543333Y-76557914D02*
X147448095Y-76605533D01*
D12*
X122639519Y-66045616D02*
X122658267Y-66064364D01*
X122658267Y-66064364D02*
X122677014Y-66120607D01*
X122677014Y-66120607D02*
X122677014Y-66158102D01*
X122677014Y-66158102D02*
X122658267Y-66214345D01*
X122658267Y-66214345D02*
X122620771Y-66251841D01*
X122620771Y-66251841D02*
X122583276Y-66270588D01*
X122583276Y-66270588D02*
X122508285Y-66289336D01*
X122508285Y-66289336D02*
X122452042Y-66289336D01*
X122452042Y-66289336D02*
X122377052Y-66270588D01*
X122377052Y-66270588D02*
X122339556Y-66251841D01*
X122339556Y-66251841D02*
X122302061Y-66214345D01*
X122302061Y-66214345D02*
X122283313Y-66158102D01*
X122283313Y-66158102D02*
X122283313Y-66120607D01*
X122283313Y-66120607D02*
X122302061Y-66064364D01*
X122302061Y-66064364D02*
X122320809Y-66045616D01*
X122283313Y-65914383D02*
X122283313Y-65670663D01*
X122283313Y-65670663D02*
X122433295Y-65801897D01*
X122433295Y-65801897D02*
X122433295Y-65745654D01*
X122433295Y-65745654D02*
X122452042Y-65708158D01*
X122452042Y-65708158D02*
X122470790Y-65689411D01*
X122470790Y-65689411D02*
X122508285Y-65670663D01*
X122508285Y-65670663D02*
X122602024Y-65670663D01*
X122602024Y-65670663D02*
X122639519Y-65689411D01*
X122639519Y-65689411D02*
X122658267Y-65708158D01*
X122658267Y-65708158D02*
X122677014Y-65745654D01*
X122677014Y-65745654D02*
X122677014Y-65858140D01*
X122677014Y-65858140D02*
X122658267Y-65895635D01*
X122658267Y-65895635D02*
X122639519Y-65914383D01*
D11*
X107203333Y-56690481D02*
X107203333Y-55976196D01*
X107203333Y-55976196D02*
X107250952Y-55833339D01*
X107250952Y-55833339D02*
X107346190Y-55738101D01*
X107346190Y-55738101D02*
X107489047Y-55690481D01*
X107489047Y-55690481D02*
X107584285Y-55690481D01*
X106203333Y-55690481D02*
X106774761Y-55690481D01*
X106489047Y-55690481D02*
X106489047Y-56690481D01*
X106489047Y-56690481D02*
X106584285Y-56547624D01*
X106584285Y-56547624D02*
X106679523Y-56452386D01*
X106679523Y-56452386D02*
X106774761Y-56404767D01*
X112635000Y-59344820D02*
X112635000Y-59582915D01*
X112396905Y-59487677D02*
X112635000Y-59582915D01*
X112635000Y-59582915D02*
X112873095Y-59487677D01*
X112492143Y-59773391D02*
X112635000Y-59582915D01*
X112635000Y-59582915D02*
X112777857Y-59773391D01*
X112634999Y-60435181D02*
X112634999Y-60197086D01*
X112873094Y-60292324D02*
X112634999Y-60197086D01*
X112634999Y-60197086D02*
X112396904Y-60292324D01*
X112777856Y-60006610D02*
X112634999Y-60197086D01*
X112634999Y-60197086D02*
X112492142Y-60006610D01*
D12*
X99414383Y-98639519D02*
X99395635Y-98658267D01*
X99395635Y-98658267D02*
X99339392Y-98677014D01*
X99339392Y-98677014D02*
X99301897Y-98677014D01*
X99301897Y-98677014D02*
X99245654Y-98658267D01*
X99245654Y-98658267D02*
X99208159Y-98620771D01*
X99208159Y-98620771D02*
X99189411Y-98583276D01*
X99189411Y-98583276D02*
X99170663Y-98508285D01*
X99170663Y-98508285D02*
X99170663Y-98452042D01*
X99170663Y-98452042D02*
X99189411Y-98377052D01*
X99189411Y-98377052D02*
X99208159Y-98339556D01*
X99208159Y-98339556D02*
X99245654Y-98302061D01*
X99245654Y-98302061D02*
X99301897Y-98283313D01*
X99301897Y-98283313D02*
X99339392Y-98283313D01*
X99339392Y-98283313D02*
X99395635Y-98302061D01*
X99395635Y-98302061D02*
X99414383Y-98320809D01*
X99789336Y-98677014D02*
X99564364Y-98677014D01*
X99676850Y-98677014D02*
X99676850Y-98283313D01*
X99676850Y-98283313D02*
X99639355Y-98339556D01*
X99639355Y-98339556D02*
X99601860Y-98377052D01*
X99601860Y-98377052D02*
X99564364Y-98395799D01*
D11*
X98601876Y-66879428D02*
X98297114Y-67092762D01*
X98601876Y-67245143D02*
X97961876Y-67245143D01*
X97961876Y-67245143D02*
X97961876Y-67001333D01*
X97961876Y-67001333D02*
X97992352Y-66940381D01*
X97992352Y-66940381D02*
X98022828Y-66909904D01*
X98022828Y-66909904D02*
X98083780Y-66879428D01*
X98083780Y-66879428D02*
X98175209Y-66879428D01*
X98175209Y-66879428D02*
X98236161Y-66909904D01*
X98236161Y-66909904D02*
X98266638Y-66940381D01*
X98266638Y-66940381D02*
X98297114Y-67001333D01*
X98297114Y-67001333D02*
X98297114Y-67245143D01*
X98601876Y-66269904D02*
X98601876Y-66635619D01*
X98601876Y-66452762D02*
X97961876Y-66452762D01*
X97961876Y-66452762D02*
X98053304Y-66513714D01*
X98053304Y-66513714D02*
X98114257Y-66574666D01*
X98114257Y-66574666D02*
X98144733Y-66635619D01*
X97961876Y-65690857D02*
X97961876Y-65995619D01*
X97961876Y-65995619D02*
X98266638Y-66026095D01*
X98266638Y-66026095D02*
X98236161Y-65995619D01*
X98236161Y-65995619D02*
X98205685Y-65934666D01*
X98205685Y-65934666D02*
X98205685Y-65782285D01*
X98205685Y-65782285D02*
X98236161Y-65721333D01*
X98236161Y-65721333D02*
X98266638Y-65690857D01*
X98266638Y-65690857D02*
X98327590Y-65660380D01*
X98327590Y-65660380D02*
X98479971Y-65660380D01*
X98479971Y-65660380D02*
X98540923Y-65690857D01*
X98540923Y-65690857D02*
X98571400Y-65721333D01*
X98571400Y-65721333D02*
X98601876Y-65782285D01*
X98601876Y-65782285D02*
X98601876Y-65934666D01*
X98601876Y-65934666D02*
X98571400Y-65995619D01*
X98571400Y-65995619D02*
X98540923Y-66026095D01*
X129721667Y-68604295D02*
X129455000Y-68223342D01*
X129264524Y-68604295D02*
X129264524Y-67804295D01*
X129264524Y-67804295D02*
X129569286Y-67804295D01*
X129569286Y-67804295D02*
X129645476Y-67842390D01*
X129645476Y-67842390D02*
X129683571Y-67880485D01*
X129683571Y-67880485D02*
X129721667Y-67956676D01*
X129721667Y-67956676D02*
X129721667Y-68070961D01*
X129721667Y-68070961D02*
X129683571Y-68147152D01*
X129683571Y-68147152D02*
X129645476Y-68185247D01*
X129645476Y-68185247D02*
X129569286Y-68223342D01*
X129569286Y-68223342D02*
X129264524Y-68223342D01*
X130178809Y-68147152D02*
X130102619Y-68109057D01*
X130102619Y-68109057D02*
X130064524Y-68070961D01*
X130064524Y-68070961D02*
X130026428Y-67994771D01*
X130026428Y-67994771D02*
X130026428Y-67956676D01*
X130026428Y-67956676D02*
X130064524Y-67880485D01*
X130064524Y-67880485D02*
X130102619Y-67842390D01*
X130102619Y-67842390D02*
X130178809Y-67804295D01*
X130178809Y-67804295D02*
X130331190Y-67804295D01*
X130331190Y-67804295D02*
X130407381Y-67842390D01*
X130407381Y-67842390D02*
X130445476Y-67880485D01*
X130445476Y-67880485D02*
X130483571Y-67956676D01*
X130483571Y-67956676D02*
X130483571Y-67994771D01*
X130483571Y-67994771D02*
X130445476Y-68070961D01*
X130445476Y-68070961D02*
X130407381Y-68109057D01*
X130407381Y-68109057D02*
X130331190Y-68147152D01*
X130331190Y-68147152D02*
X130178809Y-68147152D01*
X130178809Y-68147152D02*
X130102619Y-68185247D01*
X130102619Y-68185247D02*
X130064524Y-68223342D01*
X130064524Y-68223342D02*
X130026428Y-68299533D01*
X130026428Y-68299533D02*
X130026428Y-68451914D01*
X130026428Y-68451914D02*
X130064524Y-68528104D01*
X130064524Y-68528104D02*
X130102619Y-68566200D01*
X130102619Y-68566200D02*
X130178809Y-68604295D01*
X130178809Y-68604295D02*
X130331190Y-68604295D01*
X130331190Y-68604295D02*
X130407381Y-68566200D01*
X130407381Y-68566200D02*
X130445476Y-68528104D01*
X130445476Y-68528104D02*
X130483571Y-68451914D01*
X130483571Y-68451914D02*
X130483571Y-68299533D01*
X130483571Y-68299533D02*
X130445476Y-68223342D01*
X130445476Y-68223342D02*
X130407381Y-68185247D01*
X130407381Y-68185247D02*
X130331190Y-68147152D01*
X163309046Y-98594057D02*
X163213808Y-98546438D01*
X163213808Y-98546438D02*
X163118570Y-98451200D01*
X163118570Y-98451200D02*
X162975713Y-98308342D01*
X162975713Y-98308342D02*
X162880475Y-98260723D01*
X162880475Y-98260723D02*
X162785237Y-98260723D01*
X162832856Y-98498819D02*
X162737618Y-98451200D01*
X162737618Y-98451200D02*
X162642380Y-98355961D01*
X162642380Y-98355961D02*
X162594761Y-98165485D01*
X162594761Y-98165485D02*
X162594761Y-97832152D01*
X162594761Y-97832152D02*
X162642380Y-97641676D01*
X162642380Y-97641676D02*
X162737618Y-97546438D01*
X162737618Y-97546438D02*
X162832856Y-97498819D01*
X162832856Y-97498819D02*
X163023332Y-97498819D01*
X163023332Y-97498819D02*
X163118570Y-97546438D01*
X163118570Y-97546438D02*
X163213808Y-97641676D01*
X163213808Y-97641676D02*
X163261427Y-97832152D01*
X163261427Y-97832152D02*
X163261427Y-98165485D01*
X163261427Y-98165485D02*
X163213808Y-98355961D01*
X163213808Y-98355961D02*
X163118570Y-98451200D01*
X163118570Y-98451200D02*
X163023332Y-98498819D01*
X163023332Y-98498819D02*
X162832856Y-98498819D01*
X163975713Y-98879771D02*
X163928094Y-98832152D01*
X163928094Y-98832152D02*
X163832856Y-98689295D01*
X163832856Y-98689295D02*
X163785237Y-98594057D01*
X163785237Y-98594057D02*
X163737618Y-98451200D01*
X163737618Y-98451200D02*
X163689999Y-98213104D01*
X163689999Y-98213104D02*
X163689999Y-98022628D01*
X163689999Y-98022628D02*
X163737618Y-97784533D01*
X163737618Y-97784533D02*
X163785237Y-97641676D01*
X163785237Y-97641676D02*
X163832856Y-97546438D01*
X163832856Y-97546438D02*
X163928094Y-97403580D01*
X163928094Y-97403580D02*
X163975713Y-97355961D01*
X164309047Y-98451200D02*
X164451904Y-98498819D01*
X164451904Y-98498819D02*
X164689999Y-98498819D01*
X164689999Y-98498819D02*
X164785237Y-98451200D01*
X164785237Y-98451200D02*
X164832856Y-98403580D01*
X164832856Y-98403580D02*
X164880475Y-98308342D01*
X164880475Y-98308342D02*
X164880475Y-98213104D01*
X164880475Y-98213104D02*
X164832856Y-98117866D01*
X164832856Y-98117866D02*
X164785237Y-98070247D01*
X164785237Y-98070247D02*
X164689999Y-98022628D01*
X164689999Y-98022628D02*
X164499523Y-97975009D01*
X164499523Y-97975009D02*
X164404285Y-97927390D01*
X164404285Y-97927390D02*
X164356666Y-97879771D01*
X164356666Y-97879771D02*
X164309047Y-97784533D01*
X164309047Y-97784533D02*
X164309047Y-97689295D01*
X164309047Y-97689295D02*
X164356666Y-97594057D01*
X164356666Y-97594057D02*
X164404285Y-97546438D01*
X164404285Y-97546438D02*
X164499523Y-97498819D01*
X164499523Y-97498819D02*
X164737618Y-97498819D01*
X164737618Y-97498819D02*
X164880475Y-97546438D01*
X165309047Y-98498819D02*
X165309047Y-97498819D01*
X165737618Y-97594057D02*
X165785237Y-97546438D01*
X165785237Y-97546438D02*
X165880475Y-97498819D01*
X165880475Y-97498819D02*
X166118570Y-97498819D01*
X166118570Y-97498819D02*
X166213808Y-97546438D01*
X166213808Y-97546438D02*
X166261427Y-97594057D01*
X166261427Y-97594057D02*
X166309046Y-97689295D01*
X166309046Y-97689295D02*
X166309046Y-97784533D01*
X166309046Y-97784533D02*
X166261427Y-97927390D01*
X166261427Y-97927390D02*
X165689999Y-98498819D01*
X165689999Y-98498819D02*
X166309046Y-98498819D01*
X166642380Y-97498819D02*
X167261427Y-97498819D01*
X167261427Y-97498819D02*
X166928094Y-97879771D01*
X166928094Y-97879771D02*
X167070951Y-97879771D01*
X167070951Y-97879771D02*
X167166189Y-97927390D01*
X167166189Y-97927390D02*
X167213808Y-97975009D01*
X167213808Y-97975009D02*
X167261427Y-98070247D01*
X167261427Y-98070247D02*
X167261427Y-98308342D01*
X167261427Y-98308342D02*
X167213808Y-98403580D01*
X167213808Y-98403580D02*
X167166189Y-98451200D01*
X167166189Y-98451200D02*
X167070951Y-98498819D01*
X167070951Y-98498819D02*
X166785237Y-98498819D01*
X166785237Y-98498819D02*
X166689999Y-98451200D01*
X166689999Y-98451200D02*
X166642380Y-98403580D01*
X167880475Y-97498819D02*
X167975713Y-97498819D01*
X167975713Y-97498819D02*
X168070951Y-97546438D01*
X168070951Y-97546438D02*
X168118570Y-97594057D01*
X168118570Y-97594057D02*
X168166189Y-97689295D01*
X168166189Y-97689295D02*
X168213808Y-97879771D01*
X168213808Y-97879771D02*
X168213808Y-98117866D01*
X168213808Y-98117866D02*
X168166189Y-98308342D01*
X168166189Y-98308342D02*
X168118570Y-98403580D01*
X168118570Y-98403580D02*
X168070951Y-98451200D01*
X168070951Y-98451200D02*
X167975713Y-98498819D01*
X167975713Y-98498819D02*
X167880475Y-98498819D01*
X167880475Y-98498819D02*
X167785237Y-98451200D01*
X167785237Y-98451200D02*
X167737618Y-98403580D01*
X167737618Y-98403580D02*
X167689999Y-98308342D01*
X167689999Y-98308342D02*
X167642380Y-98117866D01*
X167642380Y-98117866D02*
X167642380Y-97879771D01*
X167642380Y-97879771D02*
X167689999Y-97689295D01*
X167689999Y-97689295D02*
X167737618Y-97594057D01*
X167737618Y-97594057D02*
X167785237Y-97546438D01*
X167785237Y-97546438D02*
X167880475Y-97498819D01*
X169166189Y-98498819D02*
X168594761Y-98498819D01*
X168880475Y-98498819D02*
X168880475Y-97498819D01*
X168880475Y-97498819D02*
X168785237Y-97641676D01*
X168785237Y-97641676D02*
X168689999Y-97736914D01*
X168689999Y-97736914D02*
X168594761Y-97784533D01*
X169499523Y-98879771D02*
X169547142Y-98832152D01*
X169547142Y-98832152D02*
X169642380Y-98689295D01*
X169642380Y-98689295D02*
X169689999Y-98594057D01*
X169689999Y-98594057D02*
X169737618Y-98451200D01*
X169737618Y-98451200D02*
X169785237Y-98213104D01*
X169785237Y-98213104D02*
X169785237Y-98022628D01*
X169785237Y-98022628D02*
X169737618Y-97784533D01*
X169737618Y-97784533D02*
X169689999Y-97641676D01*
X169689999Y-97641676D02*
X169642380Y-97546438D01*
X169642380Y-97546438D02*
X169547142Y-97403580D01*
X169547142Y-97403580D02*
X169499523Y-97355961D01*
X170213809Y-97594057D02*
X170261428Y-97546438D01*
X170261428Y-97546438D02*
X170356666Y-97498819D01*
X170356666Y-97498819D02*
X170594761Y-97498819D01*
X170594761Y-97498819D02*
X170689999Y-97546438D01*
X170689999Y-97546438D02*
X170737618Y-97594057D01*
X170737618Y-97594057D02*
X170785237Y-97689295D01*
X170785237Y-97689295D02*
X170785237Y-97784533D01*
X170785237Y-97784533D02*
X170737618Y-97927390D01*
X170737618Y-97927390D02*
X170166190Y-98498819D01*
X170166190Y-98498819D02*
X170785237Y-98498819D01*
X144566571Y-85194676D02*
X144353237Y-84889914D01*
X144200856Y-85194676D02*
X144200856Y-84554676D01*
X144200856Y-84554676D02*
X144444666Y-84554676D01*
X144444666Y-84554676D02*
X144505618Y-84585152D01*
X144505618Y-84585152D02*
X144536095Y-84615628D01*
X144536095Y-84615628D02*
X144566571Y-84676580D01*
X144566571Y-84676580D02*
X144566571Y-84768009D01*
X144566571Y-84768009D02*
X144536095Y-84828961D01*
X144536095Y-84828961D02*
X144505618Y-84859438D01*
X144505618Y-84859438D02*
X144444666Y-84889914D01*
X144444666Y-84889914D02*
X144200856Y-84889914D01*
X145176095Y-85194676D02*
X144810380Y-85194676D01*
X144993237Y-85194676D02*
X144993237Y-84554676D01*
X144993237Y-84554676D02*
X144932285Y-84646104D01*
X144932285Y-84646104D02*
X144871333Y-84707057D01*
X144871333Y-84707057D02*
X144810380Y-84737533D01*
X145572285Y-84554676D02*
X145633238Y-84554676D01*
X145633238Y-84554676D02*
X145694190Y-84585152D01*
X145694190Y-84585152D02*
X145724666Y-84615628D01*
X145724666Y-84615628D02*
X145755142Y-84676580D01*
X145755142Y-84676580D02*
X145785619Y-84798485D01*
X145785619Y-84798485D02*
X145785619Y-84950866D01*
X145785619Y-84950866D02*
X145755142Y-85072771D01*
X145755142Y-85072771D02*
X145724666Y-85133723D01*
X145724666Y-85133723D02*
X145694190Y-85164200D01*
X145694190Y-85164200D02*
X145633238Y-85194676D01*
X145633238Y-85194676D02*
X145572285Y-85194676D01*
X145572285Y-85194676D02*
X145511333Y-85164200D01*
X145511333Y-85164200D02*
X145480857Y-85133723D01*
X145480857Y-85133723D02*
X145450380Y-85072771D01*
X145450380Y-85072771D02*
X145419904Y-84950866D01*
X145419904Y-84950866D02*
X145419904Y-84798485D01*
X145419904Y-84798485D02*
X145450380Y-84676580D01*
X145450380Y-84676580D02*
X145480857Y-84615628D01*
X145480857Y-84615628D02*
X145511333Y-84585152D01*
X145511333Y-84585152D02*
X145572285Y-84554676D01*
D13*
X156807485Y-79848614D02*
X156819002Y-79860131D01*
X156819002Y-79860131D02*
X156830518Y-79894681D01*
X156830518Y-79894681D02*
X156830518Y-79917715D01*
X156830518Y-79917715D02*
X156819002Y-79952266D01*
X156819002Y-79952266D02*
X156795968Y-79975299D01*
X156795968Y-79975299D02*
X156772934Y-79986816D01*
X156772934Y-79986816D02*
X156726867Y-79998333D01*
X156726867Y-79998333D02*
X156692316Y-79998333D01*
X156692316Y-79998333D02*
X156646249Y-79986816D01*
X156646249Y-79986816D02*
X156623215Y-79975299D01*
X156623215Y-79975299D02*
X156600181Y-79952266D01*
X156600181Y-79952266D02*
X156588664Y-79917715D01*
X156588664Y-79917715D02*
X156588664Y-79894681D01*
X156588664Y-79894681D02*
X156600181Y-79860131D01*
X156600181Y-79860131D02*
X156611698Y-79848614D01*
X156692316Y-79710412D02*
X156680799Y-79733445D01*
X156680799Y-79733445D02*
X156669282Y-79744962D01*
X156669282Y-79744962D02*
X156646249Y-79756479D01*
X156646249Y-79756479D02*
X156634732Y-79756479D01*
X156634732Y-79756479D02*
X156611698Y-79744962D01*
X156611698Y-79744962D02*
X156600181Y-79733445D01*
X156600181Y-79733445D02*
X156588664Y-79710412D01*
X156588664Y-79710412D02*
X156588664Y-79664344D01*
X156588664Y-79664344D02*
X156600181Y-79641311D01*
X156600181Y-79641311D02*
X156611698Y-79629794D01*
X156611698Y-79629794D02*
X156634732Y-79618277D01*
X156634732Y-79618277D02*
X156646249Y-79618277D01*
X156646249Y-79618277D02*
X156669282Y-79629794D01*
X156669282Y-79629794D02*
X156680799Y-79641311D01*
X156680799Y-79641311D02*
X156692316Y-79664344D01*
X156692316Y-79664344D02*
X156692316Y-79710412D01*
X156692316Y-79710412D02*
X156703833Y-79733445D01*
X156703833Y-79733445D02*
X156715350Y-79744962D01*
X156715350Y-79744962D02*
X156738384Y-79756479D01*
X156738384Y-79756479D02*
X156784451Y-79756479D01*
X156784451Y-79756479D02*
X156807485Y-79744962D01*
X156807485Y-79744962D02*
X156819002Y-79733445D01*
X156819002Y-79733445D02*
X156830518Y-79710412D01*
X156830518Y-79710412D02*
X156830518Y-79664344D01*
X156830518Y-79664344D02*
X156819002Y-79641311D01*
X156819002Y-79641311D02*
X156807485Y-79629794D01*
X156807485Y-79629794D02*
X156784451Y-79618277D01*
X156784451Y-79618277D02*
X156738384Y-79618277D01*
X156738384Y-79618277D02*
X156715350Y-79629794D01*
X156715350Y-79629794D02*
X156703833Y-79641311D01*
X156703833Y-79641311D02*
X156692316Y-79664344D01*
D11*
X110638095Y-101934819D02*
X110638095Y-102744342D01*
X110638095Y-102744342D02*
X110685714Y-102839580D01*
X110685714Y-102839580D02*
X110733333Y-102887200D01*
X110733333Y-102887200D02*
X110828571Y-102934819D01*
X110828571Y-102934819D02*
X111019047Y-102934819D01*
X111019047Y-102934819D02*
X111114285Y-102887200D01*
X111114285Y-102887200D02*
X111161904Y-102839580D01*
X111161904Y-102839580D02*
X111209523Y-102744342D01*
X111209523Y-102744342D02*
X111209523Y-101934819D01*
X112209523Y-102934819D02*
X111638095Y-102934819D01*
X111923809Y-102934819D02*
X111923809Y-101934819D01*
X111923809Y-101934819D02*
X111828571Y-102077676D01*
X111828571Y-102077676D02*
X111733333Y-102172914D01*
X111733333Y-102172914D02*
X111638095Y-102220533D01*
X101241666Y-74059819D02*
X101241666Y-74774104D01*
X101241666Y-74774104D02*
X101194047Y-74916961D01*
X101194047Y-74916961D02*
X101098809Y-75012200D01*
X101098809Y-75012200D02*
X100955952Y-75059819D01*
X100955952Y-75059819D02*
X100860714Y-75059819D01*
X101622619Y-74059819D02*
X102241666Y-74059819D01*
X102241666Y-74059819D02*
X101908333Y-74440771D01*
X101908333Y-74440771D02*
X102051190Y-74440771D01*
X102051190Y-74440771D02*
X102146428Y-74488390D01*
X102146428Y-74488390D02*
X102194047Y-74536009D01*
X102194047Y-74536009D02*
X102241666Y-74631247D01*
X102241666Y-74631247D02*
X102241666Y-74869342D01*
X102241666Y-74869342D02*
X102194047Y-74964580D01*
X102194047Y-74964580D02*
X102146428Y-75012200D01*
X102146428Y-75012200D02*
X102051190Y-75059819D01*
X102051190Y-75059819D02*
X101765476Y-75059819D01*
X101765476Y-75059819D02*
X101670238Y-75012200D01*
X101670238Y-75012200D02*
X101622619Y-74964580D01*
D12*
X139829519Y-96352816D02*
X139848267Y-96371564D01*
X139848267Y-96371564D02*
X139867014Y-96427807D01*
X139867014Y-96427807D02*
X139867014Y-96465302D01*
X139867014Y-96465302D02*
X139848267Y-96521545D01*
X139848267Y-96521545D02*
X139810771Y-96559041D01*
X139810771Y-96559041D02*
X139773276Y-96577788D01*
X139773276Y-96577788D02*
X139698285Y-96596536D01*
X139698285Y-96596536D02*
X139642042Y-96596536D01*
X139642042Y-96596536D02*
X139567052Y-96577788D01*
X139567052Y-96577788D02*
X139529556Y-96559041D01*
X139529556Y-96559041D02*
X139492061Y-96521545D01*
X139492061Y-96521545D02*
X139473313Y-96465302D01*
X139473313Y-96465302D02*
X139473313Y-96427807D01*
X139473313Y-96427807D02*
X139492061Y-96371564D01*
X139492061Y-96371564D02*
X139510809Y-96352816D01*
X139473313Y-95996611D02*
X139473313Y-96184087D01*
X139473313Y-96184087D02*
X139660790Y-96202835D01*
X139660790Y-96202835D02*
X139642042Y-96184087D01*
X139642042Y-96184087D02*
X139623295Y-96146592D01*
X139623295Y-96146592D02*
X139623295Y-96052854D01*
X139623295Y-96052854D02*
X139642042Y-96015358D01*
X139642042Y-96015358D02*
X139660790Y-95996611D01*
X139660790Y-95996611D02*
X139698285Y-95977863D01*
X139698285Y-95977863D02*
X139792024Y-95977863D01*
X139792024Y-95977863D02*
X139829519Y-95996611D01*
X139829519Y-95996611D02*
X139848267Y-96015358D01*
X139848267Y-96015358D02*
X139867014Y-96052854D01*
X139867014Y-96052854D02*
X139867014Y-96146592D01*
X139867014Y-96146592D02*
X139848267Y-96184087D01*
X139848267Y-96184087D02*
X139829519Y-96202835D01*
D11*
X110423333Y-85729819D02*
X110090000Y-85253628D01*
X109851905Y-85729819D02*
X109851905Y-84729819D01*
X109851905Y-84729819D02*
X110232857Y-84729819D01*
X110232857Y-84729819D02*
X110328095Y-84777438D01*
X110328095Y-84777438D02*
X110375714Y-84825057D01*
X110375714Y-84825057D02*
X110423333Y-84920295D01*
X110423333Y-84920295D02*
X110423333Y-85063152D01*
X110423333Y-85063152D02*
X110375714Y-85158390D01*
X110375714Y-85158390D02*
X110328095Y-85206009D01*
X110328095Y-85206009D02*
X110232857Y-85253628D01*
X110232857Y-85253628D02*
X109851905Y-85253628D01*
X111375714Y-85729819D02*
X110804286Y-85729819D01*
X111090000Y-85729819D02*
X111090000Y-84729819D01*
X111090000Y-84729819D02*
X110994762Y-84872676D01*
X110994762Y-84872676D02*
X110899524Y-84967914D01*
X110899524Y-84967914D02*
X110804286Y-85015533D01*
X122930295Y-80598332D02*
X122549342Y-80864999D01*
X122930295Y-81055475D02*
X122130295Y-81055475D01*
X122130295Y-81055475D02*
X122130295Y-80750713D01*
X122130295Y-80750713D02*
X122168390Y-80674523D01*
X122168390Y-80674523D02*
X122206485Y-80636428D01*
X122206485Y-80636428D02*
X122282676Y-80598332D01*
X122282676Y-80598332D02*
X122396961Y-80598332D01*
X122396961Y-80598332D02*
X122473152Y-80636428D01*
X122473152Y-80636428D02*
X122511247Y-80674523D01*
X122511247Y-80674523D02*
X122549342Y-80750713D01*
X122549342Y-80750713D02*
X122549342Y-81055475D01*
X122130295Y-80331666D02*
X122130295Y-79798332D01*
X122130295Y-79798332D02*
X122930295Y-80141190D01*
X131268710Y-91463080D02*
X131268710Y-92274101D01*
X131268710Y-92274101D02*
X131316417Y-92369515D01*
X131316417Y-92369515D02*
X131364125Y-92417223D01*
X131364125Y-92417223D02*
X131459539Y-92464930D01*
X131459539Y-92464930D02*
X131650367Y-92464930D01*
X131650367Y-92464930D02*
X131745782Y-92417223D01*
X131745782Y-92417223D02*
X131793489Y-92369515D01*
X131793489Y-92369515D02*
X131841196Y-92274101D01*
X131841196Y-92274101D02*
X131841196Y-91463080D01*
X132747632Y-91797030D02*
X132747632Y-92464930D01*
X132509096Y-91415373D02*
X132270560Y-92130980D01*
X132270560Y-92130980D02*
X132890753Y-92130980D01*
X113376667Y-98640295D02*
X113110000Y-98259342D01*
X112919524Y-98640295D02*
X112919524Y-97840295D01*
X112919524Y-97840295D02*
X113224286Y-97840295D01*
X113224286Y-97840295D02*
X113300476Y-97878390D01*
X113300476Y-97878390D02*
X113338571Y-97916485D01*
X113338571Y-97916485D02*
X113376667Y-97992676D01*
X113376667Y-97992676D02*
X113376667Y-98106961D01*
X113376667Y-98106961D02*
X113338571Y-98183152D01*
X113338571Y-98183152D02*
X113300476Y-98221247D01*
X113300476Y-98221247D02*
X113224286Y-98259342D01*
X113224286Y-98259342D02*
X112919524Y-98259342D01*
X113643333Y-97840295D02*
X114138571Y-97840295D01*
X114138571Y-97840295D02*
X113871905Y-98145057D01*
X113871905Y-98145057D02*
X113986190Y-98145057D01*
X113986190Y-98145057D02*
X114062381Y-98183152D01*
X114062381Y-98183152D02*
X114100476Y-98221247D01*
X114100476Y-98221247D02*
X114138571Y-98297438D01*
X114138571Y-98297438D02*
X114138571Y-98487914D01*
X114138571Y-98487914D02*
X114100476Y-98564104D01*
X114100476Y-98564104D02*
X114062381Y-98602200D01*
X114062381Y-98602200D02*
X113986190Y-98640295D01*
X113986190Y-98640295D02*
X113757619Y-98640295D01*
X113757619Y-98640295D02*
X113681428Y-98602200D01*
X113681428Y-98602200D02*
X113643333Y-98564104D01*
X136738095Y-75654819D02*
X137357142Y-75654819D01*
X137357142Y-75654819D02*
X137023809Y-76035771D01*
X137023809Y-76035771D02*
X137166666Y-76035771D01*
X137166666Y-76035771D02*
X137261904Y-76083390D01*
X137261904Y-76083390D02*
X137309523Y-76131009D01*
X137309523Y-76131009D02*
X137357142Y-76226247D01*
X137357142Y-76226247D02*
X137357142Y-76464342D01*
X137357142Y-76464342D02*
X137309523Y-76559580D01*
X137309523Y-76559580D02*
X137261904Y-76607200D01*
X137261904Y-76607200D02*
X137166666Y-76654819D01*
X137166666Y-76654819D02*
X136880952Y-76654819D01*
X136880952Y-76654819D02*
X136785714Y-76607200D01*
X136785714Y-76607200D02*
X136738095Y-76559580D01*
X137642857Y-75654819D02*
X137976190Y-76654819D01*
X137976190Y-76654819D02*
X138309523Y-75654819D01*
X107534761Y-102150057D02*
X107439523Y-102102438D01*
X107439523Y-102102438D02*
X107344285Y-102007200D01*
X107344285Y-102007200D02*
X107201428Y-101864342D01*
X107201428Y-101864342D02*
X107106190Y-101816723D01*
X107106190Y-101816723D02*
X107010952Y-101816723D01*
X107058571Y-102054819D02*
X106963333Y-102007200D01*
X106963333Y-102007200D02*
X106868095Y-101911961D01*
X106868095Y-101911961D02*
X106820476Y-101721485D01*
X106820476Y-101721485D02*
X106820476Y-101388152D01*
X106820476Y-101388152D02*
X106868095Y-101197676D01*
X106868095Y-101197676D02*
X106963333Y-101102438D01*
X106963333Y-101102438D02*
X107058571Y-101054819D01*
X107058571Y-101054819D02*
X107249047Y-101054819D01*
X107249047Y-101054819D02*
X107344285Y-101102438D01*
X107344285Y-101102438D02*
X107439523Y-101197676D01*
X107439523Y-101197676D02*
X107487142Y-101388152D01*
X107487142Y-101388152D02*
X107487142Y-101721485D01*
X107487142Y-101721485D02*
X107439523Y-101911961D01*
X107439523Y-101911961D02*
X107344285Y-102007200D01*
X107344285Y-102007200D02*
X107249047Y-102054819D01*
X107249047Y-102054819D02*
X107058571Y-102054819D01*
X107868095Y-101150057D02*
X107915714Y-101102438D01*
X107915714Y-101102438D02*
X108010952Y-101054819D01*
X108010952Y-101054819D02*
X108249047Y-101054819D01*
X108249047Y-101054819D02*
X108344285Y-101102438D01*
X108344285Y-101102438D02*
X108391904Y-101150057D01*
X108391904Y-101150057D02*
X108439523Y-101245295D01*
X108439523Y-101245295D02*
X108439523Y-101340533D01*
X108439523Y-101340533D02*
X108391904Y-101483390D01*
X108391904Y-101483390D02*
X107820476Y-102054819D01*
X107820476Y-102054819D02*
X108439523Y-102054819D01*
X115076940Y-59060040D02*
X115076940Y-58351379D01*
X115076940Y-58351379D02*
X115245669Y-58351379D01*
X115245669Y-58351379D02*
X115346906Y-58385125D01*
X115346906Y-58385125D02*
X115414398Y-58452617D01*
X115414398Y-58452617D02*
X115448144Y-58520108D01*
X115448144Y-58520108D02*
X115481889Y-58655091D01*
X115481889Y-58655091D02*
X115481889Y-58756328D01*
X115481889Y-58756328D02*
X115448144Y-58891311D01*
X115448144Y-58891311D02*
X115414398Y-58958803D01*
X115414398Y-58958803D02*
X115346906Y-59026295D01*
X115346906Y-59026295D02*
X115245669Y-59060040D01*
X115245669Y-59060040D02*
X115076940Y-59060040D01*
X116156805Y-59060040D02*
X115751856Y-59060040D01*
X115954330Y-59060040D02*
X115954330Y-58351379D01*
X115954330Y-58351379D02*
X115886839Y-58452617D01*
X115886839Y-58452617D02*
X115819347Y-58520108D01*
X115819347Y-58520108D02*
X115751856Y-58553854D01*
X165424348Y-73800510D02*
X165424348Y-74449327D01*
X165424348Y-74449327D02*
X165462514Y-74525659D01*
X165462514Y-74525659D02*
X165500680Y-74563825D01*
X165500680Y-74563825D02*
X165577011Y-74601990D01*
X165577011Y-74601990D02*
X165729674Y-74601990D01*
X165729674Y-74601990D02*
X165806005Y-74563825D01*
X165806005Y-74563825D02*
X165844171Y-74525659D01*
X165844171Y-74525659D02*
X165882337Y-74449327D01*
X165882337Y-74449327D02*
X165882337Y-73800510D01*
X166645651Y-73800510D02*
X166263994Y-73800510D01*
X166263994Y-73800510D02*
X166225828Y-74182167D01*
X166225828Y-74182167D02*
X166263994Y-74144002D01*
X166263994Y-74144002D02*
X166340326Y-74105836D01*
X166340326Y-74105836D02*
X166531154Y-74105836D01*
X166531154Y-74105836D02*
X166607486Y-74144002D01*
X166607486Y-74144002D02*
X166645651Y-74182167D01*
X166645651Y-74182167D02*
X166683817Y-74258499D01*
X166683817Y-74258499D02*
X166683817Y-74449327D01*
X166683817Y-74449327D02*
X166645651Y-74525659D01*
X166645651Y-74525659D02*
X166607486Y-74563825D01*
X166607486Y-74563825D02*
X166531154Y-74601990D01*
X166531154Y-74601990D02*
X166340326Y-74601990D01*
X166340326Y-74601990D02*
X166263994Y-74563825D01*
X166263994Y-74563825D02*
X166225828Y-74525659D01*
X152209660Y-102279570D02*
X152209660Y-103090591D01*
X152209660Y-103090591D02*
X152257367Y-103186005D01*
X152257367Y-103186005D02*
X152305075Y-103233713D01*
X152305075Y-103233713D02*
X152400489Y-103281420D01*
X152400489Y-103281420D02*
X152591317Y-103281420D01*
X152591317Y-103281420D02*
X152686732Y-103233713D01*
X152686732Y-103233713D02*
X152734439Y-103186005D01*
X152734439Y-103186005D02*
X152782146Y-103090591D01*
X152782146Y-103090591D02*
X152782146Y-102279570D01*
X153163803Y-102279570D02*
X153783996Y-102279570D01*
X153783996Y-102279570D02*
X153450046Y-102661227D01*
X153450046Y-102661227D02*
X153593167Y-102661227D01*
X153593167Y-102661227D02*
X153688582Y-102708934D01*
X153688582Y-102708934D02*
X153736289Y-102756641D01*
X153736289Y-102756641D02*
X153783996Y-102852055D01*
X153783996Y-102852055D02*
X153783996Y-103090591D01*
X153783996Y-103090591D02*
X153736289Y-103186005D01*
X153736289Y-103186005D02*
X153688582Y-103233713D01*
X153688582Y-103233713D02*
X153593167Y-103281420D01*
X153593167Y-103281420D02*
X153306924Y-103281420D01*
X153306924Y-103281420D02*
X153211510Y-103233713D01*
X153211510Y-103233713D02*
X153163803Y-103186005D01*
X169730714Y-85222295D02*
X169464047Y-84841342D01*
X169273571Y-85222295D02*
X169273571Y-84422295D01*
X169273571Y-84422295D02*
X169578333Y-84422295D01*
X169578333Y-84422295D02*
X169654523Y-84460390D01*
X169654523Y-84460390D02*
X169692618Y-84498485D01*
X169692618Y-84498485D02*
X169730714Y-84574676D01*
X169730714Y-84574676D02*
X169730714Y-84688961D01*
X169730714Y-84688961D02*
X169692618Y-84765152D01*
X169692618Y-84765152D02*
X169654523Y-84803247D01*
X169654523Y-84803247D02*
X169578333Y-84841342D01*
X169578333Y-84841342D02*
X169273571Y-84841342D01*
X170492618Y-85222295D02*
X170035475Y-85222295D01*
X170264047Y-85222295D02*
X170264047Y-84422295D01*
X170264047Y-84422295D02*
X170187856Y-84536580D01*
X170187856Y-84536580D02*
X170111666Y-84612771D01*
X170111666Y-84612771D02*
X170035475Y-84650866D01*
X170759285Y-84422295D02*
X171254523Y-84422295D01*
X171254523Y-84422295D02*
X170987857Y-84727057D01*
X170987857Y-84727057D02*
X171102142Y-84727057D01*
X171102142Y-84727057D02*
X171178333Y-84765152D01*
X171178333Y-84765152D02*
X171216428Y-84803247D01*
X171216428Y-84803247D02*
X171254523Y-84879438D01*
X171254523Y-84879438D02*
X171254523Y-85069914D01*
X171254523Y-85069914D02*
X171216428Y-85146104D01*
X171216428Y-85146104D02*
X171178333Y-85184200D01*
X171178333Y-85184200D02*
X171102142Y-85222295D01*
X171102142Y-85222295D02*
X170873571Y-85222295D01*
X170873571Y-85222295D02*
X170797380Y-85184200D01*
X170797380Y-85184200D02*
X170759285Y-85146104D01*
X128193095Y-85764819D02*
X128193095Y-86574342D01*
X128193095Y-86574342D02*
X128240714Y-86669580D01*
X128240714Y-86669580D02*
X128288333Y-86717200D01*
X128288333Y-86717200D02*
X128383571Y-86764819D01*
X128383571Y-86764819D02*
X128574047Y-86764819D01*
X128574047Y-86764819D02*
X128669285Y-86717200D01*
X128669285Y-86717200D02*
X128716904Y-86669580D01*
X128716904Y-86669580D02*
X128764523Y-86574342D01*
X128764523Y-86574342D02*
X128764523Y-85764819D01*
X129193095Y-85860057D02*
X129240714Y-85812438D01*
X129240714Y-85812438D02*
X129335952Y-85764819D01*
X129335952Y-85764819D02*
X129574047Y-85764819D01*
X129574047Y-85764819D02*
X129669285Y-85812438D01*
X129669285Y-85812438D02*
X129716904Y-85860057D01*
X129716904Y-85860057D02*
X129764523Y-85955295D01*
X129764523Y-85955295D02*
X129764523Y-86050533D01*
X129764523Y-86050533D02*
X129716904Y-86193390D01*
X129716904Y-86193390D02*
X129145476Y-86764819D01*
X129145476Y-86764819D02*
X129764523Y-86764819D01*
X145924295Y-65764285D02*
X145543342Y-66030952D01*
X145924295Y-66221428D02*
X145124295Y-66221428D01*
X145124295Y-66221428D02*
X145124295Y-65916666D01*
X145124295Y-65916666D02*
X145162390Y-65840476D01*
X145162390Y-65840476D02*
X145200485Y-65802381D01*
X145200485Y-65802381D02*
X145276676Y-65764285D01*
X145276676Y-65764285D02*
X145390961Y-65764285D01*
X145390961Y-65764285D02*
X145467152Y-65802381D01*
X145467152Y-65802381D02*
X145505247Y-65840476D01*
X145505247Y-65840476D02*
X145543342Y-65916666D01*
X145543342Y-65916666D02*
X145543342Y-66221428D01*
X145924295Y-65002381D02*
X145924295Y-65459524D01*
X145924295Y-65230952D02*
X145124295Y-65230952D01*
X145124295Y-65230952D02*
X145238580Y-65307143D01*
X145238580Y-65307143D02*
X145314771Y-65383333D01*
X145314771Y-65383333D02*
X145352866Y-65459524D01*
X145924295Y-64621428D02*
X145924295Y-64469047D01*
X145924295Y-64469047D02*
X145886200Y-64392857D01*
X145886200Y-64392857D02*
X145848104Y-64354761D01*
X145848104Y-64354761D02*
X145733819Y-64278571D01*
X145733819Y-64278571D02*
X145581438Y-64240476D01*
X145581438Y-64240476D02*
X145276676Y-64240476D01*
X145276676Y-64240476D02*
X145200485Y-64278571D01*
X145200485Y-64278571D02*
X145162390Y-64316666D01*
X145162390Y-64316666D02*
X145124295Y-64392857D01*
X145124295Y-64392857D02*
X145124295Y-64545238D01*
X145124295Y-64545238D02*
X145162390Y-64621428D01*
X145162390Y-64621428D02*
X145200485Y-64659523D01*
X145200485Y-64659523D02*
X145276676Y-64697619D01*
X145276676Y-64697619D02*
X145467152Y-64697619D01*
X145467152Y-64697619D02*
X145543342Y-64659523D01*
X145543342Y-64659523D02*
X145581438Y-64621428D01*
X145581438Y-64621428D02*
X145619533Y-64545238D01*
X145619533Y-64545238D02*
X145619533Y-64392857D01*
X145619533Y-64392857D02*
X145581438Y-64316666D01*
X145581438Y-64316666D02*
X145543342Y-64278571D01*
X145543342Y-64278571D02*
X145467152Y-64240476D01*
D14*
X105760237Y-67574318D02*
X105760237Y-66304318D01*
X107090714Y-67453365D02*
X107030238Y-67513842D01*
X107030238Y-67513842D02*
X106848809Y-67574318D01*
X106848809Y-67574318D02*
X106727857Y-67574318D01*
X106727857Y-67574318D02*
X106546428Y-67513842D01*
X106546428Y-67513842D02*
X106425476Y-67392889D01*
X106425476Y-67392889D02*
X106364999Y-67271937D01*
X106364999Y-67271937D02*
X106304523Y-67030032D01*
X106304523Y-67030032D02*
X106304523Y-66848603D01*
X106304523Y-66848603D02*
X106364999Y-66606699D01*
X106364999Y-66606699D02*
X106425476Y-66485746D01*
X106425476Y-66485746D02*
X106546428Y-66364794D01*
X106546428Y-66364794D02*
X106727857Y-66304318D01*
X106727857Y-66304318D02*
X106848809Y-66304318D01*
X106848809Y-66304318D02*
X107030238Y-66364794D01*
X107030238Y-66364794D02*
X107090714Y-66425270D01*
X108300238Y-67574318D02*
X107574523Y-67574318D01*
X107937380Y-67574318D02*
X107937380Y-66304318D01*
X107937380Y-66304318D02*
X107816428Y-66485746D01*
X107816428Y-66485746D02*
X107695476Y-66606699D01*
X107695476Y-66606699D02*
X107574523Y-66667175D01*
D12*
X129786907Y-61319519D02*
X129768159Y-61338267D01*
X129768159Y-61338267D02*
X129711916Y-61357014D01*
X129711916Y-61357014D02*
X129674421Y-61357014D01*
X129674421Y-61357014D02*
X129618178Y-61338267D01*
X129618178Y-61338267D02*
X129580683Y-61300771D01*
X129580683Y-61300771D02*
X129561935Y-61263276D01*
X129561935Y-61263276D02*
X129543187Y-61188285D01*
X129543187Y-61188285D02*
X129543187Y-61132042D01*
X129543187Y-61132042D02*
X129561935Y-61057052D01*
X129561935Y-61057052D02*
X129580683Y-61019556D01*
X129580683Y-61019556D02*
X129618178Y-60982061D01*
X129618178Y-60982061D02*
X129674421Y-60963313D01*
X129674421Y-60963313D02*
X129711916Y-60963313D01*
X129711916Y-60963313D02*
X129768159Y-60982061D01*
X129768159Y-60982061D02*
X129786907Y-61000809D01*
X130161860Y-61357014D02*
X129936888Y-61357014D01*
X130049374Y-61357014D02*
X130049374Y-60963313D01*
X130049374Y-60963313D02*
X130011879Y-61019556D01*
X130011879Y-61019556D02*
X129974384Y-61057052D01*
X129974384Y-61057052D02*
X129936888Y-61075799D01*
X130499318Y-61094547D02*
X130499318Y-61357014D01*
X130405580Y-60944566D02*
X130311841Y-61225781D01*
X130311841Y-61225781D02*
X130555561Y-61225781D01*
D11*
X120920295Y-93298332D02*
X120539342Y-93564999D01*
X120920295Y-93755475D02*
X120120295Y-93755475D01*
X120120295Y-93755475D02*
X120120295Y-93450713D01*
X120120295Y-93450713D02*
X120158390Y-93374523D01*
X120158390Y-93374523D02*
X120196485Y-93336428D01*
X120196485Y-93336428D02*
X120272676Y-93298332D01*
X120272676Y-93298332D02*
X120386961Y-93298332D01*
X120386961Y-93298332D02*
X120463152Y-93336428D01*
X120463152Y-93336428D02*
X120501247Y-93374523D01*
X120501247Y-93374523D02*
X120539342Y-93450713D01*
X120539342Y-93450713D02*
X120539342Y-93755475D01*
X120386961Y-92612618D02*
X120920295Y-92612618D01*
X120082200Y-92803094D02*
X120653628Y-92993571D01*
X120653628Y-92993571D02*
X120653628Y-92498332D01*
D12*
X129836907Y-64369519D02*
X129818159Y-64388267D01*
X129818159Y-64388267D02*
X129761916Y-64407014D01*
X129761916Y-64407014D02*
X129724421Y-64407014D01*
X129724421Y-64407014D02*
X129668178Y-64388267D01*
X129668178Y-64388267D02*
X129630683Y-64350771D01*
X129630683Y-64350771D02*
X129611935Y-64313276D01*
X129611935Y-64313276D02*
X129593187Y-64238285D01*
X129593187Y-64238285D02*
X129593187Y-64182042D01*
X129593187Y-64182042D02*
X129611935Y-64107052D01*
X129611935Y-64107052D02*
X129630683Y-64069556D01*
X129630683Y-64069556D02*
X129668178Y-64032061D01*
X129668178Y-64032061D02*
X129724421Y-64013313D01*
X129724421Y-64013313D02*
X129761916Y-64013313D01*
X129761916Y-64013313D02*
X129818159Y-64032061D01*
X129818159Y-64032061D02*
X129836907Y-64050809D01*
X130211860Y-64407014D02*
X129986888Y-64407014D01*
X130099374Y-64407014D02*
X130099374Y-64013313D01*
X130099374Y-64013313D02*
X130061879Y-64069556D01*
X130061879Y-64069556D02*
X130024384Y-64107052D01*
X130024384Y-64107052D02*
X129986888Y-64125799D01*
X130568066Y-64013313D02*
X130380589Y-64013313D01*
X130380589Y-64013313D02*
X130361841Y-64200790D01*
X130361841Y-64200790D02*
X130380589Y-64182042D01*
X130380589Y-64182042D02*
X130418084Y-64163295D01*
X130418084Y-64163295D02*
X130511823Y-64163295D01*
X130511823Y-64163295D02*
X130549318Y-64182042D01*
X130549318Y-64182042D02*
X130568066Y-64200790D01*
X130568066Y-64200790D02*
X130586813Y-64238285D01*
X130586813Y-64238285D02*
X130586813Y-64332024D01*
X130586813Y-64332024D02*
X130568066Y-64369519D01*
X130568066Y-64369519D02*
X130549318Y-64388267D01*
X130549318Y-64388267D02*
X130511823Y-64407014D01*
X130511823Y-64407014D02*
X130418084Y-64407014D01*
X130418084Y-64407014D02*
X130380589Y-64388267D01*
X130380589Y-64388267D02*
X130361841Y-64369519D01*
D11*
X115076940Y-56710040D02*
X115076940Y-56001379D01*
X115076940Y-56001379D02*
X115245669Y-56001379D01*
X115245669Y-56001379D02*
X115346906Y-56035125D01*
X115346906Y-56035125D02*
X115414398Y-56102617D01*
X115414398Y-56102617D02*
X115448144Y-56170108D01*
X115448144Y-56170108D02*
X115481889Y-56305091D01*
X115481889Y-56305091D02*
X115481889Y-56406328D01*
X115481889Y-56406328D02*
X115448144Y-56541311D01*
X115448144Y-56541311D02*
X115414398Y-56608803D01*
X115414398Y-56608803D02*
X115346906Y-56676295D01*
X115346906Y-56676295D02*
X115245669Y-56710040D01*
X115245669Y-56710040D02*
X115076940Y-56710040D01*
X115751856Y-56068871D02*
X115785601Y-56035125D01*
X115785601Y-56035125D02*
X115853093Y-56001379D01*
X115853093Y-56001379D02*
X116021822Y-56001379D01*
X116021822Y-56001379D02*
X116089313Y-56035125D01*
X116089313Y-56035125D02*
X116123059Y-56068871D01*
X116123059Y-56068871D02*
X116156805Y-56136362D01*
X116156805Y-56136362D02*
X116156805Y-56203854D01*
X116156805Y-56203854D02*
X116123059Y-56305091D01*
X116123059Y-56305091D02*
X115718110Y-56710040D01*
X115718110Y-56710040D02*
X116156805Y-56710040D01*
X167786942Y-102795261D02*
X167834561Y-102700023D01*
X167834561Y-102700023D02*
X167929800Y-102604785D01*
X167929800Y-102604785D02*
X168072657Y-102461928D01*
X168072657Y-102461928D02*
X168120276Y-102366690D01*
X168120276Y-102366690D02*
X168120276Y-102271452D01*
X167882180Y-102319071D02*
X167929800Y-102223833D01*
X167929800Y-102223833D02*
X168025038Y-102128595D01*
X168025038Y-102128595D02*
X168215514Y-102080976D01*
X168215514Y-102080976D02*
X168548847Y-102080976D01*
X168548847Y-102080976D02*
X168739323Y-102128595D01*
X168739323Y-102128595D02*
X168834561Y-102223833D01*
X168834561Y-102223833D02*
X168882180Y-102319071D01*
X168882180Y-102319071D02*
X168882180Y-102509547D01*
X168882180Y-102509547D02*
X168834561Y-102604785D01*
X168834561Y-102604785D02*
X168739323Y-102700023D01*
X168739323Y-102700023D02*
X168548847Y-102747642D01*
X168548847Y-102747642D02*
X168215514Y-102747642D01*
X168215514Y-102747642D02*
X168025038Y-102700023D01*
X168025038Y-102700023D02*
X167929800Y-102604785D01*
X167929800Y-102604785D02*
X167882180Y-102509547D01*
X167882180Y-102509547D02*
X167882180Y-102319071D01*
X168882180Y-103080976D02*
X168882180Y-103700023D01*
X168882180Y-103700023D02*
X168501228Y-103366690D01*
X168501228Y-103366690D02*
X168501228Y-103509547D01*
X168501228Y-103509547D02*
X168453609Y-103604785D01*
X168453609Y-103604785D02*
X168405990Y-103652404D01*
X168405990Y-103652404D02*
X168310752Y-103700023D01*
X168310752Y-103700023D02*
X168072657Y-103700023D01*
X168072657Y-103700023D02*
X167977419Y-103652404D01*
X167977419Y-103652404D02*
X167929800Y-103604785D01*
X167929800Y-103604785D02*
X167882180Y-103509547D01*
X167882180Y-103509547D02*
X167882180Y-103223833D01*
X167882180Y-103223833D02*
X167929800Y-103128595D01*
X167929800Y-103128595D02*
X167977419Y-103080976D01*
D12*
X106594383Y-110859519D02*
X106575635Y-110878267D01*
X106575635Y-110878267D02*
X106519392Y-110897014D01*
X106519392Y-110897014D02*
X106481897Y-110897014D01*
X106481897Y-110897014D02*
X106425654Y-110878267D01*
X106425654Y-110878267D02*
X106388159Y-110840771D01*
X106388159Y-110840771D02*
X106369411Y-110803276D01*
X106369411Y-110803276D02*
X106350663Y-110728285D01*
X106350663Y-110728285D02*
X106350663Y-110672042D01*
X106350663Y-110672042D02*
X106369411Y-110597052D01*
X106369411Y-110597052D02*
X106388159Y-110559556D01*
X106388159Y-110559556D02*
X106425654Y-110522061D01*
X106425654Y-110522061D02*
X106481897Y-110503313D01*
X106481897Y-110503313D02*
X106519392Y-110503313D01*
X106519392Y-110503313D02*
X106575635Y-110522061D01*
X106575635Y-110522061D02*
X106594383Y-110540809D01*
X106744364Y-110540809D02*
X106763112Y-110522061D01*
X106763112Y-110522061D02*
X106800607Y-110503313D01*
X106800607Y-110503313D02*
X106894346Y-110503313D01*
X106894346Y-110503313D02*
X106931841Y-110522061D01*
X106931841Y-110522061D02*
X106950589Y-110540809D01*
X106950589Y-110540809D02*
X106969336Y-110578304D01*
X106969336Y-110578304D02*
X106969336Y-110615799D01*
X106969336Y-110615799D02*
X106950589Y-110672042D01*
X106950589Y-110672042D02*
X106725617Y-110897014D01*
X106725617Y-110897014D02*
X106969336Y-110897014D01*
D11*
X144330419Y-95166133D02*
X144282800Y-95118514D01*
X144282800Y-95118514D02*
X144235180Y-94975657D01*
X144235180Y-94975657D02*
X144235180Y-94880419D01*
X144235180Y-94880419D02*
X144282800Y-94737562D01*
X144282800Y-94737562D02*
X144378038Y-94642324D01*
X144378038Y-94642324D02*
X144473276Y-94594705D01*
X144473276Y-94594705D02*
X144663752Y-94547086D01*
X144663752Y-94547086D02*
X144806609Y-94547086D01*
X144806609Y-94547086D02*
X144997085Y-94594705D01*
X144997085Y-94594705D02*
X145092323Y-94642324D01*
X145092323Y-94642324D02*
X145187561Y-94737562D01*
X145187561Y-94737562D02*
X145235180Y-94880419D01*
X145235180Y-94880419D02*
X145235180Y-94975657D01*
X145235180Y-94975657D02*
X145187561Y-95118514D01*
X145187561Y-95118514D02*
X145139942Y-95166133D01*
X145235180Y-96023276D02*
X145235180Y-95832800D01*
X145235180Y-95832800D02*
X145187561Y-95737562D01*
X145187561Y-95737562D02*
X145139942Y-95689943D01*
X145139942Y-95689943D02*
X144997085Y-95594705D01*
X144997085Y-95594705D02*
X144806609Y-95547086D01*
X144806609Y-95547086D02*
X144425657Y-95547086D01*
X144425657Y-95547086D02*
X144330419Y-95594705D01*
X144330419Y-95594705D02*
X144282800Y-95642324D01*
X144282800Y-95642324D02*
X144235180Y-95737562D01*
X144235180Y-95737562D02*
X144235180Y-95928038D01*
X144235180Y-95928038D02*
X144282800Y-96023276D01*
X144282800Y-96023276D02*
X144330419Y-96070895D01*
X144330419Y-96070895D02*
X144425657Y-96118514D01*
X144425657Y-96118514D02*
X144663752Y-96118514D01*
X144663752Y-96118514D02*
X144758990Y-96070895D01*
X144758990Y-96070895D02*
X144806609Y-96023276D01*
X144806609Y-96023276D02*
X144854228Y-95928038D01*
X144854228Y-95928038D02*
X144854228Y-95737562D01*
X144854228Y-95737562D02*
X144806609Y-95642324D01*
X144806609Y-95642324D02*
X144758990Y-95594705D01*
X144758990Y-95594705D02*
X144663752Y-95547086D01*
X109969046Y-93514057D02*
X109873808Y-93466438D01*
X109873808Y-93466438D02*
X109778570Y-93371200D01*
X109778570Y-93371200D02*
X109635713Y-93228342D01*
X109635713Y-93228342D02*
X109540475Y-93180723D01*
X109540475Y-93180723D02*
X109445237Y-93180723D01*
X109492856Y-93418819D02*
X109397618Y-93371200D01*
X109397618Y-93371200D02*
X109302380Y-93275961D01*
X109302380Y-93275961D02*
X109254761Y-93085485D01*
X109254761Y-93085485D02*
X109254761Y-92752152D01*
X109254761Y-92752152D02*
X109302380Y-92561676D01*
X109302380Y-92561676D02*
X109397618Y-92466438D01*
X109397618Y-92466438D02*
X109492856Y-92418819D01*
X109492856Y-92418819D02*
X109683332Y-92418819D01*
X109683332Y-92418819D02*
X109778570Y-92466438D01*
X109778570Y-92466438D02*
X109873808Y-92561676D01*
X109873808Y-92561676D02*
X109921427Y-92752152D01*
X109921427Y-92752152D02*
X109921427Y-93085485D01*
X109921427Y-93085485D02*
X109873808Y-93275961D01*
X109873808Y-93275961D02*
X109778570Y-93371200D01*
X109778570Y-93371200D02*
X109683332Y-93418819D01*
X109683332Y-93418819D02*
X109492856Y-93418819D01*
X110635713Y-93799771D02*
X110588094Y-93752152D01*
X110588094Y-93752152D02*
X110492856Y-93609295D01*
X110492856Y-93609295D02*
X110445237Y-93514057D01*
X110445237Y-93514057D02*
X110397618Y-93371200D01*
X110397618Y-93371200D02*
X110349999Y-93133104D01*
X110349999Y-93133104D02*
X110349999Y-92942628D01*
X110349999Y-92942628D02*
X110397618Y-92704533D01*
X110397618Y-92704533D02*
X110445237Y-92561676D01*
X110445237Y-92561676D02*
X110492856Y-92466438D01*
X110492856Y-92466438D02*
X110588094Y-92323580D01*
X110588094Y-92323580D02*
X110635713Y-92275961D01*
X110969047Y-93371200D02*
X111111904Y-93418819D01*
X111111904Y-93418819D02*
X111349999Y-93418819D01*
X111349999Y-93418819D02*
X111445237Y-93371200D01*
X111445237Y-93371200D02*
X111492856Y-93323580D01*
X111492856Y-93323580D02*
X111540475Y-93228342D01*
X111540475Y-93228342D02*
X111540475Y-93133104D01*
X111540475Y-93133104D02*
X111492856Y-93037866D01*
X111492856Y-93037866D02*
X111445237Y-92990247D01*
X111445237Y-92990247D02*
X111349999Y-92942628D01*
X111349999Y-92942628D02*
X111159523Y-92895009D01*
X111159523Y-92895009D02*
X111064285Y-92847390D01*
X111064285Y-92847390D02*
X111016666Y-92799771D01*
X111016666Y-92799771D02*
X110969047Y-92704533D01*
X110969047Y-92704533D02*
X110969047Y-92609295D01*
X110969047Y-92609295D02*
X111016666Y-92514057D01*
X111016666Y-92514057D02*
X111064285Y-92466438D01*
X111064285Y-92466438D02*
X111159523Y-92418819D01*
X111159523Y-92418819D02*
X111397618Y-92418819D01*
X111397618Y-92418819D02*
X111540475Y-92466438D01*
X111969047Y-93418819D02*
X111969047Y-92418819D01*
X112397618Y-92514057D02*
X112445237Y-92466438D01*
X112445237Y-92466438D02*
X112540475Y-92418819D01*
X112540475Y-92418819D02*
X112778570Y-92418819D01*
X112778570Y-92418819D02*
X112873808Y-92466438D01*
X112873808Y-92466438D02*
X112921427Y-92514057D01*
X112921427Y-92514057D02*
X112969046Y-92609295D01*
X112969046Y-92609295D02*
X112969046Y-92704533D01*
X112969046Y-92704533D02*
X112921427Y-92847390D01*
X112921427Y-92847390D02*
X112349999Y-93418819D01*
X112349999Y-93418819D02*
X112969046Y-93418819D01*
X113302380Y-92418819D02*
X113921427Y-92418819D01*
X113921427Y-92418819D02*
X113588094Y-92799771D01*
X113588094Y-92799771D02*
X113730951Y-92799771D01*
X113730951Y-92799771D02*
X113826189Y-92847390D01*
X113826189Y-92847390D02*
X113873808Y-92895009D01*
X113873808Y-92895009D02*
X113921427Y-92990247D01*
X113921427Y-92990247D02*
X113921427Y-93228342D01*
X113921427Y-93228342D02*
X113873808Y-93323580D01*
X113873808Y-93323580D02*
X113826189Y-93371200D01*
X113826189Y-93371200D02*
X113730951Y-93418819D01*
X113730951Y-93418819D02*
X113445237Y-93418819D01*
X113445237Y-93418819D02*
X113349999Y-93371200D01*
X113349999Y-93371200D02*
X113302380Y-93323580D01*
X114540475Y-92418819D02*
X114635713Y-92418819D01*
X114635713Y-92418819D02*
X114730951Y-92466438D01*
X114730951Y-92466438D02*
X114778570Y-92514057D01*
X114778570Y-92514057D02*
X114826189Y-92609295D01*
X114826189Y-92609295D02*
X114873808Y-92799771D01*
X114873808Y-92799771D02*
X114873808Y-93037866D01*
X114873808Y-93037866D02*
X114826189Y-93228342D01*
X114826189Y-93228342D02*
X114778570Y-93323580D01*
X114778570Y-93323580D02*
X114730951Y-93371200D01*
X114730951Y-93371200D02*
X114635713Y-93418819D01*
X114635713Y-93418819D02*
X114540475Y-93418819D01*
X114540475Y-93418819D02*
X114445237Y-93371200D01*
X114445237Y-93371200D02*
X114397618Y-93323580D01*
X114397618Y-93323580D02*
X114349999Y-93228342D01*
X114349999Y-93228342D02*
X114302380Y-93037866D01*
X114302380Y-93037866D02*
X114302380Y-92799771D01*
X114302380Y-92799771D02*
X114349999Y-92609295D01*
X114349999Y-92609295D02*
X114397618Y-92514057D01*
X114397618Y-92514057D02*
X114445237Y-92466438D01*
X114445237Y-92466438D02*
X114540475Y-92418819D01*
X115826189Y-93418819D02*
X115254761Y-93418819D01*
X115540475Y-93418819D02*
X115540475Y-92418819D01*
X115540475Y-92418819D02*
X115445237Y-92561676D01*
X115445237Y-92561676D02*
X115349999Y-92656914D01*
X115349999Y-92656914D02*
X115254761Y-92704533D01*
X116159523Y-93799771D02*
X116207142Y-93752152D01*
X116207142Y-93752152D02*
X116302380Y-93609295D01*
X116302380Y-93609295D02*
X116349999Y-93514057D01*
X116349999Y-93514057D02*
X116397618Y-93371200D01*
X116397618Y-93371200D02*
X116445237Y-93133104D01*
X116445237Y-93133104D02*
X116445237Y-92942628D01*
X116445237Y-92942628D02*
X116397618Y-92704533D01*
X116397618Y-92704533D02*
X116349999Y-92561676D01*
X116349999Y-92561676D02*
X116302380Y-92466438D01*
X116302380Y-92466438D02*
X116207142Y-92323580D01*
X116207142Y-92323580D02*
X116159523Y-92275961D01*
X117445237Y-93418819D02*
X116873809Y-93418819D01*
X117159523Y-93418819D02*
X117159523Y-92418819D01*
X117159523Y-92418819D02*
X117064285Y-92561676D01*
X117064285Y-92561676D02*
X116969047Y-92656914D01*
X116969047Y-92656914D02*
X116873809Y-92704533D01*
X137309523Y-65654819D02*
X136833333Y-65654819D01*
X136833333Y-65654819D02*
X136785714Y-66131009D01*
X136785714Y-66131009D02*
X136833333Y-66083390D01*
X136833333Y-66083390D02*
X136928571Y-66035771D01*
X136928571Y-66035771D02*
X137166666Y-66035771D01*
X137166666Y-66035771D02*
X137261904Y-66083390D01*
X137261904Y-66083390D02*
X137309523Y-66131009D01*
X137309523Y-66131009D02*
X137357142Y-66226247D01*
X137357142Y-66226247D02*
X137357142Y-66464342D01*
X137357142Y-66464342D02*
X137309523Y-66559580D01*
X137309523Y-66559580D02*
X137261904Y-66607200D01*
X137261904Y-66607200D02*
X137166666Y-66654819D01*
X137166666Y-66654819D02*
X136928571Y-66654819D01*
X136928571Y-66654819D02*
X136833333Y-66607200D01*
X136833333Y-66607200D02*
X136785714Y-66559580D01*
X137642857Y-65654819D02*
X137976190Y-66654819D01*
X137976190Y-66654819D02*
X138309523Y-65654819D01*
D12*
X173671907Y-76959519D02*
X173653159Y-76978267D01*
X173653159Y-76978267D02*
X173596916Y-76997014D01*
X173596916Y-76997014D02*
X173559421Y-76997014D01*
X173559421Y-76997014D02*
X173503178Y-76978267D01*
X173503178Y-76978267D02*
X173465683Y-76940771D01*
X173465683Y-76940771D02*
X173446935Y-76903276D01*
X173446935Y-76903276D02*
X173428187Y-76828285D01*
X173428187Y-76828285D02*
X173428187Y-76772042D01*
X173428187Y-76772042D02*
X173446935Y-76697052D01*
X173446935Y-76697052D02*
X173465683Y-76659556D01*
X173465683Y-76659556D02*
X173503178Y-76622061D01*
X173503178Y-76622061D02*
X173559421Y-76603313D01*
X173559421Y-76603313D02*
X173596916Y-76603313D01*
X173596916Y-76603313D02*
X173653159Y-76622061D01*
X173653159Y-76622061D02*
X173671907Y-76640809D01*
X174046860Y-76997014D02*
X173821888Y-76997014D01*
X173934374Y-76997014D02*
X173934374Y-76603313D01*
X173934374Y-76603313D02*
X173896879Y-76659556D01*
X173896879Y-76659556D02*
X173859384Y-76697052D01*
X173859384Y-76697052D02*
X173821888Y-76715799D01*
X174421813Y-76997014D02*
X174196841Y-76997014D01*
X174309327Y-76997014D02*
X174309327Y-76603313D01*
X174309327Y-76603313D02*
X174271832Y-76659556D01*
X174271832Y-76659556D02*
X174234337Y-76697052D01*
X174234337Y-76697052D02*
X174196841Y-76715799D01*
D11*
X129721667Y-72604295D02*
X129455000Y-72223342D01*
X129264524Y-72604295D02*
X129264524Y-71804295D01*
X129264524Y-71804295D02*
X129569286Y-71804295D01*
X129569286Y-71804295D02*
X129645476Y-71842390D01*
X129645476Y-71842390D02*
X129683571Y-71880485D01*
X129683571Y-71880485D02*
X129721667Y-71956676D01*
X129721667Y-71956676D02*
X129721667Y-72070961D01*
X129721667Y-72070961D02*
X129683571Y-72147152D01*
X129683571Y-72147152D02*
X129645476Y-72185247D01*
X129645476Y-72185247D02*
X129569286Y-72223342D01*
X129569286Y-72223342D02*
X129264524Y-72223342D01*
X130102619Y-72604295D02*
X130255000Y-72604295D01*
X130255000Y-72604295D02*
X130331190Y-72566200D01*
X130331190Y-72566200D02*
X130369286Y-72528104D01*
X130369286Y-72528104D02*
X130445476Y-72413819D01*
X130445476Y-72413819D02*
X130483571Y-72261438D01*
X130483571Y-72261438D02*
X130483571Y-71956676D01*
X130483571Y-71956676D02*
X130445476Y-71880485D01*
X130445476Y-71880485D02*
X130407381Y-71842390D01*
X130407381Y-71842390D02*
X130331190Y-71804295D01*
X130331190Y-71804295D02*
X130178809Y-71804295D01*
X130178809Y-71804295D02*
X130102619Y-71842390D01*
X130102619Y-71842390D02*
X130064524Y-71880485D01*
X130064524Y-71880485D02*
X130026428Y-71956676D01*
X130026428Y-71956676D02*
X130026428Y-72147152D01*
X130026428Y-72147152D02*
X130064524Y-72223342D01*
X130064524Y-72223342D02*
X130102619Y-72261438D01*
X130102619Y-72261438D02*
X130178809Y-72299533D01*
X130178809Y-72299533D02*
X130331190Y-72299533D01*
X130331190Y-72299533D02*
X130407381Y-72261438D01*
X130407381Y-72261438D02*
X130445476Y-72223342D01*
X130445476Y-72223342D02*
X130483571Y-72147152D01*
X145682295Y-59869285D02*
X145301342Y-60135952D01*
X145682295Y-60326428D02*
X144882295Y-60326428D01*
X144882295Y-60326428D02*
X144882295Y-60021666D01*
X144882295Y-60021666D02*
X144920390Y-59945476D01*
X144920390Y-59945476D02*
X144958485Y-59907381D01*
X144958485Y-59907381D02*
X145034676Y-59869285D01*
X145034676Y-59869285D02*
X145148961Y-59869285D01*
X145148961Y-59869285D02*
X145225152Y-59907381D01*
X145225152Y-59907381D02*
X145263247Y-59945476D01*
X145263247Y-59945476D02*
X145301342Y-60021666D01*
X145301342Y-60021666D02*
X145301342Y-60326428D01*
X145682295Y-59107381D02*
X145682295Y-59564524D01*
X145682295Y-59335952D02*
X144882295Y-59335952D01*
X144882295Y-59335952D02*
X144996580Y-59412143D01*
X144996580Y-59412143D02*
X145072771Y-59488333D01*
X145072771Y-59488333D02*
X145110866Y-59564524D01*
X145225152Y-58650238D02*
X145187057Y-58726428D01*
X145187057Y-58726428D02*
X145148961Y-58764523D01*
X145148961Y-58764523D02*
X145072771Y-58802619D01*
X145072771Y-58802619D02*
X145034676Y-58802619D01*
X145034676Y-58802619D02*
X144958485Y-58764523D01*
X144958485Y-58764523D02*
X144920390Y-58726428D01*
X144920390Y-58726428D02*
X144882295Y-58650238D01*
X144882295Y-58650238D02*
X144882295Y-58497857D01*
X144882295Y-58497857D02*
X144920390Y-58421666D01*
X144920390Y-58421666D02*
X144958485Y-58383571D01*
X144958485Y-58383571D02*
X145034676Y-58345476D01*
X145034676Y-58345476D02*
X145072771Y-58345476D01*
X145072771Y-58345476D02*
X145148961Y-58383571D01*
X145148961Y-58383571D02*
X145187057Y-58421666D01*
X145187057Y-58421666D02*
X145225152Y-58497857D01*
X145225152Y-58497857D02*
X145225152Y-58650238D01*
X145225152Y-58650238D02*
X145263247Y-58726428D01*
X145263247Y-58726428D02*
X145301342Y-58764523D01*
X145301342Y-58764523D02*
X145377533Y-58802619D01*
X145377533Y-58802619D02*
X145529914Y-58802619D01*
X145529914Y-58802619D02*
X145606104Y-58764523D01*
X145606104Y-58764523D02*
X145644200Y-58726428D01*
X145644200Y-58726428D02*
X145682295Y-58650238D01*
X145682295Y-58650238D02*
X145682295Y-58497857D01*
X145682295Y-58497857D02*
X145644200Y-58421666D01*
X145644200Y-58421666D02*
X145606104Y-58383571D01*
X145606104Y-58383571D02*
X145529914Y-58345476D01*
X145529914Y-58345476D02*
X145377533Y-58345476D01*
X145377533Y-58345476D02*
X145301342Y-58383571D01*
X145301342Y-58383571D02*
X145263247Y-58421666D01*
X145263247Y-58421666D02*
X145225152Y-58497857D01*
X176810714Y-84567295D02*
X176544047Y-84186342D01*
X176353571Y-84567295D02*
X176353571Y-83767295D01*
X176353571Y-83767295D02*
X176658333Y-83767295D01*
X176658333Y-83767295D02*
X176734523Y-83805390D01*
X176734523Y-83805390D02*
X176772618Y-83843485D01*
X176772618Y-83843485D02*
X176810714Y-83919676D01*
X176810714Y-83919676D02*
X176810714Y-84033961D01*
X176810714Y-84033961D02*
X176772618Y-84110152D01*
X176772618Y-84110152D02*
X176734523Y-84148247D01*
X176734523Y-84148247D02*
X176658333Y-84186342D01*
X176658333Y-84186342D02*
X176353571Y-84186342D01*
X177572618Y-84567295D02*
X177115475Y-84567295D01*
X177344047Y-84567295D02*
X177344047Y-83767295D01*
X177344047Y-83767295D02*
X177267856Y-83881580D01*
X177267856Y-83881580D02*
X177191666Y-83957771D01*
X177191666Y-83957771D02*
X177115475Y-83995866D01*
X178258333Y-84033961D02*
X178258333Y-84567295D01*
X178067857Y-83729200D02*
X177877380Y-84300628D01*
X177877380Y-84300628D02*
X178372619Y-84300628D01*
X153475295Y-80423332D02*
X153094342Y-80689999D01*
X153475295Y-80880475D02*
X152675295Y-80880475D01*
X152675295Y-80880475D02*
X152675295Y-80575713D01*
X152675295Y-80575713D02*
X152713390Y-80499523D01*
X152713390Y-80499523D02*
X152751485Y-80461428D01*
X152751485Y-80461428D02*
X152827676Y-80423332D01*
X152827676Y-80423332D02*
X152941961Y-80423332D01*
X152941961Y-80423332D02*
X153018152Y-80461428D01*
X153018152Y-80461428D02*
X153056247Y-80499523D01*
X153056247Y-80499523D02*
X153094342Y-80575713D01*
X153094342Y-80575713D02*
X153094342Y-80880475D01*
X152675295Y-79699523D02*
X152675295Y-80080475D01*
X152675295Y-80080475D02*
X153056247Y-80118571D01*
X153056247Y-80118571D02*
X153018152Y-80080475D01*
X153018152Y-80080475D02*
X152980057Y-80004285D01*
X152980057Y-80004285D02*
X152980057Y-79813809D01*
X152980057Y-79813809D02*
X153018152Y-79737618D01*
X153018152Y-79737618D02*
X153056247Y-79699523D01*
X153056247Y-79699523D02*
X153132438Y-79661428D01*
X153132438Y-79661428D02*
X153322914Y-79661428D01*
X153322914Y-79661428D02*
X153399104Y-79699523D01*
X153399104Y-79699523D02*
X153437200Y-79737618D01*
X153437200Y-79737618D02*
X153475295Y-79813809D01*
X153475295Y-79813809D02*
X153475295Y-80004285D01*
X153475295Y-80004285D02*
X153437200Y-80080475D01*
X153437200Y-80080475D02*
X153399104Y-80118571D01*
X173810294Y-100993285D02*
X173429341Y-101259952D01*
X173810294Y-101450428D02*
X173010294Y-101450428D01*
X173010294Y-101450428D02*
X173010294Y-101145666D01*
X173010294Y-101145666D02*
X173048389Y-101069476D01*
X173048389Y-101069476D02*
X173086484Y-101031381D01*
X173086484Y-101031381D02*
X173162675Y-100993285D01*
X173162675Y-100993285D02*
X173276960Y-100993285D01*
X173276960Y-100993285D02*
X173353151Y-101031381D01*
X173353151Y-101031381D02*
X173391246Y-101069476D01*
X173391246Y-101069476D02*
X173429341Y-101145666D01*
X173429341Y-101145666D02*
X173429341Y-101450428D01*
X173810294Y-100231381D02*
X173810294Y-100688524D01*
X173810294Y-100459952D02*
X173010294Y-100459952D01*
X173010294Y-100459952D02*
X173124579Y-100536143D01*
X173124579Y-100536143D02*
X173200770Y-100612333D01*
X173200770Y-100612333D02*
X173238865Y-100688524D01*
X173086484Y-99926619D02*
X173048389Y-99888523D01*
X173048389Y-99888523D02*
X173010294Y-99812333D01*
X173010294Y-99812333D02*
X173010294Y-99621857D01*
X173010294Y-99621857D02*
X173048389Y-99545666D01*
X173048389Y-99545666D02*
X173086484Y-99507571D01*
X173086484Y-99507571D02*
X173162675Y-99469476D01*
X173162675Y-99469476D02*
X173238865Y-99469476D01*
X173238865Y-99469476D02*
X173353151Y-99507571D01*
X173353151Y-99507571D02*
X173810294Y-99964714D01*
X173810294Y-99964714D02*
X173810294Y-99469476D01*
D12*
X154276907Y-54749519D02*
X154258159Y-54768267D01*
X154258159Y-54768267D02*
X154201916Y-54787014D01*
X154201916Y-54787014D02*
X154164421Y-54787014D01*
X154164421Y-54787014D02*
X154108178Y-54768267D01*
X154108178Y-54768267D02*
X154070683Y-54730771D01*
X154070683Y-54730771D02*
X154051935Y-54693276D01*
X154051935Y-54693276D02*
X154033187Y-54618285D01*
X154033187Y-54618285D02*
X154033187Y-54562042D01*
X154033187Y-54562042D02*
X154051935Y-54487052D01*
X154051935Y-54487052D02*
X154070683Y-54449556D01*
X154070683Y-54449556D02*
X154108178Y-54412061D01*
X154108178Y-54412061D02*
X154164421Y-54393313D01*
X154164421Y-54393313D02*
X154201916Y-54393313D01*
X154201916Y-54393313D02*
X154258159Y-54412061D01*
X154258159Y-54412061D02*
X154276907Y-54430809D01*
X154651860Y-54787014D02*
X154426888Y-54787014D01*
X154539374Y-54787014D02*
X154539374Y-54393313D01*
X154539374Y-54393313D02*
X154501879Y-54449556D01*
X154501879Y-54449556D02*
X154464384Y-54487052D01*
X154464384Y-54487052D02*
X154426888Y-54505799D01*
X154801841Y-54430809D02*
X154820589Y-54412061D01*
X154820589Y-54412061D02*
X154858084Y-54393313D01*
X154858084Y-54393313D02*
X154951823Y-54393313D01*
X154951823Y-54393313D02*
X154989318Y-54412061D01*
X154989318Y-54412061D02*
X155008066Y-54430809D01*
X155008066Y-54430809D02*
X155026813Y-54468304D01*
X155026813Y-54468304D02*
X155026813Y-54505799D01*
X155026813Y-54505799D02*
X155008066Y-54562042D01*
X155008066Y-54562042D02*
X154783094Y-54787014D01*
X154783094Y-54787014D02*
X155026813Y-54787014D01*
D11*
X157912819Y-85146666D02*
X157912819Y-85622856D01*
X157912819Y-85622856D02*
X156912819Y-85622856D01*
X157912819Y-84289523D02*
X157912819Y-84860951D01*
X157912819Y-84575237D02*
X156912819Y-84575237D01*
X156912819Y-84575237D02*
X157055676Y-84670475D01*
X157055676Y-84670475D02*
X157150914Y-84765713D01*
X157150914Y-84765713D02*
X157198533Y-84860951D01*
X156333276Y-77391428D02*
X156028514Y-77604762D01*
X156333276Y-77757143D02*
X155693276Y-77757143D01*
X155693276Y-77757143D02*
X155693276Y-77513333D01*
X155693276Y-77513333D02*
X155723752Y-77452381D01*
X155723752Y-77452381D02*
X155754228Y-77421904D01*
X155754228Y-77421904D02*
X155815180Y-77391428D01*
X155815180Y-77391428D02*
X155906609Y-77391428D01*
X155906609Y-77391428D02*
X155967561Y-77421904D01*
X155967561Y-77421904D02*
X155998038Y-77452381D01*
X155998038Y-77452381D02*
X156028514Y-77513333D01*
X156028514Y-77513333D02*
X156028514Y-77757143D01*
X156333276Y-76781904D02*
X156333276Y-77147619D01*
X156333276Y-76964762D02*
X155693276Y-76964762D01*
X155693276Y-76964762D02*
X155784704Y-77025714D01*
X155784704Y-77025714D02*
X155845657Y-77086666D01*
X155845657Y-77086666D02*
X155876133Y-77147619D01*
X155693276Y-76233333D02*
X155693276Y-76355238D01*
X155693276Y-76355238D02*
X155723752Y-76416190D01*
X155723752Y-76416190D02*
X155754228Y-76446666D01*
X155754228Y-76446666D02*
X155845657Y-76507619D01*
X155845657Y-76507619D02*
X155967561Y-76538095D01*
X155967561Y-76538095D02*
X156211371Y-76538095D01*
X156211371Y-76538095D02*
X156272323Y-76507619D01*
X156272323Y-76507619D02*
X156302800Y-76477142D01*
X156302800Y-76477142D02*
X156333276Y-76416190D01*
X156333276Y-76416190D02*
X156333276Y-76294285D01*
X156333276Y-76294285D02*
X156302800Y-76233333D01*
X156302800Y-76233333D02*
X156272323Y-76202857D01*
X156272323Y-76202857D02*
X156211371Y-76172380D01*
X156211371Y-76172380D02*
X156058990Y-76172380D01*
X156058990Y-76172380D02*
X155998038Y-76202857D01*
X155998038Y-76202857D02*
X155967561Y-76233333D01*
X155967561Y-76233333D02*
X155937085Y-76294285D01*
X155937085Y-76294285D02*
X155937085Y-76416190D01*
X155937085Y-76416190D02*
X155967561Y-76477142D01*
X155967561Y-76477142D02*
X155998038Y-76507619D01*
X155998038Y-76507619D02*
X156058990Y-76538095D01*
X133844300Y-51754167D02*
X133796680Y-51897024D01*
X133796680Y-51897024D02*
X133796680Y-52135119D01*
X133796680Y-52135119D02*
X133844300Y-52230357D01*
X133844300Y-52230357D02*
X133891919Y-52277976D01*
X133891919Y-52277976D02*
X133987157Y-52325595D01*
X133987157Y-52325595D02*
X134082395Y-52325595D01*
X134082395Y-52325595D02*
X134177633Y-52277976D01*
X134177633Y-52277976D02*
X134225252Y-52230357D01*
X134225252Y-52230357D02*
X134272871Y-52135119D01*
X134272871Y-52135119D02*
X134320490Y-51944643D01*
X134320490Y-51944643D02*
X134368109Y-51849405D01*
X134368109Y-51849405D02*
X134415728Y-51801786D01*
X134415728Y-51801786D02*
X134510966Y-51754167D01*
X134510966Y-51754167D02*
X134606204Y-51754167D01*
X134606204Y-51754167D02*
X134701442Y-51801786D01*
X134701442Y-51801786D02*
X134749061Y-51849405D01*
X134749061Y-51849405D02*
X134796680Y-51944643D01*
X134796680Y-51944643D02*
X134796680Y-52182738D01*
X134796680Y-52182738D02*
X134749061Y-52325595D01*
X134796680Y-52658929D02*
X133796680Y-52897024D01*
X133796680Y-52897024D02*
X134510966Y-53087500D01*
X134510966Y-53087500D02*
X133796680Y-53277976D01*
X133796680Y-53277976D02*
X134796680Y-53516072D01*
X133796680Y-54420833D02*
X133796680Y-53849405D01*
X133796680Y-54135119D02*
X134796680Y-54135119D01*
X134796680Y-54135119D02*
X134653823Y-54039881D01*
X134653823Y-54039881D02*
X134558585Y-53944643D01*
X134558585Y-53944643D02*
X134510966Y-53849405D01*
X154508104Y-61425180D02*
X154508104Y-60615657D01*
X154508104Y-60615657D02*
X154460485Y-60520419D01*
X154460485Y-60520419D02*
X154412866Y-60472800D01*
X154412866Y-60472800D02*
X154317628Y-60425180D01*
X154317628Y-60425180D02*
X154127152Y-60425180D01*
X154127152Y-60425180D02*
X154031914Y-60472800D01*
X154031914Y-60472800D02*
X153984295Y-60520419D01*
X153984295Y-60520419D02*
X153936676Y-60615657D01*
X153936676Y-60615657D02*
X153936676Y-61425180D01*
X153031914Y-61425180D02*
X153222390Y-61425180D01*
X153222390Y-61425180D02*
X153317628Y-61377561D01*
X153317628Y-61377561D02*
X153365247Y-61329942D01*
X153365247Y-61329942D02*
X153460485Y-61187085D01*
X153460485Y-61187085D02*
X153508104Y-60996609D01*
X153508104Y-60996609D02*
X153508104Y-60615657D01*
X153508104Y-60615657D02*
X153460485Y-60520419D01*
X153460485Y-60520419D02*
X153412866Y-60472800D01*
X153412866Y-60472800D02*
X153317628Y-60425180D01*
X153317628Y-60425180D02*
X153127152Y-60425180D01*
X153127152Y-60425180D02*
X153031914Y-60472800D01*
X153031914Y-60472800D02*
X152984295Y-60520419D01*
X152984295Y-60520419D02*
X152936676Y-60615657D01*
X152936676Y-60615657D02*
X152936676Y-60853752D01*
X152936676Y-60853752D02*
X152984295Y-60948990D01*
X152984295Y-60948990D02*
X153031914Y-60996609D01*
X153031914Y-60996609D02*
X153127152Y-61044228D01*
X153127152Y-61044228D02*
X153317628Y-61044228D01*
X153317628Y-61044228D02*
X153412866Y-60996609D01*
X153412866Y-60996609D02*
X153460485Y-60948990D01*
X153460485Y-60948990D02*
X153508104Y-60853752D01*
X155193999Y-64066780D02*
X155193999Y-63828685D01*
X155432094Y-63923923D02*
X155193999Y-63828685D01*
X155193999Y-63828685D02*
X154955904Y-63923923D01*
X155336856Y-63638209D02*
X155193999Y-63828685D01*
X155193999Y-63828685D02*
X155051142Y-63638209D01*
X155194000Y-62976419D02*
X155194000Y-63214514D01*
X154955905Y-63119276D02*
X155194000Y-63214514D01*
X155194000Y-63214514D02*
X155432095Y-63119276D01*
X155051143Y-63404990D02*
X155194000Y-63214514D01*
X155194000Y-63214514D02*
X155336857Y-63404990D01*
D12*
X161379519Y-72520616D02*
X161398267Y-72539364D01*
X161398267Y-72539364D02*
X161417014Y-72595607D01*
X161417014Y-72595607D02*
X161417014Y-72633102D01*
X161417014Y-72633102D02*
X161398267Y-72689345D01*
X161398267Y-72689345D02*
X161360771Y-72726841D01*
X161360771Y-72726841D02*
X161323276Y-72745588D01*
X161323276Y-72745588D02*
X161248285Y-72764336D01*
X161248285Y-72764336D02*
X161192042Y-72764336D01*
X161192042Y-72764336D02*
X161117052Y-72745588D01*
X161117052Y-72745588D02*
X161079556Y-72726841D01*
X161079556Y-72726841D02*
X161042061Y-72689345D01*
X161042061Y-72689345D02*
X161023313Y-72633102D01*
X161023313Y-72633102D02*
X161023313Y-72595607D01*
X161023313Y-72595607D02*
X161042061Y-72539364D01*
X161042061Y-72539364D02*
X161060809Y-72520616D01*
X161023313Y-72389383D02*
X161023313Y-72126915D01*
X161023313Y-72126915D02*
X161417014Y-72295644D01*
D11*
X171465713Y-107124295D02*
X171199046Y-106743342D01*
X171008570Y-107124295D02*
X171008570Y-106324295D01*
X171008570Y-106324295D02*
X171313332Y-106324295D01*
X171313332Y-106324295D02*
X171389522Y-106362390D01*
X171389522Y-106362390D02*
X171427617Y-106400485D01*
X171427617Y-106400485D02*
X171465713Y-106476676D01*
X171465713Y-106476676D02*
X171465713Y-106590961D01*
X171465713Y-106590961D02*
X171427617Y-106667152D01*
X171427617Y-106667152D02*
X171389522Y-106705247D01*
X171389522Y-106705247D02*
X171313332Y-106743342D01*
X171313332Y-106743342D02*
X171008570Y-106743342D01*
X172227617Y-107124295D02*
X171770474Y-107124295D01*
X171999046Y-107124295D02*
X171999046Y-106324295D01*
X171999046Y-106324295D02*
X171922855Y-106438580D01*
X171922855Y-106438580D02*
X171846665Y-106514771D01*
X171846665Y-106514771D02*
X171770474Y-106552866D01*
X172989522Y-107124295D02*
X172532379Y-107124295D01*
X172760951Y-107124295D02*
X172760951Y-106324295D01*
X172760951Y-106324295D02*
X172684760Y-106438580D01*
X172684760Y-106438580D02*
X172608570Y-106514771D01*
X172608570Y-106514771D02*
X172532379Y-106552866D01*
X159712569Y-63126666D02*
X159712569Y-63602856D01*
X159712569Y-63602856D02*
X158712569Y-63602856D01*
X158807807Y-62840951D02*
X158760188Y-62793332D01*
X158760188Y-62793332D02*
X158712569Y-62698094D01*
X158712569Y-62698094D02*
X158712569Y-62459999D01*
X158712569Y-62459999D02*
X158760188Y-62364761D01*
X158760188Y-62364761D02*
X158807807Y-62317142D01*
X158807807Y-62317142D02*
X158903045Y-62269523D01*
X158903045Y-62269523D02*
X158998283Y-62269523D01*
X158998283Y-62269523D02*
X159141140Y-62317142D01*
X159141140Y-62317142D02*
X159712569Y-62888570D01*
X159712569Y-62888570D02*
X159712569Y-62269523D01*
X175820013Y-82293621D02*
X175790016Y-82323618D01*
X175790016Y-82323618D02*
X175700028Y-82353614D01*
X175700028Y-82353614D02*
X175640035Y-82353614D01*
X175640035Y-82353614D02*
X175550046Y-82323618D01*
X175550046Y-82323618D02*
X175490054Y-82263625D01*
X175490054Y-82263625D02*
X175460058Y-82203633D01*
X175460058Y-82203633D02*
X175430061Y-82083648D01*
X175430061Y-82083648D02*
X175430061Y-81993659D01*
X175430061Y-81993659D02*
X175460058Y-81873674D01*
X175460058Y-81873674D02*
X175490054Y-81813681D01*
X175490054Y-81813681D02*
X175550046Y-81753689D01*
X175550046Y-81753689D02*
X175640035Y-81723693D01*
X175640035Y-81723693D02*
X175700028Y-81723693D01*
X175700028Y-81723693D02*
X175790016Y-81753689D01*
X175790016Y-81753689D02*
X175820013Y-81783685D01*
X176119975Y-82353614D02*
X176239960Y-82353614D01*
X176239960Y-82353614D02*
X176299952Y-82323618D01*
X176299952Y-82323618D02*
X176329949Y-82293621D01*
X176329949Y-82293621D02*
X176389941Y-82203633D01*
X176389941Y-82203633D02*
X176419937Y-82083648D01*
X176419937Y-82083648D02*
X176419937Y-81843678D01*
X176419937Y-81843678D02*
X176389941Y-81783685D01*
X176389941Y-81783685D02*
X176359945Y-81753689D01*
X176359945Y-81753689D02*
X176299952Y-81723693D01*
X176299952Y-81723693D02*
X176179967Y-81723693D01*
X176179967Y-81723693D02*
X176119975Y-81753689D01*
X176119975Y-81753689D02*
X176089979Y-81783685D01*
X176089979Y-81783685D02*
X176059982Y-81843678D01*
X176059982Y-81843678D02*
X176059982Y-81993659D01*
X176059982Y-81993659D02*
X176089979Y-82053651D01*
X176089979Y-82053651D02*
X176119975Y-82083648D01*
X176119975Y-82083648D02*
X176179967Y-82113644D01*
X176179967Y-82113644D02*
X176299952Y-82113644D01*
X176299952Y-82113644D02*
X176359945Y-82083648D01*
X176359945Y-82083648D02*
X176389941Y-82053651D01*
X176389941Y-82053651D02*
X176419937Y-81993659D01*
X122553333Y-85899580D02*
X122505714Y-85947200D01*
X122505714Y-85947200D02*
X122362857Y-85994819D01*
X122362857Y-85994819D02*
X122267619Y-85994819D01*
X122267619Y-85994819D02*
X122124762Y-85947200D01*
X122124762Y-85947200D02*
X122029524Y-85851961D01*
X122029524Y-85851961D02*
X121981905Y-85756723D01*
X121981905Y-85756723D02*
X121934286Y-85566247D01*
X121934286Y-85566247D02*
X121934286Y-85423390D01*
X121934286Y-85423390D02*
X121981905Y-85232914D01*
X121981905Y-85232914D02*
X122029524Y-85137676D01*
X122029524Y-85137676D02*
X122124762Y-85042438D01*
X122124762Y-85042438D02*
X122267619Y-84994819D01*
X122267619Y-84994819D02*
X122362857Y-84994819D01*
X122362857Y-84994819D02*
X122505714Y-85042438D01*
X122505714Y-85042438D02*
X122553333Y-85090057D01*
X123410476Y-85328152D02*
X123410476Y-85994819D01*
X123172381Y-84947200D02*
X122934286Y-85661485D01*
X122934286Y-85661485D02*
X123553333Y-85661485D01*
D12*
X151269519Y-67566092D02*
X151288267Y-67584840D01*
X151288267Y-67584840D02*
X151307014Y-67641083D01*
X151307014Y-67641083D02*
X151307014Y-67678578D01*
X151307014Y-67678578D02*
X151288267Y-67734821D01*
X151288267Y-67734821D02*
X151250771Y-67772317D01*
X151250771Y-67772317D02*
X151213276Y-67791064D01*
X151213276Y-67791064D02*
X151138285Y-67809812D01*
X151138285Y-67809812D02*
X151082042Y-67809812D01*
X151082042Y-67809812D02*
X151007052Y-67791064D01*
X151007052Y-67791064D02*
X150969556Y-67772317D01*
X150969556Y-67772317D02*
X150932061Y-67734821D01*
X150932061Y-67734821D02*
X150913313Y-67678578D01*
X150913313Y-67678578D02*
X150913313Y-67641083D01*
X150913313Y-67641083D02*
X150932061Y-67584840D01*
X150932061Y-67584840D02*
X150950809Y-67566092D01*
X151307014Y-67191139D02*
X151307014Y-67416111D01*
X151307014Y-67303625D02*
X150913313Y-67303625D01*
X150913313Y-67303625D02*
X150969556Y-67341120D01*
X150969556Y-67341120D02*
X151007052Y-67378616D01*
X151007052Y-67378616D02*
X151025799Y-67416111D01*
X150913313Y-67059906D02*
X150913313Y-66816186D01*
X150913313Y-66816186D02*
X151063295Y-66947420D01*
X151063295Y-66947420D02*
X151063295Y-66891177D01*
X151063295Y-66891177D02*
X151082042Y-66853681D01*
X151082042Y-66853681D02*
X151100790Y-66834934D01*
X151100790Y-66834934D02*
X151138285Y-66816186D01*
X151138285Y-66816186D02*
X151232024Y-66816186D01*
X151232024Y-66816186D02*
X151269519Y-66834934D01*
X151269519Y-66834934D02*
X151288267Y-66853681D01*
X151288267Y-66853681D02*
X151307014Y-66891177D01*
X151307014Y-66891177D02*
X151307014Y-67003663D01*
X151307014Y-67003663D02*
X151288267Y-67041158D01*
X151288267Y-67041158D02*
X151269519Y-67059906D01*
D11*
X167125714Y-68982295D02*
X166859047Y-68601342D01*
X166668571Y-68982295D02*
X166668571Y-68182295D01*
X166668571Y-68182295D02*
X166973333Y-68182295D01*
X166973333Y-68182295D02*
X167049523Y-68220390D01*
X167049523Y-68220390D02*
X167087618Y-68258485D01*
X167087618Y-68258485D02*
X167125714Y-68334676D01*
X167125714Y-68334676D02*
X167125714Y-68448961D01*
X167125714Y-68448961D02*
X167087618Y-68525152D01*
X167087618Y-68525152D02*
X167049523Y-68563247D01*
X167049523Y-68563247D02*
X166973333Y-68601342D01*
X166973333Y-68601342D02*
X166668571Y-68601342D01*
X167887618Y-68982295D02*
X167430475Y-68982295D01*
X167659047Y-68982295D02*
X167659047Y-68182295D01*
X167659047Y-68182295D02*
X167582856Y-68296580D01*
X167582856Y-68296580D02*
X167506666Y-68372771D01*
X167506666Y-68372771D02*
X167430475Y-68410866D01*
X168154285Y-68182295D02*
X168687619Y-68182295D01*
X168687619Y-68182295D02*
X168344761Y-68982295D01*
X175697380Y-75782857D02*
X175745000Y-75830476D01*
X175745000Y-75830476D02*
X175792619Y-75973333D01*
X175792619Y-75973333D02*
X175792619Y-76068571D01*
X175792619Y-76068571D02*
X175745000Y-76211428D01*
X175745000Y-76211428D02*
X175649761Y-76306666D01*
X175649761Y-76306666D02*
X175554523Y-76354285D01*
X175554523Y-76354285D02*
X175364047Y-76401904D01*
X175364047Y-76401904D02*
X175221190Y-76401904D01*
X175221190Y-76401904D02*
X175030714Y-76354285D01*
X175030714Y-76354285D02*
X174935476Y-76306666D01*
X174935476Y-76306666D02*
X174840238Y-76211428D01*
X174840238Y-76211428D02*
X174792619Y-76068571D01*
X174792619Y-76068571D02*
X174792619Y-75973333D01*
X174792619Y-75973333D02*
X174840238Y-75830476D01*
X174840238Y-75830476D02*
X174887857Y-75782857D01*
X175792619Y-74830476D02*
X175792619Y-75401904D01*
X175792619Y-75116190D02*
X174792619Y-75116190D01*
X174792619Y-75116190D02*
X174935476Y-75211428D01*
X174935476Y-75211428D02*
X175030714Y-75306666D01*
X175030714Y-75306666D02*
X175078333Y-75401904D01*
X174792619Y-74211428D02*
X174792619Y-74116190D01*
X174792619Y-74116190D02*
X174840238Y-74020952D01*
X174840238Y-74020952D02*
X174887857Y-73973333D01*
X174887857Y-73973333D02*
X174983095Y-73925714D01*
X174983095Y-73925714D02*
X175173571Y-73878095D01*
X175173571Y-73878095D02*
X175411666Y-73878095D01*
X175411666Y-73878095D02*
X175602142Y-73925714D01*
X175602142Y-73925714D02*
X175697380Y-73973333D01*
X175697380Y-73973333D02*
X175745000Y-74020952D01*
X175745000Y-74020952D02*
X175792619Y-74116190D01*
X175792619Y-74116190D02*
X175792619Y-74211428D01*
X175792619Y-74211428D02*
X175745000Y-74306666D01*
X175745000Y-74306666D02*
X175697380Y-74354285D01*
X175697380Y-74354285D02*
X175602142Y-74401904D01*
X175602142Y-74401904D02*
X175411666Y-74449523D01*
X175411666Y-74449523D02*
X175173571Y-74449523D01*
X175173571Y-74449523D02*
X174983095Y-74401904D01*
X174983095Y-74401904D02*
X174887857Y-74354285D01*
X174887857Y-74354285D02*
X174840238Y-74306666D01*
X174840238Y-74306666D02*
X174792619Y-74211428D01*
X134631667Y-88480295D02*
X134365000Y-88099342D01*
X134174524Y-88480295D02*
X134174524Y-87680295D01*
X134174524Y-87680295D02*
X134479286Y-87680295D01*
X134479286Y-87680295D02*
X134555476Y-87718390D01*
X134555476Y-87718390D02*
X134593571Y-87756485D01*
X134593571Y-87756485D02*
X134631667Y-87832676D01*
X134631667Y-87832676D02*
X134631667Y-87946961D01*
X134631667Y-87946961D02*
X134593571Y-88023152D01*
X134593571Y-88023152D02*
X134555476Y-88061247D01*
X134555476Y-88061247D02*
X134479286Y-88099342D01*
X134479286Y-88099342D02*
X134174524Y-88099342D01*
X135317381Y-87680295D02*
X135165000Y-87680295D01*
X135165000Y-87680295D02*
X135088809Y-87718390D01*
X135088809Y-87718390D02*
X135050714Y-87756485D01*
X135050714Y-87756485D02*
X134974524Y-87870771D01*
X134974524Y-87870771D02*
X134936428Y-88023152D01*
X134936428Y-88023152D02*
X134936428Y-88327914D01*
X134936428Y-88327914D02*
X134974524Y-88404104D01*
X134974524Y-88404104D02*
X135012619Y-88442200D01*
X135012619Y-88442200D02*
X135088809Y-88480295D01*
X135088809Y-88480295D02*
X135241190Y-88480295D01*
X135241190Y-88480295D02*
X135317381Y-88442200D01*
X135317381Y-88442200D02*
X135355476Y-88404104D01*
X135355476Y-88404104D02*
X135393571Y-88327914D01*
X135393571Y-88327914D02*
X135393571Y-88137438D01*
X135393571Y-88137438D02*
X135355476Y-88061247D01*
X135355476Y-88061247D02*
X135317381Y-88023152D01*
X135317381Y-88023152D02*
X135241190Y-87985057D01*
X135241190Y-87985057D02*
X135088809Y-87985057D01*
X135088809Y-87985057D02*
X135012619Y-88023152D01*
X135012619Y-88023152D02*
X134974524Y-88061247D01*
X134974524Y-88061247D02*
X134936428Y-88137438D01*
X133619047Y-59050057D02*
X133523809Y-59002438D01*
X133523809Y-59002438D02*
X133428571Y-58907200D01*
X133428571Y-58907200D02*
X133285714Y-58764342D01*
X133285714Y-58764342D02*
X133190476Y-58716723D01*
X133190476Y-58716723D02*
X133095238Y-58716723D01*
X133142857Y-58954819D02*
X133047619Y-58907200D01*
X133047619Y-58907200D02*
X132952381Y-58811961D01*
X132952381Y-58811961D02*
X132904762Y-58621485D01*
X132904762Y-58621485D02*
X132904762Y-58288152D01*
X132904762Y-58288152D02*
X132952381Y-58097676D01*
X132952381Y-58097676D02*
X133047619Y-58002438D01*
X133047619Y-58002438D02*
X133142857Y-57954819D01*
X133142857Y-57954819D02*
X133333333Y-57954819D01*
X133333333Y-57954819D02*
X133428571Y-58002438D01*
X133428571Y-58002438D02*
X133523809Y-58097676D01*
X133523809Y-58097676D02*
X133571428Y-58288152D01*
X133571428Y-58288152D02*
X133571428Y-58621485D01*
X133571428Y-58621485D02*
X133523809Y-58811961D01*
X133523809Y-58811961D02*
X133428571Y-58907200D01*
X133428571Y-58907200D02*
X133333333Y-58954819D01*
X133333333Y-58954819D02*
X133142857Y-58954819D01*
X134285714Y-59335771D02*
X134238095Y-59288152D01*
X134238095Y-59288152D02*
X134142857Y-59145295D01*
X134142857Y-59145295D02*
X134095238Y-59050057D01*
X134095238Y-59050057D02*
X134047619Y-58907200D01*
X134047619Y-58907200D02*
X134000000Y-58669104D01*
X134000000Y-58669104D02*
X134000000Y-58478628D01*
X134000000Y-58478628D02*
X134047619Y-58240533D01*
X134047619Y-58240533D02*
X134095238Y-58097676D01*
X134095238Y-58097676D02*
X134142857Y-58002438D01*
X134142857Y-58002438D02*
X134238095Y-57859580D01*
X134238095Y-57859580D02*
X134285714Y-57811961D01*
X134619048Y-58907200D02*
X134761905Y-58954819D01*
X134761905Y-58954819D02*
X135000000Y-58954819D01*
X135000000Y-58954819D02*
X135095238Y-58907200D01*
X135095238Y-58907200D02*
X135142857Y-58859580D01*
X135142857Y-58859580D02*
X135190476Y-58764342D01*
X135190476Y-58764342D02*
X135190476Y-58669104D01*
X135190476Y-58669104D02*
X135142857Y-58573866D01*
X135142857Y-58573866D02*
X135095238Y-58526247D01*
X135095238Y-58526247D02*
X135000000Y-58478628D01*
X135000000Y-58478628D02*
X134809524Y-58431009D01*
X134809524Y-58431009D02*
X134714286Y-58383390D01*
X134714286Y-58383390D02*
X134666667Y-58335771D01*
X134666667Y-58335771D02*
X134619048Y-58240533D01*
X134619048Y-58240533D02*
X134619048Y-58145295D01*
X134619048Y-58145295D02*
X134666667Y-58050057D01*
X134666667Y-58050057D02*
X134714286Y-58002438D01*
X134714286Y-58002438D02*
X134809524Y-57954819D01*
X134809524Y-57954819D02*
X135047619Y-57954819D01*
X135047619Y-57954819D02*
X135190476Y-58002438D01*
X135619048Y-58954819D02*
X135619048Y-57954819D01*
X136047619Y-58050057D02*
X136095238Y-58002438D01*
X136095238Y-58002438D02*
X136190476Y-57954819D01*
X136190476Y-57954819D02*
X136428571Y-57954819D01*
X136428571Y-57954819D02*
X136523809Y-58002438D01*
X136523809Y-58002438D02*
X136571428Y-58050057D01*
X136571428Y-58050057D02*
X136619047Y-58145295D01*
X136619047Y-58145295D02*
X136619047Y-58240533D01*
X136619047Y-58240533D02*
X136571428Y-58383390D01*
X136571428Y-58383390D02*
X136000000Y-58954819D01*
X136000000Y-58954819D02*
X136619047Y-58954819D01*
X136952381Y-57954819D02*
X137571428Y-57954819D01*
X137571428Y-57954819D02*
X137238095Y-58335771D01*
X137238095Y-58335771D02*
X137380952Y-58335771D01*
X137380952Y-58335771D02*
X137476190Y-58383390D01*
X137476190Y-58383390D02*
X137523809Y-58431009D01*
X137523809Y-58431009D02*
X137571428Y-58526247D01*
X137571428Y-58526247D02*
X137571428Y-58764342D01*
X137571428Y-58764342D02*
X137523809Y-58859580D01*
X137523809Y-58859580D02*
X137476190Y-58907200D01*
X137476190Y-58907200D02*
X137380952Y-58954819D01*
X137380952Y-58954819D02*
X137095238Y-58954819D01*
X137095238Y-58954819D02*
X137000000Y-58907200D01*
X137000000Y-58907200D02*
X136952381Y-58859580D01*
X138190476Y-57954819D02*
X138285714Y-57954819D01*
X138285714Y-57954819D02*
X138380952Y-58002438D01*
X138380952Y-58002438D02*
X138428571Y-58050057D01*
X138428571Y-58050057D02*
X138476190Y-58145295D01*
X138476190Y-58145295D02*
X138523809Y-58335771D01*
X138523809Y-58335771D02*
X138523809Y-58573866D01*
X138523809Y-58573866D02*
X138476190Y-58764342D01*
X138476190Y-58764342D02*
X138428571Y-58859580D01*
X138428571Y-58859580D02*
X138380952Y-58907200D01*
X138380952Y-58907200D02*
X138285714Y-58954819D01*
X138285714Y-58954819D02*
X138190476Y-58954819D01*
X138190476Y-58954819D02*
X138095238Y-58907200D01*
X138095238Y-58907200D02*
X138047619Y-58859580D01*
X138047619Y-58859580D02*
X138000000Y-58764342D01*
X138000000Y-58764342D02*
X137952381Y-58573866D01*
X137952381Y-58573866D02*
X137952381Y-58335771D01*
X137952381Y-58335771D02*
X138000000Y-58145295D01*
X138000000Y-58145295D02*
X138047619Y-58050057D01*
X138047619Y-58050057D02*
X138095238Y-58002438D01*
X138095238Y-58002438D02*
X138190476Y-57954819D01*
X139476190Y-58954819D02*
X138904762Y-58954819D01*
X139190476Y-58954819D02*
X139190476Y-57954819D01*
X139190476Y-57954819D02*
X139095238Y-58097676D01*
X139095238Y-58097676D02*
X139000000Y-58192914D01*
X139000000Y-58192914D02*
X138904762Y-58240533D01*
X139809524Y-59335771D02*
X139857143Y-59288152D01*
X139857143Y-59288152D02*
X139952381Y-59145295D01*
X139952381Y-59145295D02*
X140000000Y-59050057D01*
X140000000Y-59050057D02*
X140047619Y-58907200D01*
X140047619Y-58907200D02*
X140095238Y-58669104D01*
X140095238Y-58669104D02*
X140095238Y-58478628D01*
X140095238Y-58478628D02*
X140047619Y-58240533D01*
X140047619Y-58240533D02*
X140000000Y-58097676D01*
X140000000Y-58097676D02*
X139952381Y-58002438D01*
X139952381Y-58002438D02*
X139857143Y-57859580D01*
X139857143Y-57859580D02*
X139809524Y-57811961D01*
X140476191Y-57954819D02*
X141095238Y-57954819D01*
X141095238Y-57954819D02*
X140761905Y-58335771D01*
X140761905Y-58335771D02*
X140904762Y-58335771D01*
X140904762Y-58335771D02*
X141000000Y-58383390D01*
X141000000Y-58383390D02*
X141047619Y-58431009D01*
X141047619Y-58431009D02*
X141095238Y-58526247D01*
X141095238Y-58526247D02*
X141095238Y-58764342D01*
X141095238Y-58764342D02*
X141047619Y-58859580D01*
X141047619Y-58859580D02*
X141000000Y-58907200D01*
X141000000Y-58907200D02*
X140904762Y-58954819D01*
X140904762Y-58954819D02*
X140619048Y-58954819D01*
X140619048Y-58954819D02*
X140523810Y-58907200D01*
X140523810Y-58907200D02*
X140476191Y-58859580D01*
D15*
%TO.C,J2*%
X117120000Y-103585000D02*
X117120000Y-108785000D01*
X155280000Y-103585000D02*
X117120000Y-103585000D01*
X155280000Y-103585000D02*
X155280000Y-106185000D01*
X155280000Y-106185000D02*
X157880000Y-106185000D01*
X156550000Y-103585000D02*
X157880000Y-103585000D01*
X157880000Y-103585000D02*
X157880000Y-104915000D01*
X157880000Y-106185000D02*
X157880000Y-108785000D01*
X157880000Y-108785000D02*
X117120000Y-108785000D01*
D16*
%TO.C,R20*%
X126375000Y-60885000D02*
X126375000Y-61115000D01*
X127625000Y-60885000D02*
X127625000Y-61115000D01*
D15*
%TO.C,JP1*%
X98500000Y-104750000D02*
X100500000Y-104750000D01*
X98500000Y-107550000D02*
X98500000Y-104750000D01*
X100500000Y-104750000D02*
X100500000Y-107550000D01*
X100500000Y-107550000D02*
X98500000Y-107550000D01*
D16*
%TO.C,R2*%
X114875000Y-67050000D02*
X114875000Y-66820000D01*
X116125000Y-67050000D02*
X116125000Y-66820000D01*
%TO.C,Q1*%
X145135000Y-81050000D02*
X146935000Y-81050000D01*
X146935000Y-77950000D02*
X145135000Y-77950000D01*
D17*
X143825000Y-78550000D02*
G75*
G02*
X143625000Y-78550000I-100000J0D01*
G01*
X143625000Y-78550000D02*
G75*
G02*
X143825000Y-78550000I100000J0D01*
G01*
D16*
%TO.C,C3*%
X120100000Y-66500000D02*
X120100000Y-67580000D01*
X121900000Y-66500000D02*
X121900000Y-67580000D01*
D18*
%TO.C,J1*%
X101078800Y-52068601D02*
X101078800Y-53865361D01*
X101078800Y-55724641D02*
X101078800Y-57918361D01*
X101078800Y-60031641D02*
X101078800Y-60222001D01*
X101078800Y-60222001D02*
X103007460Y-60222001D01*
X110732540Y-60222001D02*
X112661200Y-60222001D01*
X112661200Y-52068601D02*
X101078800Y-52068601D01*
X112661200Y-53865361D02*
X112661200Y-52068601D01*
X112661200Y-57918361D02*
X112661200Y-55724641D01*
X112661200Y-60222001D02*
X112661200Y-60031641D01*
D16*
%TO.C,C1*%
X100000000Y-99100000D02*
X101080000Y-99100000D01*
X100000000Y-100900000D02*
X101080000Y-100900000D01*
%TO.C,R15*%
X99320000Y-67025000D02*
X99320000Y-66975000D01*
X100120000Y-66975000D02*
X100120000Y-67025000D01*
%TO.C,R8*%
X128950000Y-69375000D02*
X129180000Y-69375000D01*
X128950000Y-70625000D02*
X129180000Y-70625000D01*
D18*
%TO.C,Q(SI2301)2*%
X165038999Y-97218500D02*
X165038999Y-98869500D01*
X166077859Y-97218500D02*
X165038999Y-97218500D01*
X166352138Y-98869500D02*
X167027860Y-98869500D01*
X168340999Y-97218500D02*
X167302139Y-97218500D01*
X168340999Y-98869500D02*
X168340999Y-97218500D01*
X164022999Y-99364800D02*
G75*
G02*
X163768999Y-99364800I-127000J0D01*
G01*
X163768999Y-99364800D02*
G75*
G02*
X164022999Y-99364800I127000J0D01*
G01*
D16*
%TO.C,R10*%
X145485000Y-83100000D02*
X145535000Y-83100000D01*
X145535000Y-83900000D02*
X145485000Y-83900000D01*
%TO.C,C8*%
X157000000Y-79270000D02*
X157000000Y-80270000D01*
X157960000Y-80270000D02*
X157960000Y-79270000D01*
%TO.C,U1*%
X109675000Y-103580000D02*
X111275000Y-103580000D01*
X109675000Y-106650000D02*
X111275000Y-106650000D01*
D17*
X108160000Y-104140000D02*
G75*
G02*
X107960000Y-104140000I-100000J0D01*
G01*
X107960000Y-104140000D02*
G75*
G02*
X108160000Y-104140000I100000J0D01*
G01*
D16*
%TO.C,J3*%
X98650000Y-75940000D02*
X104550000Y-75940000D01*
X98650000Y-80440000D02*
X98650000Y-75940000D01*
X104550000Y-75940000D02*
X104550000Y-80440000D01*
X104550000Y-80440000D02*
X98650000Y-80440000D01*
D17*
X102700000Y-81140000D02*
G75*
G02*
X102500000Y-81140000I-100000J0D01*
G01*
X102500000Y-81140000D02*
G75*
G02*
X102700000Y-81140000I100000J0D01*
G01*
D16*
%TO.C,C5*%
X140290000Y-95767200D02*
X140290000Y-94687200D01*
X142090000Y-95767200D02*
X142090000Y-94687200D01*
%TO.C,R1*%
X108465000Y-86560000D02*
X112865000Y-86560000D01*
X108465000Y-89760000D02*
X112865000Y-89760000D01*
%TO.C,R7*%
X120185000Y-79560000D02*
X120185000Y-79790000D01*
X121435000Y-79560000D02*
X121435000Y-79790000D01*
D19*
%TO.C,U4*%
X130890000Y-101480000D02*
X136490000Y-101480000D01*
X136490000Y-93080000D02*
X130890000Y-93080000D01*
D16*
X129503500Y-93080000D02*
G75*
G02*
X129376500Y-93080000I-63500J0D01*
G01*
X129376500Y-93080000D02*
G75*
G02*
X129503500Y-93080000I63500J0D01*
G01*
%TO.C,R3*%
X114415000Y-95895000D02*
X114185000Y-95895000D01*
X114415000Y-97145000D02*
X114185000Y-97145000D01*
D14*
%TO.C,Q2*%
X107760000Y-97119500D02*
X108420000Y-97119500D01*
X107760000Y-97934500D02*
X107760000Y-97119500D01*
D17*
X108920000Y-98669500D02*
X109520000Y-98669500D01*
D14*
X110020000Y-97119500D02*
X110680000Y-97119500D01*
X110020000Y-97119500D02*
X110680000Y-97119500D01*
X110680000Y-97119500D02*
X110020000Y-97119500D01*
X110680000Y-97119500D02*
X110680000Y-97934500D01*
D17*
%TO.C,D1*%
X118150000Y-57350000D02*
G75*
G02*
X117950000Y-57350000I-100000J0D01*
G01*
X117950000Y-57350000D02*
G75*
G02*
X118150000Y-57350000I100000J0D01*
G01*
D16*
%TO.C,U5*%
X164285000Y-75755000D02*
X164935000Y-75755000D01*
X164285000Y-75905000D02*
X164285000Y-75755000D01*
X164285000Y-80105000D02*
X164285000Y-80255000D01*
X164285000Y-80255000D02*
X164935000Y-80255000D01*
X167135000Y-75755000D02*
X167785000Y-75755000D01*
X167135000Y-80255000D02*
X167785000Y-80255000D01*
X167785000Y-75755000D02*
X167785000Y-75905000D01*
X167785000Y-80255000D02*
X167785000Y-80105000D01*
D17*
X165385000Y-75005000D02*
G75*
G02*
X165185000Y-75005000I-100000J0D01*
G01*
X165185000Y-75005000D02*
G75*
G02*
X165385000Y-75005000I100000J0D01*
G01*
D19*
%TO.C,U3*%
X148515000Y-101755000D02*
X154115000Y-101755000D01*
X154115000Y-93355000D02*
X148515000Y-93355000D01*
D16*
X155628500Y-101755000D02*
G75*
G02*
X155501500Y-101755000I-63500J0D01*
G01*
X155501500Y-101755000D02*
G75*
G02*
X155628500Y-101755000I63500J0D01*
G01*
%TO.C,R13*%
X169555000Y-87180000D02*
X169555000Y-87410000D01*
X170805000Y-87180000D02*
X170805000Y-87410000D01*
%TO.C,U2*%
X127290000Y-81570000D02*
X127290000Y-81870000D01*
X127290000Y-81570000D02*
X127590000Y-81570000D01*
X127290000Y-84570000D02*
X127290000Y-84270000D01*
X127290000Y-84570000D02*
X127590000Y-84570000D01*
X130290000Y-81570000D02*
X129990000Y-81570000D01*
X130290000Y-81570000D02*
X130290000Y-81870000D01*
X130290000Y-84570000D02*
X129990000Y-84570000D01*
X130290000Y-84570000D02*
X130290000Y-84270000D01*
D17*
X131365000Y-84020000D02*
G75*
G02*
X131165000Y-84020000I-100000J0D01*
G01*
X131165000Y-84020000D02*
G75*
G02*
X131365000Y-84020000I100000J0D01*
G01*
D16*
%TO.C,R19*%
X146695000Y-66155000D02*
X146695000Y-65925000D01*
X147945000Y-66155000D02*
X147945000Y-65925000D01*
D17*
%TO.C,IC1*%
X103550000Y-64300000D02*
X104950000Y-64300000D01*
D16*
%TO.C,R4*%
X118175000Y-92260000D02*
X118175000Y-92490000D01*
X119425000Y-92260000D02*
X119425000Y-92490000D01*
D17*
%TO.C,D2*%
X118150000Y-55000000D02*
G75*
G02*
X117950000Y-55000000I-100000J0D01*
G01*
X117950000Y-55000000D02*
G75*
G02*
X118150000Y-55000000I100000J0D01*
G01*
D14*
%TO.C,Q3*%
X164590000Y-102240500D02*
X165250000Y-102240500D01*
X164590000Y-103055500D02*
X164590000Y-102240500D01*
D17*
X165750000Y-103790500D02*
X166350000Y-103790500D01*
D14*
X166850000Y-102240500D02*
X167510000Y-102240500D01*
X166850000Y-102240500D02*
X167510000Y-102240500D01*
X167510000Y-102240500D02*
X166850000Y-102240500D01*
X167510000Y-102240500D02*
X167510000Y-103055500D01*
D16*
%TO.C,C2*%
X106140000Y-108320000D02*
X105060000Y-108320000D01*
X106140000Y-110120000D02*
X105060000Y-110120000D01*
D18*
%TO.C,Q(SI2301)1*%
X111698999Y-92138500D02*
X111698999Y-93789500D01*
X112737859Y-92138500D02*
X111698999Y-92138500D01*
X113012138Y-93789500D02*
X113687860Y-93789500D01*
X115000999Y-92138500D02*
X113962139Y-92138500D01*
X115000999Y-93789500D02*
X115000999Y-92138500D01*
X110682999Y-94284800D02*
G75*
G02*
X110428999Y-94284800I-127000J0D01*
G01*
X110428999Y-94284800D02*
G75*
G02*
X110682999Y-94284800I127000J0D01*
G01*
D16*
%TO.C,R9*%
X128950000Y-73375000D02*
X129180000Y-73375000D01*
X128950000Y-74625000D02*
X129180000Y-74625000D01*
%TO.C,R18*%
X146695000Y-59240000D02*
X146695000Y-59470000D01*
X147945000Y-59240000D02*
X147945000Y-59470000D01*
%TO.C,R14*%
X174210000Y-83515000D02*
X174440000Y-83515000D01*
X174210000Y-84765000D02*
X174440000Y-84765000D01*
%TO.C,R5*%
X150730000Y-79385000D02*
X150730000Y-79615000D01*
X151980000Y-79385000D02*
X151980000Y-79615000D01*
%TO.C,R12*%
X171064999Y-100429000D02*
X171064999Y-100659000D01*
X172314999Y-100429000D02*
X172314999Y-100659000D01*
D14*
%TO.C,L1*%
X158285000Y-86980000D02*
X158285000Y-82980000D01*
X162785000Y-86980000D02*
X162785000Y-82980000D01*
D16*
%TO.C,R16*%
X157080000Y-77005000D02*
X157080000Y-76955000D01*
X157880000Y-76955000D02*
X157880000Y-77005000D01*
D14*
%TO.C,SW1*%
X125673500Y-52140000D02*
X126173500Y-52140000D01*
X125700000Y-52570500D02*
X125700000Y-53454500D01*
X125831000Y-54362500D02*
X126093500Y-54362500D01*
X125836500Y-51662500D02*
X132169000Y-51662500D01*
X126150000Y-53862500D02*
X125700000Y-53862500D01*
X126150000Y-54362500D02*
X126150000Y-53862500D01*
X126173500Y-52140000D02*
X126173500Y-51690000D01*
X127410000Y-54362500D02*
X127593500Y-54362500D01*
X128909500Y-54362500D02*
X130593500Y-54362500D01*
X131799000Y-53883500D02*
X131799000Y-54253000D01*
X131823000Y-52162500D02*
X131823000Y-51662500D01*
X131823000Y-52162500D02*
X132169000Y-52162500D01*
X131909500Y-54362500D02*
X132169000Y-54362500D01*
X132300000Y-52570500D02*
X132300000Y-53454500D01*
D18*
%TO.C,U6*%
X152717500Y-60539640D02*
X152717500Y-61220360D01*
X152717500Y-62556400D02*
X154774900Y-62556400D01*
X154774900Y-59203600D02*
X152717500Y-59203600D01*
D16*
%TO.C,R11*%
X172884999Y-104379000D02*
X172654999Y-104379000D01*
X172884999Y-105629000D02*
X172654999Y-105629000D01*
D20*
%TO.C,L2*%
X160034000Y-60434000D02*
X160297500Y-60434000D01*
X160034000Y-65486000D02*
X160034000Y-60434000D01*
X160297500Y-65486000D02*
X160034000Y-65486000D01*
X164822500Y-65486000D02*
X165086000Y-65486000D01*
X165086000Y-60434000D02*
X164822500Y-60434000D01*
X165086000Y-65486000D02*
X165086000Y-60434000D01*
D17*
%TO.C,C4*%
X121345000Y-86625000D02*
X121345000Y-87725000D01*
D16*
%TO.C,R17*%
X167015000Y-71005000D02*
X167015000Y-71235000D01*
X168265000Y-71005000D02*
X168265000Y-71235000D01*
%TO.C,R6*%
X135670000Y-85735000D02*
X135440000Y-85735000D01*
X135670000Y-86985000D02*
X135440000Y-86985000D01*
D18*
%TO.C,Q(SI2301)3*%
X128898999Y-57690500D02*
X128898999Y-59341500D01*
X128898999Y-59341500D02*
X129937859Y-59341500D01*
X130887860Y-57690500D02*
X130212138Y-57690500D01*
X131162139Y-59341500D02*
X132200999Y-59341500D01*
X132200999Y-59341500D02*
X132200999Y-57690500D01*
X133470999Y-57195200D02*
G75*
G02*
X133216999Y-57195200I-127000J0D01*
G01*
X133216999Y-57195200D02*
G75*
G02*
X133470999Y-57195200I127000J0D01*
G01*
%TD*%
%LPC*%
D21*
%TO.C,U5*%
X165826000Y-75454000D02*
X165834000Y-75455000D01*
X165842000Y-75456000D01*
X165849000Y-75458000D01*
X165857000Y-75460000D01*
X165864000Y-75463000D01*
X165872000Y-75466000D01*
X165879000Y-75470000D01*
X165886000Y-75473000D01*
X165893000Y-75478000D01*
X165899000Y-75482000D01*
X165906000Y-75487000D01*
X165912000Y-75492000D01*
X165917000Y-75498000D01*
X165923000Y-75503000D01*
X165928000Y-75509000D01*
X165933000Y-75516000D01*
X165937000Y-75522000D01*
X165942000Y-75529000D01*
X165945000Y-75536000D01*
X165949000Y-75543000D01*
X165952000Y-75551000D01*
X165955000Y-75558000D01*
X165957000Y-75566000D01*
X165959000Y-75573000D01*
X165960000Y-75581000D01*
X165961000Y-75589000D01*
X165962000Y-75597000D01*
X165962000Y-75605000D01*
X165962000Y-75978000D01*
X166107000Y-75978000D01*
X166108000Y-75978000D01*
X166108000Y-75603000D01*
X166108000Y-75595000D01*
X166109000Y-75587000D01*
X166110000Y-75580000D01*
X166111000Y-75572000D01*
X166113000Y-75564000D01*
X166115000Y-75557000D01*
X166118000Y-75549000D01*
X166121000Y-75542000D01*
X166124000Y-75535000D01*
X166128000Y-75528000D01*
X166132000Y-75521000D01*
X166137000Y-75515000D01*
X166141000Y-75509000D01*
X166147000Y-75503000D01*
X166152000Y-75497000D01*
X166158000Y-75492000D01*
X166164000Y-75486000D01*
X166170000Y-75482000D01*
X166176000Y-75477000D01*
X166183000Y-75473000D01*
X166190000Y-75469000D01*
X166197000Y-75466000D01*
X166204000Y-75463000D01*
X166212000Y-75460000D01*
X166219000Y-75458000D01*
X166227000Y-75456000D01*
X166235000Y-75455000D01*
X166242000Y-75454000D01*
X166250000Y-75453000D01*
X166258000Y-75453000D01*
X166361000Y-75453000D01*
X166369000Y-75453000D01*
X166377000Y-75454000D01*
X166385000Y-75455000D01*
X166392000Y-75456000D01*
X166400000Y-75458000D01*
X166408000Y-75460000D01*
X166415000Y-75463000D01*
X166422000Y-75466000D01*
X166430000Y-75469000D01*
X166436000Y-75473000D01*
X166443000Y-75477000D01*
X166450000Y-75482000D01*
X166456000Y-75487000D01*
X166462000Y-75492000D01*
X166468000Y-75497000D01*
X166473000Y-75503000D01*
X166478000Y-75509000D01*
X166483000Y-75515000D01*
X166488000Y-75522000D01*
X166492000Y-75529000D01*
X166496000Y-75535000D01*
X166499000Y-75543000D01*
X166502000Y-75550000D01*
X166505000Y-75557000D01*
X166507000Y-75565000D01*
X166509000Y-75573000D01*
X166510000Y-75580000D01*
X166511000Y-75588000D01*
X166512000Y-75596000D01*
X166512000Y-75604000D01*
X166512000Y-76378000D01*
X167010000Y-76378000D01*
X167018000Y-76378000D01*
X167026000Y-76379000D01*
X167034000Y-76380000D01*
X167042000Y-76381000D01*
X167049000Y-76383000D01*
X167057000Y-76385000D01*
X167064000Y-76388000D01*
X167072000Y-76391000D01*
X167079000Y-76395000D01*
X167086000Y-76398000D01*
X167093000Y-76403000D01*
X167099000Y-76407000D01*
X167106000Y-76412000D01*
X167112000Y-76417000D01*
X167117000Y-76423000D01*
X167123000Y-76428000D01*
X167128000Y-76434000D01*
X167133000Y-76441000D01*
X167137000Y-76447000D01*
X167142000Y-76454000D01*
X167145000Y-76461000D01*
X167149000Y-76468000D01*
X167152000Y-76476000D01*
X167155000Y-76483000D01*
X167157000Y-76491000D01*
X167159000Y-76498000D01*
X167160000Y-76506000D01*
X167161000Y-76514000D01*
X167162000Y-76522000D01*
X167162000Y-76530000D01*
X167162000Y-79481000D01*
X167162000Y-79489000D01*
X167161000Y-79497000D01*
X167160000Y-79504000D01*
X167159000Y-79512000D01*
X167157000Y-79520000D01*
X167155000Y-79527000D01*
X167152000Y-79535000D01*
X167149000Y-79542000D01*
X167146000Y-79549000D01*
X167142000Y-79556000D01*
X167138000Y-79563000D01*
X167133000Y-79569000D01*
X167129000Y-79575000D01*
X167123000Y-79581000D01*
X167118000Y-79587000D01*
X167112000Y-79592000D01*
X167106000Y-79598000D01*
X167100000Y-79602000D01*
X167094000Y-79607000D01*
X167087000Y-79611000D01*
X167080000Y-79615000D01*
X167073000Y-79618000D01*
X167066000Y-79621000D01*
X167058000Y-79624000D01*
X167051000Y-79626000D01*
X167043000Y-79628000D01*
X167035000Y-79629000D01*
X167028000Y-79630000D01*
X167020000Y-79631000D01*
X167012000Y-79631000D01*
X166513000Y-79631000D01*
X166512000Y-79631000D01*
X166512000Y-79632000D01*
X166512000Y-80406000D01*
X166512000Y-80414000D01*
X166511000Y-80422000D01*
X166510000Y-80429000D01*
X166509000Y-80437000D01*
X166507000Y-80445000D01*
X166505000Y-80452000D01*
X166502000Y-80460000D01*
X166499000Y-80467000D01*
X166496000Y-80474000D01*
X166492000Y-80481000D01*
X166488000Y-80488000D01*
X166483000Y-80494000D01*
X166479000Y-80500000D01*
X166473000Y-80506000D01*
X166468000Y-80512000D01*
X166462000Y-80517000D01*
X166456000Y-80523000D01*
X166450000Y-80527000D01*
X166444000Y-80532000D01*
X166437000Y-80536000D01*
X166430000Y-80540000D01*
X166423000Y-80543000D01*
X166416000Y-80546000D01*
X166408000Y-80549000D01*
X166401000Y-80551000D01*
X166393000Y-80553000D01*
X166385000Y-80554000D01*
X166378000Y-80555000D01*
X166370000Y-80556000D01*
X166362000Y-80556000D01*
X166257000Y-80556000D01*
X166249000Y-80556000D01*
X166241000Y-80555000D01*
X166234000Y-80554000D01*
X166226000Y-80553000D01*
X166218000Y-80551000D01*
X166211000Y-80549000D01*
X166204000Y-80546000D01*
X166196000Y-80543000D01*
X166189000Y-80540000D01*
X166182000Y-80536000D01*
X166176000Y-80532000D01*
X166169000Y-80528000D01*
X166163000Y-80523000D01*
X166157000Y-80518000D01*
X166152000Y-80512000D01*
X166146000Y-80507000D01*
X166141000Y-80501000D01*
X166136000Y-80495000D01*
X166132000Y-80488000D01*
X166128000Y-80482000D01*
X166124000Y-80475000D01*
X166121000Y-80468000D01*
X166118000Y-80460000D01*
X166115000Y-80453000D01*
X166113000Y-80446000D01*
X166111000Y-80438000D01*
X166110000Y-80430000D01*
X166109000Y-80423000D01*
X166108000Y-80415000D01*
X166108000Y-80407000D01*
X166108000Y-80032000D01*
X165963000Y-80032000D01*
X165962000Y-80032000D01*
X165962000Y-80033000D01*
X165962000Y-80406000D01*
X165962000Y-80414000D01*
X165961000Y-80422000D01*
X165960000Y-80429000D01*
X165959000Y-80437000D01*
X165957000Y-80445000D01*
X165955000Y-80452000D01*
X165952000Y-80460000D01*
X165949000Y-80467000D01*
X165946000Y-80474000D01*
X165942000Y-80481000D01*
X165938000Y-80488000D01*
X165933000Y-80494000D01*
X165929000Y-80500000D01*
X165923000Y-80506000D01*
X165918000Y-80512000D01*
X165912000Y-80517000D01*
X165906000Y-80523000D01*
X165900000Y-80527000D01*
X165894000Y-80532000D01*
X165887000Y-80536000D01*
X165880000Y-80540000D01*
X165873000Y-80543000D01*
X165866000Y-80546000D01*
X165858000Y-80549000D01*
X165851000Y-80551000D01*
X165843000Y-80553000D01*
X165835000Y-80554000D01*
X165828000Y-80555000D01*
X165820000Y-80556000D01*
X165812000Y-80556000D01*
X165706000Y-80556000D01*
X165698000Y-80556000D01*
X165691000Y-80555000D01*
X165683000Y-80554000D01*
X165675000Y-80553000D01*
X165668000Y-80551000D01*
X165660000Y-80549000D01*
X165653000Y-80546000D01*
X165646000Y-80543000D01*
X165639000Y-80540000D01*
X165632000Y-80536000D01*
X165625000Y-80532000D01*
X165619000Y-80528000D01*
X165613000Y-80523000D01*
X165607000Y-80518000D01*
X165601000Y-80513000D01*
X165596000Y-80507000D01*
X165591000Y-80501000D01*
X165586000Y-80495000D01*
X165582000Y-80489000D01*
X165578000Y-80482000D01*
X165574000Y-80475000D01*
X165571000Y-80468000D01*
X165568000Y-80461000D01*
X165565000Y-80454000D01*
X165563000Y-80446000D01*
X165561000Y-80439000D01*
X165560000Y-80431000D01*
X165559000Y-80423000D01*
X165558000Y-80416000D01*
X165558000Y-80408000D01*
X165558000Y-79632000D01*
X165060000Y-79632000D01*
X165052000Y-79632000D01*
X165044000Y-79631000D01*
X165036000Y-79630000D01*
X165028000Y-79629000D01*
X165021000Y-79627000D01*
X165013000Y-79625000D01*
X165006000Y-79622000D01*
X164998000Y-79619000D01*
X164991000Y-79615000D01*
X164984000Y-79612000D01*
X164977000Y-79607000D01*
X164971000Y-79603000D01*
X164964000Y-79598000D01*
X164958000Y-79593000D01*
X164953000Y-79587000D01*
X164947000Y-79582000D01*
X164942000Y-79576000D01*
X164937000Y-79569000D01*
X164933000Y-79563000D01*
X164928000Y-79556000D01*
X164925000Y-79549000D01*
X164921000Y-79542000D01*
X164918000Y-79534000D01*
X164915000Y-79527000D01*
X164913000Y-79519000D01*
X164911000Y-79512000D01*
X164910000Y-79504000D01*
X164909000Y-79496000D01*
X164908000Y-79488000D01*
X164908000Y-79480000D01*
X164908000Y-76531000D01*
X164908000Y-76523000D01*
X164909000Y-76515000D01*
X164910000Y-76507000D01*
X164911000Y-76499000D01*
X164913000Y-76492000D01*
X164915000Y-76484000D01*
X164918000Y-76477000D01*
X164921000Y-76469000D01*
X164925000Y-76462000D01*
X164928000Y-76455000D01*
X164933000Y-76448000D01*
X164937000Y-76442000D01*
X164942000Y-76435000D01*
X164947000Y-76429000D01*
X164953000Y-76424000D01*
X164958000Y-76418000D01*
X164964000Y-76413000D01*
X164971000Y-76408000D01*
X164977000Y-76404000D01*
X164984000Y-76399000D01*
X164991000Y-76396000D01*
X164998000Y-76392000D01*
X165006000Y-76389000D01*
X165013000Y-76386000D01*
X165021000Y-76384000D01*
X165028000Y-76382000D01*
X165036000Y-76381000D01*
X165044000Y-76380000D01*
X165052000Y-76379000D01*
X165060000Y-76379000D01*
X165557000Y-76379000D01*
X165558000Y-76379000D01*
X165558000Y-76378000D01*
X165558000Y-75605000D01*
X165558000Y-75597000D01*
X165559000Y-75589000D01*
X165560000Y-75581000D01*
X165561000Y-75573000D01*
X165563000Y-75566000D01*
X165565000Y-75558000D01*
X165568000Y-75551000D01*
X165571000Y-75543000D01*
X165575000Y-75536000D01*
X165578000Y-75529000D01*
X165583000Y-75522000D01*
X165587000Y-75516000D01*
X165592000Y-75509000D01*
X165597000Y-75503000D01*
X165603000Y-75498000D01*
X165608000Y-75492000D01*
X165614000Y-75487000D01*
X165621000Y-75482000D01*
X165627000Y-75478000D01*
X165634000Y-75473000D01*
X165641000Y-75470000D01*
X165648000Y-75466000D01*
X165656000Y-75463000D01*
X165663000Y-75460000D01*
X165671000Y-75458000D01*
X165678000Y-75456000D01*
X165686000Y-75455000D01*
X165694000Y-75454000D01*
X165702000Y-75453000D01*
X165710000Y-75453000D01*
X165810000Y-75453000D01*
X165818000Y-75453000D01*
X165826000Y-75454000D01*
G36*
X165826000Y-75454000D02*
G01*
X165834000Y-75455000D01*
X165842000Y-75456000D01*
X165849000Y-75458000D01*
X165857000Y-75460000D01*
X165864000Y-75463000D01*
X165872000Y-75466000D01*
X165879000Y-75470000D01*
X165886000Y-75473000D01*
X165893000Y-75478000D01*
X165899000Y-75482000D01*
X165906000Y-75487000D01*
X165912000Y-75492000D01*
X165917000Y-75498000D01*
X165923000Y-75503000D01*
X165928000Y-75509000D01*
X165933000Y-75516000D01*
X165937000Y-75522000D01*
X165942000Y-75529000D01*
X165945000Y-75536000D01*
X165949000Y-75543000D01*
X165952000Y-75551000D01*
X165955000Y-75558000D01*
X165957000Y-75566000D01*
X165959000Y-75573000D01*
X165960000Y-75581000D01*
X165961000Y-75589000D01*
X165962000Y-75597000D01*
X165962000Y-75605000D01*
X165962000Y-75978000D01*
X166107000Y-75978000D01*
X166108000Y-75978000D01*
X166108000Y-75603000D01*
X166108000Y-75595000D01*
X166109000Y-75587000D01*
X166110000Y-75580000D01*
X166111000Y-75572000D01*
X166113000Y-75564000D01*
X166115000Y-75557000D01*
X166118000Y-75549000D01*
X166121000Y-75542000D01*
X166124000Y-75535000D01*
X166128000Y-75528000D01*
X166132000Y-75521000D01*
X166137000Y-75515000D01*
X166141000Y-75509000D01*
X166147000Y-75503000D01*
X166152000Y-75497000D01*
X166158000Y-75492000D01*
X166164000Y-75486000D01*
X166170000Y-75482000D01*
X166176000Y-75477000D01*
X166183000Y-75473000D01*
X166190000Y-75469000D01*
X166197000Y-75466000D01*
X166204000Y-75463000D01*
X166212000Y-75460000D01*
X166219000Y-75458000D01*
X166227000Y-75456000D01*
X166235000Y-75455000D01*
X166242000Y-75454000D01*
X166250000Y-75453000D01*
X166258000Y-75453000D01*
X166361000Y-75453000D01*
X166369000Y-75453000D01*
X166377000Y-75454000D01*
X166385000Y-75455000D01*
X166392000Y-75456000D01*
X166400000Y-75458000D01*
X166408000Y-75460000D01*
X166415000Y-75463000D01*
X166422000Y-75466000D01*
X166430000Y-75469000D01*
X166436000Y-75473000D01*
X166443000Y-75477000D01*
X166450000Y-75482000D01*
X166456000Y-75487000D01*
X166462000Y-75492000D01*
X166468000Y-75497000D01*
X166473000Y-75503000D01*
X166478000Y-75509000D01*
X166483000Y-75515000D01*
X166488000Y-75522000D01*
X166492000Y-75529000D01*
X166496000Y-75535000D01*
X166499000Y-75543000D01*
X166502000Y-75550000D01*
X166505000Y-75557000D01*
X166507000Y-75565000D01*
X166509000Y-75573000D01*
X166510000Y-75580000D01*
X166511000Y-75588000D01*
X166512000Y-75596000D01*
X166512000Y-75604000D01*
X166512000Y-76378000D01*
X167010000Y-76378000D01*
X167018000Y-76378000D01*
X167026000Y-76379000D01*
X167034000Y-76380000D01*
X167042000Y-76381000D01*
X167049000Y-76383000D01*
X167057000Y-76385000D01*
X167064000Y-76388000D01*
X167072000Y-76391000D01*
X167079000Y-76395000D01*
X167086000Y-76398000D01*
X167093000Y-76403000D01*
X167099000Y-76407000D01*
X167106000Y-76412000D01*
X167112000Y-76417000D01*
X167117000Y-76423000D01*
X167123000Y-76428000D01*
X167128000Y-76434000D01*
X167133000Y-76441000D01*
X167137000Y-76447000D01*
X167142000Y-76454000D01*
X167145000Y-76461000D01*
X167149000Y-76468000D01*
X167152000Y-76476000D01*
X167155000Y-76483000D01*
X167157000Y-76491000D01*
X167159000Y-76498000D01*
X167160000Y-76506000D01*
X167161000Y-76514000D01*
X167162000Y-76522000D01*
X167162000Y-76530000D01*
X167162000Y-79481000D01*
X167162000Y-79489000D01*
X167161000Y-79497000D01*
X167160000Y-79504000D01*
X167159000Y-79512000D01*
X167157000Y-79520000D01*
X167155000Y-79527000D01*
X167152000Y-79535000D01*
X167149000Y-79542000D01*
X167146000Y-79549000D01*
X167142000Y-79556000D01*
X167138000Y-79563000D01*
X167133000Y-79569000D01*
X167129000Y-79575000D01*
X167123000Y-79581000D01*
X167118000Y-79587000D01*
X167112000Y-79592000D01*
X167106000Y-79598000D01*
X167100000Y-79602000D01*
X167094000Y-79607000D01*
X167087000Y-79611000D01*
X167080000Y-79615000D01*
X167073000Y-79618000D01*
X167066000Y-79621000D01*
X167058000Y-79624000D01*
X167051000Y-79626000D01*
X167043000Y-79628000D01*
X167035000Y-79629000D01*
X167028000Y-79630000D01*
X167020000Y-79631000D01*
X167012000Y-79631000D01*
X166513000Y-79631000D01*
X166512000Y-79631000D01*
X166512000Y-79632000D01*
X166512000Y-80406000D01*
X166512000Y-80414000D01*
X166511000Y-80422000D01*
X166510000Y-80429000D01*
X166509000Y-80437000D01*
X166507000Y-80445000D01*
X166505000Y-80452000D01*
X166502000Y-80460000D01*
X166499000Y-80467000D01*
X166496000Y-80474000D01*
X166492000Y-80481000D01*
X166488000Y-80488000D01*
X166483000Y-80494000D01*
X166479000Y-80500000D01*
X166473000Y-80506000D01*
X166468000Y-80512000D01*
X166462000Y-80517000D01*
X166456000Y-80523000D01*
X166450000Y-80527000D01*
X166444000Y-80532000D01*
X166437000Y-80536000D01*
X166430000Y-80540000D01*
X166423000Y-80543000D01*
X166416000Y-80546000D01*
X166408000Y-80549000D01*
X166401000Y-80551000D01*
X166393000Y-80553000D01*
X166385000Y-80554000D01*
X166378000Y-80555000D01*
X166370000Y-80556000D01*
X166362000Y-80556000D01*
X166257000Y-80556000D01*
X166249000Y-80556000D01*
X166241000Y-80555000D01*
X166234000Y-80554000D01*
X166226000Y-80553000D01*
X166218000Y-80551000D01*
X166211000Y-80549000D01*
X166204000Y-80546000D01*
X166196000Y-80543000D01*
X166189000Y-80540000D01*
X166182000Y-80536000D01*
X166176000Y-80532000D01*
X166169000Y-80528000D01*
X166163000Y-80523000D01*
X166157000Y-80518000D01*
X166152000Y-80512000D01*
X166146000Y-80507000D01*
X166141000Y-80501000D01*
X166136000Y-80495000D01*
X166132000Y-80488000D01*
X166128000Y-80482000D01*
X166124000Y-80475000D01*
X166121000Y-80468000D01*
X166118000Y-80460000D01*
X166115000Y-80453000D01*
X166113000Y-80446000D01*
X166111000Y-80438000D01*
X166110000Y-80430000D01*
X166109000Y-80423000D01*
X166108000Y-80415000D01*
X166108000Y-80407000D01*
X166108000Y-80032000D01*
X165963000Y-80032000D01*
X165962000Y-80032000D01*
X165962000Y-80033000D01*
X165962000Y-80406000D01*
X165962000Y-80414000D01*
X165961000Y-80422000D01*
X165960000Y-80429000D01*
X165959000Y-80437000D01*
X165957000Y-80445000D01*
X165955000Y-80452000D01*
X165952000Y-80460000D01*
X165949000Y-80467000D01*
X165946000Y-80474000D01*
X165942000Y-80481000D01*
X165938000Y-80488000D01*
X165933000Y-80494000D01*
X165929000Y-80500000D01*
X165923000Y-80506000D01*
X165918000Y-80512000D01*
X165912000Y-80517000D01*
X165906000Y-80523000D01*
X165900000Y-80527000D01*
X165894000Y-80532000D01*
X165887000Y-80536000D01*
X165880000Y-80540000D01*
X165873000Y-80543000D01*
X165866000Y-80546000D01*
X165858000Y-80549000D01*
X165851000Y-80551000D01*
X165843000Y-80553000D01*
X165835000Y-80554000D01*
X165828000Y-80555000D01*
X165820000Y-80556000D01*
X165812000Y-80556000D01*
X165706000Y-80556000D01*
X165698000Y-80556000D01*
X165691000Y-80555000D01*
X165683000Y-80554000D01*
X165675000Y-80553000D01*
X165668000Y-80551000D01*
X165660000Y-80549000D01*
X165653000Y-80546000D01*
X165646000Y-80543000D01*
X165639000Y-80540000D01*
X165632000Y-80536000D01*
X165625000Y-80532000D01*
X165619000Y-80528000D01*
X165613000Y-80523000D01*
X165607000Y-80518000D01*
X165601000Y-80513000D01*
X165596000Y-80507000D01*
X165591000Y-80501000D01*
X165586000Y-80495000D01*
X165582000Y-80489000D01*
X165578000Y-80482000D01*
X165574000Y-80475000D01*
X165571000Y-80468000D01*
X165568000Y-80461000D01*
X165565000Y-80454000D01*
X165563000Y-80446000D01*
X165561000Y-80439000D01*
X165560000Y-80431000D01*
X165559000Y-80423000D01*
X165558000Y-80416000D01*
X165558000Y-80408000D01*
X165558000Y-79632000D01*
X165060000Y-79632000D01*
X165052000Y-79632000D01*
X165044000Y-79631000D01*
X165036000Y-79630000D01*
X165028000Y-79629000D01*
X165021000Y-79627000D01*
X165013000Y-79625000D01*
X165006000Y-79622000D01*
X164998000Y-79619000D01*
X164991000Y-79615000D01*
X164984000Y-79612000D01*
X164977000Y-79607000D01*
X164971000Y-79603000D01*
X164964000Y-79598000D01*
X164958000Y-79593000D01*
X164953000Y-79587000D01*
X164947000Y-79582000D01*
X164942000Y-79576000D01*
X164937000Y-79569000D01*
X164933000Y-79563000D01*
X164928000Y-79556000D01*
X164925000Y-79549000D01*
X164921000Y-79542000D01*
X164918000Y-79534000D01*
X164915000Y-79527000D01*
X164913000Y-79519000D01*
X164911000Y-79512000D01*
X164910000Y-79504000D01*
X164909000Y-79496000D01*
X164908000Y-79488000D01*
X164908000Y-79480000D01*
X164908000Y-76531000D01*
X164908000Y-76523000D01*
X164909000Y-76515000D01*
X164910000Y-76507000D01*
X164911000Y-76499000D01*
X164913000Y-76492000D01*
X164915000Y-76484000D01*
X164918000Y-76477000D01*
X164921000Y-76469000D01*
X164925000Y-76462000D01*
X164928000Y-76455000D01*
X164933000Y-76448000D01*
X164937000Y-76442000D01*
X164942000Y-76435000D01*
X164947000Y-76429000D01*
X164953000Y-76424000D01*
X164958000Y-76418000D01*
X164964000Y-76413000D01*
X164971000Y-76408000D01*
X164977000Y-76404000D01*
X164984000Y-76399000D01*
X164991000Y-76396000D01*
X164998000Y-76392000D01*
X165006000Y-76389000D01*
X165013000Y-76386000D01*
X165021000Y-76384000D01*
X165028000Y-76382000D01*
X165036000Y-76381000D01*
X165044000Y-76380000D01*
X165052000Y-76379000D01*
X165060000Y-76379000D01*
X165557000Y-76379000D01*
X165558000Y-76379000D01*
X165558000Y-76378000D01*
X165558000Y-75605000D01*
X165558000Y-75597000D01*
X165559000Y-75589000D01*
X165560000Y-75581000D01*
X165561000Y-75573000D01*
X165563000Y-75566000D01*
X165565000Y-75558000D01*
X165568000Y-75551000D01*
X165571000Y-75543000D01*
X165575000Y-75536000D01*
X165578000Y-75529000D01*
X165583000Y-75522000D01*
X165587000Y-75516000D01*
X165592000Y-75509000D01*
X165597000Y-75503000D01*
X165603000Y-75498000D01*
X165608000Y-75492000D01*
X165614000Y-75487000D01*
X165621000Y-75482000D01*
X165627000Y-75478000D01*
X165634000Y-75473000D01*
X165641000Y-75470000D01*
X165648000Y-75466000D01*
X165656000Y-75463000D01*
X165663000Y-75460000D01*
X165671000Y-75458000D01*
X165678000Y-75456000D01*
X165686000Y-75455000D01*
X165694000Y-75454000D01*
X165702000Y-75453000D01*
X165710000Y-75453000D01*
X165810000Y-75453000D01*
X165818000Y-75453000D01*
X165826000Y-75454000D01*
G37*
%TD*%
D22*
%TO.C,J2*%
X156550000Y-104915000D03*
D23*
X156550000Y-107455000D03*
X154010000Y-104915000D03*
X154010000Y-107455000D03*
X151470000Y-104915000D03*
X151470000Y-107455000D03*
X148930000Y-104915000D03*
X148930000Y-107455000D03*
X146390000Y-104915000D03*
X146390000Y-107455000D03*
X143850000Y-104915000D03*
X143850000Y-107455000D03*
X141310000Y-104915000D03*
X141310000Y-107455000D03*
X138770000Y-104915000D03*
X138770000Y-107455000D03*
X136230000Y-104915000D03*
X136230000Y-107455000D03*
X133690000Y-104915000D03*
X133690000Y-107455000D03*
X131150000Y-104915000D03*
X131150000Y-107455000D03*
X128610000Y-104915000D03*
X128610000Y-107455000D03*
X126070000Y-104915000D03*
X126070000Y-107455000D03*
X123530000Y-104915000D03*
X123530000Y-107455000D03*
X120990000Y-104915000D03*
X120990000Y-107455000D03*
X118450000Y-104915000D03*
X118450000Y-107455000D03*
%TD*%
D24*
%TO.C,R20*%
X127000000Y-60065000D03*
X127000000Y-61935000D03*
%TD*%
D25*
%TO.C,JP1*%
X99500000Y-106800000D03*
X99500000Y-105500000D03*
%TD*%
D26*
%TO.C,R2*%
X115500000Y-67870000D03*
X115500000Y-66000000D03*
%TD*%
D27*
%TO.C,Q1*%
X144780000Y-78550000D03*
X144780000Y-80450000D03*
X147290000Y-79500000D03*
%TD*%
D28*
%TO.C,C3*%
X121000000Y-65580000D03*
X121000000Y-68500000D03*
%TD*%
D29*
%TO.C,J1*%
X109760001Y-58445001D03*
X103979999Y-58445001D03*
D30*
X111940000Y-58975001D03*
X101800000Y-58975001D03*
D31*
X111940000Y-54795001D03*
X101800000Y-54795001D03*
D32*
X110095000Y-59890000D03*
X109320000Y-59890000D03*
D33*
X108120000Y-59890000D03*
X107120000Y-59890000D03*
X106620000Y-59890000D03*
X105620000Y-59890000D03*
D32*
X103645000Y-59890000D03*
X104420000Y-59890000D03*
D33*
X105120001Y-59890000D03*
X106119999Y-59890000D03*
X107620001Y-59890000D03*
X108619999Y-59890000D03*
%TD*%
D34*
%TO.C,C1*%
X99080000Y-100000000D03*
X102000000Y-100000000D03*
%TD*%
D35*
%TO.C,R15*%
X99720000Y-67780000D03*
X99720000Y-66220000D03*
%TD*%
D36*
%TO.C,R8*%
X128130000Y-70000000D03*
X130000000Y-70000000D03*
%TD*%
D37*
%TO.C,Q(SI2301)2*%
X165739998Y-99060000D03*
X167640000Y-99060000D03*
X166689999Y-97028000D03*
%TD*%
D38*
%TO.C,R10*%
X146290000Y-83500000D03*
X144730000Y-83500000D03*
%TD*%
D39*
%TO.C,C8*%
X157480000Y-80200000D03*
X157480000Y-79340000D03*
%TD*%
D40*
%TO.C,U1*%
X109220000Y-104140000D03*
X109220000Y-104790000D03*
X109220000Y-105440000D03*
X109220000Y-106090000D03*
X111730000Y-106090000D03*
X111730000Y-105440000D03*
X111730000Y-104790000D03*
X111730000Y-104140000D03*
%TD*%
D41*
%TO.C,J3*%
X102600000Y-78740000D03*
D42*
X100600000Y-78740000D03*
%TD*%
D43*
%TO.C,C5*%
X141190000Y-96687200D03*
X141190000Y-93767200D03*
%TD*%
D44*
%TO.C,R1*%
X107610000Y-88160000D03*
X113720000Y-88160000D03*
%TD*%
D24*
%TO.C,R7*%
X120810000Y-78740000D03*
X120810000Y-80610000D03*
%TD*%
D45*
%TO.C,U4*%
X130065000Y-93705000D03*
X130065000Y-94355000D03*
X130065000Y-95005000D03*
X130065000Y-95655000D03*
X130065000Y-96305000D03*
X130065000Y-96955000D03*
X130065000Y-97605000D03*
X130065000Y-98255000D03*
X130065000Y-98905000D03*
X130065000Y-99555000D03*
X130065000Y-100205000D03*
X130065000Y-100855000D03*
X137315000Y-100855000D03*
X137315000Y-100205000D03*
X137315000Y-99555000D03*
X137315000Y-98905000D03*
X137315000Y-98255000D03*
X137315000Y-97605000D03*
X137315000Y-96955000D03*
X137315000Y-96305000D03*
X137315000Y-95655000D03*
X137315000Y-95005000D03*
X137315000Y-94355000D03*
X137315000Y-93705000D03*
%TD*%
D46*
%TO.C,R3*%
X115235000Y-96520000D03*
X113365000Y-96520000D03*
%TD*%
D47*
%TO.C,3V*%
X137500000Y-80000000D03*
%TD*%
D48*
%TO.C,Q2*%
X110170000Y-99019000D03*
X108270000Y-99019000D03*
X109220000Y-96520000D03*
%TD*%
D49*
%TO.C,D1*%
X115500000Y-57350000D03*
X117000000Y-57350000D03*
%TD*%
D50*
%TO.C,U5*%
X165285000Y-75855000D03*
D51*
X164385000Y-76255000D03*
X164385000Y-76755000D03*
X164385000Y-77255000D03*
X164385000Y-77755000D03*
X164385000Y-78255000D03*
X164385000Y-78755000D03*
X164385000Y-79255000D03*
X164385000Y-79755000D03*
D50*
X165285000Y-80155000D03*
X166785000Y-80155000D03*
D51*
X167685000Y-79755000D03*
X167685000Y-79255000D03*
X167685000Y-78755000D03*
X167685000Y-78255000D03*
X167685000Y-77755000D03*
X167685000Y-77255000D03*
X167685000Y-76755000D03*
X167685000Y-76255000D03*
D50*
X166785000Y-75855000D03*
D52*
X166035000Y-78005000D03*
D53*
X166035000Y-76730000D03*
X165260000Y-77480000D03*
X166035000Y-77480000D03*
X166810000Y-77480000D03*
X165260000Y-78530000D03*
X166035000Y-78530000D03*
X166810000Y-78530000D03*
X166035000Y-79280000D03*
%TD*%
D54*
%TO.C,U3*%
X154940000Y-101130000D03*
X154940000Y-100480000D03*
X154940000Y-99830000D03*
X154940000Y-99180000D03*
X154940000Y-98530000D03*
X154940000Y-97880000D03*
X154940000Y-97230000D03*
X154940000Y-96580000D03*
X154940000Y-95930000D03*
X154940000Y-95280000D03*
X154940000Y-94630000D03*
X154940000Y-93980000D03*
X147690000Y-93980000D03*
X147690000Y-94630000D03*
X147690000Y-95280000D03*
X147690000Y-95930000D03*
X147690000Y-96580000D03*
X147690000Y-97230000D03*
X147690000Y-97880000D03*
X147690000Y-98530000D03*
X147690000Y-99180000D03*
X147690000Y-99830000D03*
X147690000Y-100480000D03*
X147690000Y-101130000D03*
%TD*%
D24*
%TO.C,R13*%
X170180000Y-86360000D03*
X170180000Y-88230000D03*
%TD*%
D55*
%TO.C,U2*%
X130225000Y-83820000D03*
X130225000Y-83320000D03*
X130225000Y-82820000D03*
X130225000Y-82320000D03*
D56*
X129540000Y-81635000D03*
X129040000Y-81635000D03*
X128540000Y-81635000D03*
X128040000Y-81635000D03*
D55*
X127355000Y-82320000D03*
X127355000Y-82820000D03*
X127355000Y-83320000D03*
X127355000Y-83820000D03*
D56*
X128040000Y-84505000D03*
X128540000Y-84505000D03*
X129040000Y-84505000D03*
X129540000Y-84505000D03*
D57*
X128790000Y-83070000D03*
%TD*%
D26*
%TO.C,R19*%
X147320000Y-66975000D03*
X147320000Y-65105000D03*
%TD*%
D58*
%TO.C,IC1*%
X104250000Y-65000000D03*
X104250000Y-66000000D03*
X104250000Y-67000000D03*
X104250000Y-68000000D03*
X104250000Y-69000000D03*
X109750000Y-69000000D03*
X109750000Y-68000000D03*
X109750000Y-67000000D03*
X109750000Y-66000000D03*
X109750000Y-65000000D03*
D59*
X107000000Y-67000000D03*
%TD*%
D60*
%TO.C,C14*%
X129625000Y-62500000D03*
X131375000Y-62500000D03*
%TD*%
D24*
%TO.C,R4*%
X118800000Y-91440000D03*
X118800000Y-93310000D03*
%TD*%
D61*
%TO.C,C15*%
X129637000Y-65500000D03*
X131363000Y-65500000D03*
%TD*%
D49*
%TO.C,D2*%
X115500000Y-55000000D03*
X117000000Y-55000000D03*
%TD*%
D48*
%TO.C,Q3*%
X167000000Y-104140000D03*
X165100000Y-104140000D03*
X166050000Y-101641000D03*
%TD*%
D62*
%TO.C,C2*%
X107060000Y-109220000D03*
X104140000Y-109220000D03*
%TD*%
D63*
%TO.C,C6*%
X144690000Y-94780000D03*
X144690000Y-95885600D03*
%TD*%
D37*
%TO.C,Q(SI2301)1*%
X112399998Y-93980000D03*
X114300000Y-93980000D03*
X113349999Y-91948000D03*
%TD*%
D47*
%TO.C,5V*%
X137500000Y-70000000D03*
%TD*%
D60*
%TO.C,C11*%
X173510000Y-78140000D03*
X175260000Y-78140000D03*
%TD*%
D36*
%TO.C,R9*%
X128130000Y-74000000D03*
X130000000Y-74000000D03*
%TD*%
D24*
%TO.C,R18*%
X147320000Y-58420000D03*
X147320000Y-60290000D03*
%TD*%
D36*
%TO.C,R14*%
X173390000Y-84140000D03*
X175260000Y-84140000D03*
%TD*%
D24*
%TO.C,R5*%
X151355000Y-78565000D03*
X151355000Y-80435000D03*
%TD*%
%TO.C,R12*%
X171689999Y-99609000D03*
X171689999Y-101479000D03*
%TD*%
D61*
%TO.C,C12*%
X154077000Y-55880000D03*
X155803000Y-55880000D03*
%TD*%
D64*
%TO.C,L1*%
X160535000Y-86780000D03*
X160535000Y-83180000D03*
%TD*%
D65*
%TO.C,R16*%
X157480000Y-76200000D03*
X157480000Y-77760000D03*
%TD*%
D66*
%TO.C,SW1*%
X126751500Y-55087500D03*
X128251500Y-55087500D03*
X131251500Y-55087500D03*
D67*
X132800000Y-54112500D03*
X132800000Y-51912500D03*
X125200000Y-51912500D03*
X125200000Y-54112500D03*
%TD*%
D68*
%TO.C,U6*%
X154940000Y-61819800D03*
X154940000Y-60880000D03*
X154940000Y-59940200D03*
X152552400Y-59927500D03*
X152552400Y-61832500D03*
%TD*%
D69*
%TO.C,C7*%
X162560000Y-72870000D03*
X162560000Y-71120000D03*
%TD*%
D46*
%TO.C,R11*%
X173704999Y-105004000D03*
X171834999Y-105004000D03*
%TD*%
D70*
%TO.C,L2*%
X162560000Y-60960000D03*
X162560000Y-64960000D03*
%TD*%
D71*
%TO.C,C9*%
X176285000Y-81070000D03*
X175425000Y-81070000D03*
%TD*%
D72*
%TO.C,C4*%
X120445000Y-87175000D03*
X122245000Y-87175000D03*
%TD*%
D73*
%TO.C,C13*%
X152400000Y-67766000D03*
X152400000Y-66040000D03*
%TD*%
D24*
%TO.C,R17*%
X167640000Y-70185000D03*
X167640000Y-72055000D03*
%TD*%
D74*
%TO.C,C10*%
X172720000Y-75140000D03*
X173825600Y-75140000D03*
%TD*%
D46*
%TO.C,R6*%
X136490000Y-86360000D03*
X134620000Y-86360000D03*
%TD*%
D37*
%TO.C,Q(SI2301)3*%
X131500000Y-57500000D03*
X129599998Y-57500000D03*
X130549999Y-59532000D03*
%TD*%
%LPD*%
M02*
